<svg xmlns="http://www.w3.org/2000/svg" xmlns:v="https://svgstorm.com"
viewBox = "0 0 1597 351"
width="1597"
height="351">
<g fill="None" fill-opacity="0.0" stroke="#000000" stroke-opacity="0.01" stroke-width="0.3"><path d="
M 0.00 351.00 
L 1597.00 351.00
L 1597.00 0.00
L 0.00 0.00
L 0.00 351.00
M 1200.00 346.00 
C 1201.30 346.16 1204.84 347.16 1206.00 348.00
C 1180.00 348.00 1154.00 348.00 1128.00 348.00
C 1015.91 348.00 903.82 347.00 791.00 347.00
C 792.63 347.16 795.67 348.94 798.00 348.00
C 773.91 350.33 747.85 348.34 723.00 349.00
C 607.95 349.00 494.12 348.00 379.00 348.00
C 381.94 348.28 386.35 349.86 390.00 349.00
C 354.53 351.27 318.06 347.95 282.00 350.00
C 270.17 350.00 257.78 349.99 246.00 350.00 C 234.22 350.01 222.37 350.11 211.00 349.00 C 199.63 347.89 187.42 351.80 178.00 347.00
C 179.05 312.50 177.46 276.69 179.00 242.00
C 164.42 244.59 144.28 241.19 133.00 241.00 C 121.71 240.82 102.44 242.78 88.00 241.00 C 73.56 239.22 55.96 241.49 40.78 240.78 C 25.60 240.07 5.79 246.85 1.00 232.00
C 4.65 227.98 14.99 220.96 19.25 214.25 C 23.51 207.54 30.36 201.15 37.25 195.25 C 44.13 189.35 49.09 182.21 55.23 176.23 C 61.37 170.25 68.89 163.19 74.75 156.75 C 80.62 150.32 85.53 143.78 91.19 137.75 C 96.85 131.73 103.91 123.41 111.00 119.00
C 110.63 111.45 103.59 110.41 98.75 105.25 C 93.91 100.09 94.29 95.85 87.25 91.41 C 80.20 86.98 80.82 85.18 73.75 78.25 C 66.68 71.32 56.67 58.56 48.25 51.75 C 39.83 44.94 41.35 42.42 35.81 36.75 C 30.26 31.09 26.41 31.07 23.41 24.25 C 20.42 17.42 13.84 20.11 10.41 11.25 C 6.98 2.39 13.46 0.35 23.00 2.00 C 32.54 3.65 43.18 1.26 53.00 2.00 C 62.82 2.74 73.00 1.66 83.00 2.00 C 93.00 2.34 103.96 1.82 114.00 2.00 C 124.04 2.18 134.01 1.87 144.00 2.00 C 153.99 2.13 164.07 1.83 174.00 2.00 C 183.93 2.17 194.18 1.68 204.00 2.00 C 213.82 2.32 224.42 1.31 234.00 2.00 C 243.58 2.69 253.58 -0.53 261.00 4.00
C 260.33 13.10 246.92 18.50 241.75 26.75 C 236.59 35.00 228.45 40.03 221.75 47.75 C 215.05 55.47 204.76 59.03 200.00 69.00
C 388.00 69.00 576.00 69.00 764.00 69.00
C 760.24 66.78 754.51 68.59 750.00 68.00
C 960.98 65.86 1173.64 68.87 1386.00 68.00
C 1366.94 49.36 1348.68 32.60 1329.00 15.00
C 1330.03 12.58 1329.90 10.48 1329.00 8.00
C 1337.91 2.04 1354.70 7.72 1365.07 5.93 C 1375.45 4.14 1386.76 3.74 1400.07 4.93 C 1413.39 6.11 1428.54 3.32 1441.07 3.07 C 1453.60 2.83 1469.59 5.06 1480.00 4.00 C 1490.42 2.94 1505.01 2.57 1517.22 2.22 C 1529.43 1.88 1545.28 1.01 1556.00 1.00 C 1566.72 0.99 1587.63 -1.01 1586.22 8.56 C 1584.82 18.13 1571.90 21.27 1565.75 29.75 C 1559.60 38.23 1553.18 44.08 1545.75 51.75 C 1538.32 59.42 1530.92 66.95 1523.25 74.25 C 1515.58 81.55 1509.35 89.43 1501.25 96.25 C 1493.14 103.06 1488.46 111.04 1480.00 118.00
C 1491.41 133.14 1508.32 146.50 1521.25 160.75 C 1534.18 175.00 1551.52 189.06 1563.75 203.25 C 1575.99 217.44 1600.76 231.41 1593.00 245.00
C 1576.37 244.64 1559.90 245.78 1545.00 244.00
C 1552.12 249.16 1536.27 243.65 1529.99 245.01 C 1523.72 246.37 1512.25 243.74 1505.00 245.00 C 1497.75 246.26 1488.93 247.50 1481.33 246.33 C 1473.73 245.16 1466.15 247.93 1458.33 246.67 C 1450.51 245.41 1442.08 247.17 1434.78 247.22 C 1427.48 247.27 1418.76 248.74 1413.00 246.00
C 1414.87 256.62 1413.36 267.25 1413.00 278.00
C 1417.49 276.16 1412.65 286.69 1414.02 292.02 C 1415.40 297.36 1413.04 307.00 1414.33 312.67 C 1415.62 318.34 1415.59 325.53 1415.22 331.22 C 1414.84 336.92 1417.72 347.74 1409.32 346.66 C 1400.93 345.59 1395.12 346.05 1387.00 346.00 C 1378.88 345.95 1371.95 346.02 1364.00 346.00 C 1356.05 345.98 1347.87 346.01 1340.00 346.00 C 1332.13 345.99 1324.80 346.00 1317.00 346.00 C 1309.20 346.00 1301.81 346.00 1294.00 346.00 C 1286.19 346.00 1277.81 346.00 1270.00 346.00 C 1262.19 346.00 1254.78 346.00 1247.00 346.00 C 1239.22 346.00 1231.84 346.00 1224.00 346.00 C 1216.16 346.00 1207.88 346.00 1200.00 346.00 Z"/>
</g>
<g fill="None" fill-opacity="0.0" stroke="#000000" stroke-opacity="0.97" stroke-width="0.3"><path d="
M 282.00 350.00 
C 313.11 346.99 346.77 348.00 379.00 348.00
C 494.12 348.00 607.95 349.00 723.00 349.00
C 717.08 348.43 709.63 347.35 703.00 348.00
C 731.43 345.67 761.82 347.66 791.00 347.00
C 903.82 347.00 1015.91 348.00 1128.00 348.00
C 1150.58 344.33 1176.24 346.00 1200.00 346.00
C 1207.88 346.00 1216.16 346.00 1224.00 346.00 C 1231.84 346.00 1239.22 346.00 1247.00 346.00 C 1254.78 346.00 1262.19 346.00 1270.00 346.00 C 1277.81 346.00 1286.19 346.00 1294.00 346.00 C 1301.81 346.00 1309.20 346.00 1317.00 346.00 C 1324.80 346.00 1332.13 345.99 1340.00 346.00 C 1347.87 346.01 1356.05 345.98 1364.00 346.00 C 1371.95 346.02 1378.88 345.95 1387.00 346.00 C 1395.12 346.05 1400.93 345.59 1409.32 346.66 C 1417.72 347.74 1414.84 336.92 1415.22 331.22 C 1415.59 325.53 1415.62 318.34 1414.33 312.67 C 1413.04 307.00 1415.40 297.36 1414.02 292.02 C 1412.65 286.69 1417.49 276.16 1413.00 278.00
C 1413.36 267.25 1414.87 256.62 1413.00 246.00
C 1418.76 248.74 1427.48 247.27 1434.78 247.22 C 1442.08 247.17 1450.51 245.41 1458.33 246.67 C 1466.15 247.93 1473.73 245.16 1481.33 246.33 C 1488.93 247.50 1497.75 246.26 1505.00 245.00 C 1512.25 243.74 1523.72 246.37 1529.99 245.01 C 1536.27 243.65 1552.12 249.16 1545.00 244.00
C 1559.90 245.78 1576.37 244.64 1593.00 245.00
C 1600.76 231.41 1575.99 217.44 1563.75 203.25 C 1551.52 189.06 1534.18 175.00 1521.25 160.75 C 1508.32 146.50 1491.41 133.14 1480.00 118.00
C 1488.46 111.04 1493.14 103.06 1501.25 96.25 C 1509.35 89.43 1515.58 81.55 1523.25 74.25 C 1530.92 66.95 1538.32 59.42 1545.75 51.75 C 1553.18 44.08 1559.60 38.23 1565.75 29.75 C 1571.90 21.27 1584.82 18.13 1586.22 8.56 C 1587.63 -1.01 1566.72 0.99 1556.00 1.00 C 1545.28 1.01 1529.43 1.88 1517.22 2.22 C 1505.01 2.57 1490.42 2.94 1480.00 4.00 C 1469.59 5.06 1453.60 2.83 1441.07 3.07 C 1428.54 3.32 1413.39 6.11 1400.07 4.93 C 1386.76 3.74 1375.45 4.14 1365.07 5.93 C 1354.70 7.72 1337.91 2.04 1329.00 8.00
C 1329.90 10.48 1330.03 12.58 1329.00 15.00
C 1348.68 32.60 1366.94 49.36 1386.00 68.00
C 1173.64 68.87 960.98 65.86 750.00 68.00
C 754.51 68.59 760.24 66.78 764.00 69.00
C 576.00 69.00 388.00 69.00 200.00 69.00
C 204.76 59.03 215.05 55.47 221.75 47.75 C 228.45 40.03 236.59 35.00 241.75 26.75 C 246.92 18.50 260.33 13.10 261.00 4.00
C 253.58 -0.53 243.58 2.69 234.00 2.00 C 224.42 1.31 213.82 2.32 204.00 2.00 C 194.18 1.68 183.93 2.17 174.00 2.00 C 164.07 1.83 153.99 2.13 144.00 2.00 C 134.01 1.87 124.04 2.18 114.00 2.00 C 103.96 1.82 93.00 2.34 83.00 2.00 C 73.00 1.66 62.82 2.74 53.00 2.00 C 43.18 1.26 32.54 3.65 23.00 2.00 C 13.46 0.35 6.98 2.39 10.41 11.25 C 13.84 20.11 20.42 17.42 23.41 24.25 C 26.41 31.07 30.26 31.09 35.81 36.75 C 41.35 42.42 39.83 44.94 48.25 51.75 C 56.67 58.56 66.68 71.32 73.75 78.25 C 80.82 85.18 80.20 86.98 87.25 91.41 C 94.29 95.85 93.91 100.09 98.75 105.25 C 103.59 110.41 110.63 111.45 111.00 119.00
C 103.91 123.41 96.85 131.73 91.19 137.75 C 85.53 143.78 80.62 150.32 74.75 156.75 C 68.89 163.19 61.37 170.25 55.23 176.23 C 49.09 182.21 44.13 189.35 37.25 195.25 C 30.36 201.15 23.51 207.54 19.25 214.25 C 14.99 220.96 4.65 227.98 1.00 232.00
C 5.79 246.85 25.60 240.07 40.78 240.78 C 55.96 241.49 73.56 239.22 88.00 241.00 C 102.44 242.78 121.71 240.82 133.00 241.00 C 144.28 241.19 164.42 244.59 179.00 242.00
C 177.46 276.69 179.05 312.50 178.00 347.00
C 187.42 351.80 199.63 347.89 211.00 349.00 C 222.37 350.11 234.22 350.01 246.00 350.00 C 257.78 349.99 270.17 350.00 282.00 350.00
M 242.00 12.00 
C 242.64 12.75 236.62 17.43 235.75 18.75 C 234.88 20.07 230.37 23.83 229.00 25.00
C 219.67 32.98 210.69 40.11 202.75 49.75 C 194.81 59.39 180.96 64.04 179.01 78.01 C 177.06 91.97 179.82 113.28 179.00 129.00 C 178.18 144.72 179.30 164.55 179.00 181.00 C 178.70 197.45 177.78 215.28 178.00 232.00
C 125.84 230.30 73.32 230.07 21.00 229.00
C 30.62 216.95 41.00 206.63 52.25 195.25 C 63.50 183.87 72.13 173.74 84.25 162.25 C 96.37 150.75 102.46 140.14 116.25 128.25 C 130.04 116.36 113.91 102.86 102.75 92.25 C 91.59 81.64 82.26 69.58 71.25 58.75 C 60.23 47.92 50.07 35.53 39.00 25.00
C 34.30 20.99 28.64 16.35 26.00 11.00
C 38.08 11.01 49.89 10.99 62.00 11.00 C 74.11 11.01 86.90 10.97 99.00 11.00 C 111.10 11.03 122.96 10.94 135.00 11.00 C 147.04 11.06 160.11 10.88 172.00 11.00 C 183.89 11.12 196.47 10.73 208.00 11.00 C 219.53 11.27 233.71 9.97 242.00 12.00
M 1566.00 13.00 
C 1559.29 23.02 1548.06 31.65 1539.75 40.75 C 1531.44 49.85 1520.75 58.79 1512.75 67.75 C 1504.75 76.71 1493.80 86.80 1486.25 95.25 C 1478.69 103.70 1460.18 114.43 1468.25 124.75 C 1476.32 135.07 1486.70 142.11 1495.25 151.75 C 1503.80 161.39 1513.52 169.37 1522.25 178.75 C 1530.98 188.13 1540.51 196.37 1549.25 205.75 C 1557.98 215.13 1568.97 223.75 1576.00 234.00
C 1521.47 234.23 1467.05 234.88 1413.00 237.00
C 1414.23 223.56 1411.60 211.25 1412.00 198.00 C 1412.40 184.75 1410.77 171.16 1411.00 158.00 C 1411.23 144.84 1409.65 130.93 1410.00 118.00 C 1410.35 105.07 1407.86 91.57 1409.00 79.00 C 1410.14 66.43 1396.50 65.40 1390.25 56.75 C 1384.00 48.11 1375.43 45.00 1369.25 36.75 C 1363.07 28.51 1353.39 25.09 1349.00 16.00
C 1421.58 16.04 1493.40 12.91 1566.00 13.00
M 1398.00 77.00 
C 1400.66 163.25 1403.50 249.46 1405.00 336.00
C 999.36 337.16 593.71 338.14 188.00 339.00
C 189.86 252.63 188.75 165.52 190.00 79.00
C 592.54 77.84 995.61 78.79 1398.00 77.00 Z"/>
</g>
<g fill="None" fill-opacity="0.0" stroke="#000000" stroke-opacity="0.78" stroke-width="0.3"><path d="
M 39.00 25.00 
C 37.55 23.55 27.99 14.78 29.00 13.00
C 31.31 8.92 43.81 13.18 49.00 12.00 C 54.19 10.82 63.77 12.53 70.00 12.00 C 76.23 11.47 84.24 12.23 91.00 12.00 C 97.76 11.77 106.05 12.12 113.00 12.00 C 119.95 11.88 126.99 12.08 134.00 12.00 C 141.01 11.92 147.92 12.08 155.00 12.00 C 162.08 11.92 169.92 12.14 177.00 12.00 C 184.08 11.86 190.99 12.30 198.00 12.00 C 205.01 11.70 212.04 12.66 219.00 12.00 C 225.96 11.34 233.89 12.96 240.00 13.00
C 240.14 12.87 241.82 11.79 242.00 12.00
C 233.71 9.97 219.53 11.27 208.00 11.00 C 196.47 10.73 183.89 11.12 172.00 11.00 C 160.11 10.88 147.04 11.06 135.00 11.00 C 122.96 10.94 111.10 11.03 99.00 11.00 C 86.90 10.97 74.11 11.01 62.00 11.00 C 49.89 10.99 38.08 11.01 26.00 11.00
C 28.64 16.35 34.30 20.99 39.00 25.00 Z"/>
</g>
<g fill="None" fill-opacity="0.0" stroke="#E62C57" stroke-opacity="0.87" stroke-width="0.3"><path d="
M 29.00 13.00 
C 99.00 13.00 169.00 13.00 239.00 13.00
C 237.89 15.41 235.04 16.62 234.00 19.00
C 235.88 17.12 238.12 14.75 240.00 13.00
C 233.89 12.96 225.96 11.34 219.00 12.00 C 212.04 12.66 205.01 11.70 198.00 12.00 C 190.99 12.30 184.08 11.86 177.00 12.00 C 169.92 12.14 162.08 11.92 155.00 12.00 C 147.92 12.08 141.01 11.92 134.00 12.00 C 126.99 12.08 119.95 11.88 113.00 12.00 C 106.05 12.12 97.76 11.77 91.00 12.00 C 84.24 12.23 76.23 11.47 70.00 12.00 C 63.77 12.53 54.19 10.82 49.00 12.00 C 43.81 13.18 31.31 8.92 29.00 13.00 Z"/>
</g>
<g fill="None" fill-opacity="0.0" stroke="#000000" stroke-opacity="0.53" stroke-width="0.3"><path d="
M 240.00 13.00 
C 238.12 14.75 235.88 17.12 234.00 19.00
C 232.38 20.90 230.71 23.29 229.00 25.00
C 230.37 23.83 234.88 20.07 235.75 18.75 C 236.62 17.43 242.64 12.75 242.00 12.00
C 241.82 11.79 240.14 12.87 240.00 13.00 Z"/>
</g>
<g fill="None" fill-opacity="0.0" stroke="#E82C57" stroke-opacity="1.00" stroke-width="0.3"><path d="
M 39.00 25.00 
C 50.07 35.53 60.23 47.92 71.25 58.75 C 82.26 69.58 91.59 81.64 102.75 92.25 C 113.91 102.86 130.04 116.36 116.25 128.25 C 102.46 140.14 96.37 150.75 84.25 162.25 C 72.13 173.74 63.50 183.87 52.25 195.25 C 41.00 206.63 30.62 216.95 21.00 229.00
C 73.32 230.07 125.84 230.30 178.00 232.00
C 177.78 215.28 178.70 197.45 179.00 181.00 C 179.30 164.55 178.18 144.72 179.00 129.00 C 179.82 113.28 177.06 91.97 179.01 78.01 C 180.96 64.04 194.81 59.39 202.75 49.75 C 210.69 40.11 219.67 32.98 229.00 25.00
C 230.71 23.29 232.38 20.90 234.00 19.00
C 235.04 16.62 237.89 15.41 239.00 13.00
C 169.00 13.00 99.00 13.00 29.00 13.00
C 27.99 14.78 37.55 23.55 39.00 25.00 Z"/>
</g>
<g fill="None" fill-opacity="0.0" stroke="#E82C57" stroke-opacity="1.00" stroke-width="0.3"><path d="
M 1566.00 13.00 
C 1493.40 12.91 1421.58 16.04 1349.00 16.00
C 1353.39 25.09 1363.07 28.51 1369.25 36.75 C 1375.43 45.00 1384.00 48.11 1390.25 56.75 C 1396.50 65.40 1410.14 66.43 1409.00 79.00 C 1407.86 91.57 1410.35 105.07 1410.00 118.00 C 1409.65 130.93 1411.23 144.84 1411.00 158.00 C 1410.77 171.16 1412.40 184.75 1412.00 198.00 C 1411.60 211.25 1414.23 223.56 1413.00 237.00
C 1467.05 234.88 1521.47 234.23 1576.00 234.00
C 1568.97 223.75 1557.98 215.13 1549.25 205.75 C 1540.51 196.37 1530.98 188.13 1522.25 178.75 C 1513.52 169.37 1503.80 161.39 1495.25 151.75 C 1486.70 142.11 1476.32 135.07 1468.25 124.75 C 1460.18 114.43 1478.69 103.70 1486.25 95.25 C 1493.80 86.80 1504.75 76.71 1512.75 67.75 C 1520.75 58.79 1531.44 49.85 1539.75 40.75 C 1548.06 31.65 1559.29 23.02 1566.00 13.00 Z"/>
</g>
<g fill="None" fill-opacity="0.0" stroke="#E82B57" stroke-opacity="1.00" stroke-width="0.3"><path d="
M 1398.00 77.00 
C 995.61 78.79 592.54 77.84 190.00 79.00
C 188.75 165.52 189.86 252.63 188.00 339.00
C 593.71 338.14 999.36 337.16 1405.00 336.00
C 1403.50 249.46 1400.66 163.25 1398.00 77.00
M 390.00 186.00 
C 392.15 185.74 397.29 186.19 399.00 186.00
C 400.28 185.74 401.71 186.20 403.00 186.00
C 404.23 176.15 401.37 165.80 403.00 156.00 C 404.63 146.20 399.46 136.35 404.00 127.00 C 408.54 117.64 417.58 129.35 415.00 138.00 C 412.42 146.65 416.71 157.99 416.00 167.00 C 415.29 176.01 416.60 187.93 416.00 197.00 C 415.40 206.07 416.00 217.41 415.00 226.00 C 414.00 234.59 412.80 243.43 406.00 248.00
C 401.96 229.11 403.14 208.87 403.00 189.00
C 386.37 198.59 367.49 203.24 348.00 204.00
C 348.80 208.64 347.37 214.14 347.00 218.00
C 347.00 225.77 349.88 240.46 343.69 246.69 C 337.51 252.93 333.17 236.92 333.00 229.00 C 332.84 221.08 332.26 206.60 332.00 197.00 C 331.74 187.40 330.97 176.52 330.00 166.00 C 329.03 155.47 330.93 146.63 329.00 135.00 C 327.07 123.37 338.68 119.76 341.78 131.22 C 344.88 142.69 344.03 149.89 345.00 161.00 C 345.97 172.11 347.57 180.70 347.00 192.00
C 361.39 190.28 375.33 186.73 390.00 186.00
M 503.00 142.00 
C 509.99 144.39 504.55 158.45 497.33 154.67 C 490.11 150.89 496.16 139.67 503.00 142.00
M 636.00 149.00 
C 642.07 151.26 638.68 162.85 640.33 168.67 C 641.98 174.49 640.90 185.73 641.00 193.00 C 641.10 200.27 641.41 210.20 641.00 218.00 C 640.59 225.80 639.63 232.09 638.22 240.22 C 636.82 248.35 628.79 248.95 629.02 239.98 C 629.26 231.00 628.63 223.19 629.00 215.00 C 629.37 206.81 630.13 198.65 630.00 191.00 C 629.87 183.35 630.03 173.24 629.00 167.00 C 627.98 160.76 627.56 145.86 636.00 149.00
M 827.00 227.00 
C 830.96 222.00 835.44 211.37 844.00 214.00 C 852.56 216.63 852.16 227.94 853.98 235.02 C 855.79 242.11 854.14 260.85 845.75 252.25 C 837.36 243.64 847.22 235.04 840.00 227.00
C 832.80 230.49 833.61 247.03 822.98 245.97 C 812.34 244.92 813.79 228.26 812.00 220.00 C 810.22 211.74 812.12 193.21 810.00 185.00 C 807.88 176.79 808.87 153.97 816.92 163.08 C 824.96 172.19 818.79 184.10 822.78 194.22 C 826.77 204.34 821.54 217.71 827.00 227.00
M 1191.00 258.00 
C 1177.17 251.37 1171.84 239.88 1163.23 226.77 C 1154.62 213.66 1148.13 198.88 1149.78 181.78 C 1151.42 164.68 1176.25 161.95 1186.00 176.00
C 1190.77 169.09 1197.02 161.88 1206.02 161.02 C 1215.02 160.17 1224.38 166.01 1229.75 173.25 C 1235.12 180.48 1238.06 191.18 1238.00 200.00 C 1237.94 208.82 1233.04 220.42 1229.70 227.69 C 1226.35 234.97 1220.68 244.17 1216.25 249.25 C 1211.82 254.32 1204.58 268.36 1197.32 265.66 C 1190.07 262.96 1201.81 248.59 1205.75 243.75 C 1209.70 238.91 1216.47 228.45 1219.77 221.77 C 1223.07 215.09 1228.53 199.96 1226.00 192.00 C 1223.47 184.04 1220.32 173.17 1210.32 172.68 C 1200.32 172.19 1195.88 178.68 1193.22 190.22 C 1190.56 201.77 1183.26 193.07 1180.23 183.77 C 1177.20 174.47 1159.47 172.93 1159.02 183.02 C 1158.58 193.12 1161.32 202.88 1165.77 211.23 C 1170.22 219.57 1174.17 226.04 1179.30 233.70 C 1184.43 241.35 1189.72 248.73 1191.00 258.00
M 450.00 191.00 
C 439.38 198.78 426.73 230.92 450.00 228.00
C 448.22 236.04 438.65 239.57 431.31 235.69 C 423.97 231.82 422.77 221.45 424.93 213.93 C 427.08 206.41 428.96 200.17 433.30 193.30 C 437.65 186.44 441.17 182.45 449.03 179.03 C 456.88 175.60 463.99 186.60 460.22 193.22 C 456.45 199.85 456.31 210.14 446.99 209.99 C 437.67 209.84 449.43 195.40 450.00 191.00
M 1044.00 185.00 
C 1048.59 187.10 1045.37 195.61 1040.33 192.67 C 1035.29 189.72 1038.86 182.64 1044.00 185.00
M 660.00 221.00 
C 665.26 224.56 663.78 232.49 672.23 233.77 C 680.68 235.05 680.02 243.82 671.98 243.98 C 663.93 244.13 660.49 238.27 656.25 233.75 C 652.01 229.23 644.05 225.91 644.01 219.99 C 643.97 214.07 653.98 214.71 658.25 209.25 C 662.52 203.78 664.90 201.30 670.75 195.75 C 676.60 190.20 678.38 203.54 672.70 207.70 C 667.01 211.85 666.41 217.80 660.00 221.00
M 508.00 265.00 
C 508.57 268.20 508.56 270.85 508.00 274.00
C 506.36 298.08 474.94 286.53 477.00 267.00
C 481.50 269.72 492.15 280.92 493.99 271.99 C 495.83 263.06 491.73 253.58 490.07 245.93 C 488.42 238.28 483.47 230.11 483.07 222.93 C 482.68 215.74 477.44 202.18 485.75 197.75 C 494.06 193.32 491.36 212.57 493.33 218.67 C 495.30 224.78 498.20 234.27 500.98 241.02 C 503.75 247.78 507.76 257.22 508.00 265.00
M 720.00 222.00 
C 718.64 210.28 735.37 211.00 737.92 220.08 C 740.48 229.15 738.56 239.36 731.75 245.75 C 724.94 252.14 718.06 258.31 707.98 254.02 C 697.89 249.74 697.55 241.05 697.78 230.78 C 698.01 220.50 712.59 213.92 708.02 227.02 C 703.46 240.13 711.66 246.25 720.69 241.69 C 729.73 237.14 731.92 219.45 720.00 222.00
M 977.00 236.00 
C 982.36 233.54 985.65 229.01 990.25 225.25 C 994.84 221.48 997.78 214.80 1005.00 216.00 C 1012.22 217.21 1010.56 228.94 1011.00 234.00 C 1011.44 239.06 1014.11 253.54 1005.78 249.22 C 997.44 244.91 1004.48 234.50 1002.00 228.00
C 994.10 234.27 992.32 238.82 983.30 244.30 C 974.29 249.78 963.55 240.92 965.00 230.00
C 956.95 234.60 961.16 244.91 951.92 248.92 C 942.68 252.92 945.73 236.14 951.77 231.77 C 957.81 227.40 956.29 214.33 966.03 214.03 C 975.76 213.72 974.67 229.62 977.00 236.00
M 792.00 239.00 
C 792.28 248.91 781.44 257.36 772.00 255.00 C 762.56 252.64 757.35 241.11 758.00 233.00 C 758.65 224.89 765.43 209.80 778.00 216.00 C 790.57 222.20 768.16 223.67 770.00 234.00 C 771.84 244.33 784.00 245.78 792.00 239.00
M 908.00 241.00 
C 917.51 242.27 927.20 243.08 936.00 247.00
C 930.50 250.70 923.20 252.86 915.98 252.98 C 908.76 253.09 899.88 250.99 894.75 256.75 C 889.62 262.52 878.43 258.78 874.25 255.75 C 870.08 252.71 864.01 241.15 870.25 237.25 C 876.50 233.36 878.88 251.81 887.00 247.00
C 878.20 239.87 873.37 224.59 886.23 218.23 C 899.09 211.87 912.19 228.07 908.00 241.00
M 1069.00 237.00 
C 1067.79 248.81 1081.13 249.47 1089.00 246.00
C 1084.37 254.68 1066.31 262.37 1060.25 251.75 C 1054.18 241.14 1055.77 228.16 1066.25 219.25 C 1076.73 210.34 1085.85 236.38 1069.00 237.00
M 560.00 223.00 
C 565.28 224.80 564.58 238.97 562.67 242.67 C 560.77 246.37 559.48 257.40 553.75 258.75 C 548.02 260.10 550.47 243.42 551.78 239.78 C 553.08 236.14 551.54 220.11 560.00 223.00
M 1033.00 225.00 
C 1038.62 228.75 1029.94 238.44 1033.00 243.00 C 1036.06 247.56 1032.99 253.83 1026.93 251.07 C 1020.87 248.31 1023.35 239.43 1023.33 235.33 C 1023.31 231.23 1028.12 221.75 1033.00 225.00 Z"/>
</g>
<g fill="None" fill-opacity="0.0" stroke="#FEFBFC" stroke-opacity="1.00" stroke-width="0.3"><path d="
M 347.00 218.00 
C 347.00 214.77 345.57 205.98 348.00 204.00
C 367.49 203.24 386.37 198.59 403.00 189.00
C 403.14 208.87 401.96 229.11 406.00 248.00
C 412.80 243.43 414.00 234.59 415.00 226.00 C 416.00 217.41 415.40 206.07 416.00 197.00 C 416.60 187.93 415.29 176.01 416.00 167.00 C 416.71 157.99 412.42 146.65 415.00 138.00 C 417.58 129.35 408.54 117.64 404.00 127.00 C 399.46 136.35 404.63 146.20 403.00 156.00 C 401.37 165.80 404.23 176.15 403.00 186.00
C 401.71 186.20 400.28 185.74 399.00 186.00
C 396.24 186.57 392.83 185.94 390.00 186.00
C 375.33 186.73 361.39 190.28 347.00 192.00
C 347.57 180.70 345.97 172.11 345.00 161.00 C 344.03 149.89 344.88 142.69 341.78 131.22 C 338.68 119.76 327.07 123.37 329.00 135.00 C 330.93 146.63 329.03 155.47 330.00 166.00 C 330.97 176.52 331.74 187.40 332.00 197.00 C 332.26 206.60 332.84 221.08 333.00 229.00 C 333.17 236.92 337.51 252.93 343.69 246.69 C 349.88 240.46 347.00 225.77 347.00 218.00 Z"/>
</g>
<g fill="None" fill-opacity="0.0" stroke="#FEF2F4" stroke-opacity="1.00" stroke-width="0.3"><path d="
M 503.00 142.00 
C 496.16 139.67 490.11 150.89 497.33 154.67 C 504.55 158.45 509.99 144.39 503.00 142.00 Z"/>
</g>
<g fill="None" fill-opacity="0.0" stroke="#FEFCFC" stroke-opacity="1.00" stroke-width="0.3"><path d="
M 636.00 149.00 
C 627.56 145.86 627.98 160.76 629.00 167.00 C 630.03 173.24 629.87 183.35 630.00 191.00 C 630.13 198.65 629.37 206.81 629.00 215.00 C 628.63 223.19 629.26 231.00 629.02 239.98 C 628.79 248.95 636.82 248.35 638.22 240.22 C 639.63 232.09 640.59 225.80 641.00 218.00 C 641.41 210.20 641.10 200.27 641.00 193.00 C 640.90 185.73 641.98 174.49 640.33 168.67 C 638.68 162.85 642.07 151.26 636.00 149.00 Z"/>
</g>
<g fill="None" fill-opacity="0.0" stroke="#FEFBFC" stroke-opacity="1.00" stroke-width="0.3"><path d="
M 827.00 227.00 
C 821.54 217.71 826.77 204.34 822.78 194.22 C 818.79 184.10 824.96 172.19 816.92 163.08 C 808.87 153.97 807.88 176.79 810.00 185.00 C 812.12 193.21 810.22 211.74 812.00 220.00 C 813.79 228.26 812.34 244.92 822.98 245.97 C 833.61 247.03 832.80 230.49 840.00 227.00
C 847.22 235.04 837.36 243.64 845.75 252.25 C 854.14 260.85 855.79 242.11 853.98 235.02 C 852.16 227.94 852.56 216.63 844.00 214.00 C 835.44 211.37 830.96 222.00 827.00 227.00 Z"/>
</g>
<g fill="None" fill-opacity="0.0" stroke="#FEFAFB" stroke-opacity="1.00" stroke-width="0.3"><path d="
M 1191.00 258.00 
C 1189.72 248.73 1184.43 241.35 1179.30 233.70 C 1174.17 226.04 1170.22 219.57 1165.77 211.23 C 1161.32 202.88 1158.58 193.12 1159.02 183.02 C 1159.47 172.93 1177.20 174.47 1180.23 183.77 C 1183.26 193.07 1190.56 201.77 1193.22 190.22 C 1195.88 178.68 1200.32 172.19 1210.32 172.68 C 1220.32 173.17 1223.47 184.04 1226.00 192.00 C 1228.53 199.96 1223.07 215.09 1219.77 221.77 C 1216.47 228.45 1209.70 238.91 1205.75 243.75 C 1201.81 248.59 1190.07 262.96 1197.32 265.66 C 1204.58 268.36 1211.82 254.32 1216.25 249.25 C 1220.68 244.17 1226.35 234.97 1229.70 227.69 C 1233.04 220.42 1237.94 208.82 1238.00 200.00 C 1238.06 191.18 1235.12 180.48 1229.75 173.25 C 1224.38 166.01 1215.02 160.17 1206.02 161.02 C 1197.02 161.88 1190.77 169.09 1186.00 176.00
C 1176.25 161.95 1151.42 164.68 1149.78 181.78 C 1148.13 198.88 1154.62 213.66 1163.23 226.77 C 1171.84 239.88 1177.17 251.37 1191.00 258.00 Z"/>
</g>
<g fill="None" fill-opacity="0.0" stroke="#FEFAFB" stroke-opacity="1.00" stroke-width="0.3"><path d="
M 450.00 191.00 
C 449.43 195.40 437.67 209.84 446.99 209.99 C 456.31 210.14 456.45 199.85 460.22 193.22 C 463.99 186.60 456.88 175.60 449.03 179.03 C 441.17 182.45 437.65 186.44 433.30 193.30 C 428.96 200.17 427.08 206.41 424.93 213.93 C 422.77 221.45 423.97 231.82 431.31 235.69 C 438.65 239.57 448.22 236.04 450.00 228.00
C 426.73 230.92 439.38 198.78 450.00 191.00 Z"/>
</g>
<g fill="None" fill-opacity="0.0" stroke="#F59BB0" stroke-opacity="1.00" stroke-width="0.3"><path d="
M 390.00 186.00 
C 392.83 185.94 396.24 186.57 399.00 186.00
C 397.29 186.19 392.15 185.74 390.00 186.00 Z"/>
</g>
<g fill="None" fill-opacity="0.0" stroke="#FEF5F7" stroke-opacity="1.00" stroke-width="0.3"><path d="
M 1044.00 185.00 
C 1038.86 182.64 1035.29 189.72 1040.33 192.67 C 1045.37 195.61 1048.59 187.10 1044.00 185.00 Z"/>
</g>
<g fill="None" fill-opacity="0.0" stroke="#FEF9FA" stroke-opacity="1.00" stroke-width="0.3"><path d="
M 660.00 221.00 
C 666.41 217.80 667.01 211.85 672.70 207.70 C 678.38 203.54 676.60 190.20 670.75 195.75 C 664.90 201.30 662.52 203.78 658.25 209.25 C 653.98 214.71 643.97 214.07 644.01 219.99 C 644.05 225.91 652.01 229.23 656.25 233.75 C 660.49 238.27 663.93 244.13 671.98 243.98 C 680.02 243.82 680.68 235.05 672.23 233.77 C 663.78 232.49 665.26 224.56 660.00 221.00 Z"/>
</g>
<g fill="None" fill-opacity="0.0" stroke="#FEFAFB" stroke-opacity="1.00" stroke-width="0.3"><path d="
M 508.00 274.00 
C 508.20 271.09 508.20 267.91 508.00 265.00
C 507.76 257.22 503.75 247.78 500.98 241.02 C 498.20 234.27 495.30 224.78 493.33 218.67 C 491.36 212.57 494.06 193.32 485.75 197.75 C 477.44 202.18 482.68 215.74 483.07 222.93 C 483.47 230.11 488.42 238.28 490.07 245.93 C 491.73 253.58 495.83 263.06 493.99 271.99 C 492.15 280.92 481.50 269.72 477.00 267.00
C 474.94 286.53 506.36 298.08 508.00 274.00 Z"/>
</g>
<g fill="None" fill-opacity="0.0" stroke="#F38DA5" stroke-opacity="1.00" stroke-width="0.3"><path d="
M 347.00 218.00 
C 347.37 214.14 348.80 208.64 348.00 204.00
C 345.57 205.98 347.00 214.77 347.00 218.00 Z"/>
</g>
<g fill="None" fill-opacity="0.0" stroke="#FEFBFB" stroke-opacity="1.00" stroke-width="0.3"><path d="
M 720.00 222.00 
C 731.92 219.45 729.73 237.14 720.69 241.69 C 711.66 246.25 703.46 240.13 708.02 227.02 C 712.59 213.92 698.01 220.50 697.78 230.78 C 697.55 241.05 697.89 249.74 707.98 254.02 C 718.06 258.31 724.94 252.14 731.75 245.75 C 738.56 239.36 740.48 229.15 737.92 220.08 C 735.37 211.00 718.64 210.28 720.00 222.00 Z"/>
</g>
<g fill="None" fill-opacity="0.0" stroke="#FEFAFB" stroke-opacity="1.00" stroke-width="0.3"><path d="
M 977.00 236.00 
C 974.67 229.62 975.76 213.72 966.03 214.03 C 956.29 214.33 957.81 227.40 951.77 231.77 C 945.73 236.14 942.68 252.92 951.92 248.92 C 961.16 244.91 956.95 234.60 965.00 230.00
C 963.55 240.92 974.29 249.78 983.30 244.30 C 992.32 238.82 994.10 234.27 1002.00 228.00
C 1004.48 234.50 997.44 244.91 1005.78 249.22 C 1014.11 253.54 1011.44 239.06 1011.00 234.00 C 1010.56 228.94 1012.22 217.21 1005.00 216.00 C 997.78 214.80 994.84 221.48 990.25 225.25 C 985.65 229.01 982.36 233.54 977.00 236.00 Z"/>
</g>
<g fill="None" fill-opacity="0.0" stroke="#FEFBFB" stroke-opacity="1.00" stroke-width="0.3"><path d="
M 792.00 239.00 
C 784.00 245.78 771.84 244.33 770.00 234.00 C 768.16 223.67 790.57 222.20 778.00 216.00 C 765.43 209.80 758.65 224.89 758.00 233.00 C 757.35 241.11 762.56 252.64 772.00 255.00 C 781.44 257.36 792.28 248.91 792.00 239.00 Z"/>
</g>
<g fill="None" fill-opacity="0.0" stroke="#FEFBFB" stroke-opacity="1.00" stroke-width="0.3"><path d="
M 908.00 241.00 
C 912.19 228.07 899.09 211.87 886.23 218.23 C 873.37 224.59 878.20 239.87 887.00 247.00
C 878.88 251.81 876.50 233.36 870.25 237.25 C 864.01 241.15 870.08 252.71 874.25 255.75 C 878.43 258.78 889.62 262.52 894.75 256.75 C 899.88 250.99 908.76 253.09 915.98 252.98 C 923.20 252.86 930.50 250.70 936.00 247.00
C 927.20 243.08 917.51 242.27 908.00 241.00
M 897.00 237.00 
C 894.22 237.28 887.43 231.83 890.78 228.78 C 894.13 225.73 899.11 233.70 897.00 237.00 Z"/>
</g>
<g fill="None" fill-opacity="0.0" stroke="#FEF9FA" stroke-opacity="1.00" stroke-width="0.3"><path d="
M 1069.00 237.00 
C 1085.85 236.38 1076.73 210.34 1066.25 219.25 C 1055.77 228.16 1054.18 241.14 1060.25 251.75 C 1066.31 262.37 1084.37 254.68 1089.00 246.00
C 1081.13 249.47 1067.79 248.81 1069.00 237.00 Z"/>
</g>
<g fill="None" fill-opacity="0.0" stroke="#FEF8F9" stroke-opacity="1.00" stroke-width="0.3"><path d="
M 560.00 223.00 
C 551.54 220.11 553.08 236.14 551.78 239.78 C 550.47 243.42 548.02 260.10 553.75 258.75 C 559.48 257.40 560.77 246.37 562.67 242.67 C 564.58 238.97 565.28 224.80 560.00 223.00 Z"/>
</g>
<g fill="None" fill-opacity="0.0" stroke="#FEFAFB" stroke-opacity="1.00" stroke-width="0.3"><path d="
M 1033.00 225.00 
C 1028.12 221.75 1023.31 231.23 1023.33 235.33 C 1023.35 239.43 1020.87 248.31 1026.93 251.07 C 1032.99 253.83 1036.06 247.56 1033.00 243.00 C 1029.94 238.44 1038.62 228.75 1033.00 225.00 Z"/>
</g>
<g fill="None" fill-opacity="0.0" stroke="#EB4769" stroke-opacity="1.00" stroke-width="0.3"><path d="
M 897.00 237.00 
C 899.11 233.70 894.13 225.73 890.78 228.78 C 887.43 231.83 894.22 237.28 897.00 237.00 Z"/>
</g>
<g fill="None" fill-opacity="0.0" stroke="#F5A0B3" stroke-opacity="1.00" stroke-width="0.3"><path d="
M 508.00 274.00 
C 508.56 270.85 508.57 268.20 508.00 265.00
C 508.20 267.91 508.20 271.09 508.00 274.00 Z"/>
</g>
<g fill="None" fill-opacity="0.0" stroke="#000000" stroke-opacity="0.48" stroke-width="0.3"><path d="
M 1128.00 348.00 
C 1154.00 348.00 1180.00 348.00 1206.00 348.00
C 1204.84 347.16 1201.30 346.16 1200.00 346.00
C 1176.24 346.00 1150.58 344.33 1128.00 348.00 Z"/>
</g>
<g fill="None" fill-opacity="0.0" stroke="#000000" stroke-opacity="0.54" stroke-width="0.3"><path d="
M 723.00 349.00 
C 747.85 348.34 773.91 350.33 798.00 348.00
C 795.67 348.94 792.63 347.16 791.00 347.00
C 761.82 347.66 731.43 345.67 703.00 348.00
C 709.63 347.35 717.08 348.43 723.00 349.00 Z"/>
</g>
<g fill="None" fill-opacity="0.0" stroke="#000000" stroke-opacity="0.56" stroke-width="0.3"><path d="
M 282.00 350.00 
C 318.06 347.95 354.53 351.27 390.00 349.00
C 386.35 349.86 381.94 348.28 379.00 348.00
C 346.77 348.00 313.11 346.99 282.00 350.00 Z"/>
</g>
<g fill="#000000" fill-opacity="0.01" stroke="None">
<path d="
M 0.00 351.00 
L 1597.00 351.00
L 1597.00 0.00
L 0.00 0.00
L 0.00 351.00
M 1200.00 346.00 
C 1201.30 346.16 1204.84 347.16 1206.00 348.00
C 1180.00 348.00 1154.00 348.00 1128.00 348.00
C 1015.91 348.00 903.82 347.00 791.00 347.00
C 792.63 347.16 795.67 348.94 798.00 348.00
C 773.91 350.33 747.85 348.34 723.00 349.00
C 607.95 349.00 494.12 348.00 379.00 348.00
C 381.94 348.28 386.35 349.86 390.00 349.00
C 354.53 351.27 318.06 347.95 282.00 350.00
C 270.17 350.00 257.78 349.99 246.00 350.00 C 234.22 350.01 222.37 350.11 211.00 349.00 C 199.63 347.89 187.42 351.80 178.00 347.00
C 179.05 312.50 177.46 276.69 179.00 242.00
C 164.42 244.59 144.28 241.19 133.00 241.00 C 121.71 240.82 102.44 242.78 88.00 241.00 C 73.56 239.22 55.96 241.49 40.78 240.78 C 25.60 240.07 5.79 246.85 1.00 232.00
C 4.65 227.98 14.99 220.96 19.25 214.25 C 23.51 207.54 30.36 201.15 37.25 195.25 C 44.13 189.35 49.09 182.21 55.23 176.23 C 61.37 170.25 68.89 163.19 74.75 156.75 C 80.62 150.32 85.53 143.78 91.19 137.75 C 96.85 131.73 103.91 123.41 111.00 119.00
C 110.63 111.45 103.59 110.41 98.75 105.25 C 93.91 100.09 94.29 95.85 87.25 91.41 C 80.20 86.98 80.82 85.18 73.75 78.25 C 66.68 71.32 56.67 58.56 48.25 51.75 C 39.83 44.94 41.35 42.42 35.81 36.75 C 30.26 31.09 26.41 31.07 23.41 24.25 C 20.42 17.42 13.84 20.11 10.41 11.25 C 6.98 2.39 13.46 0.35 23.00 2.00 C 32.54 3.65 43.18 1.26 53.00 2.00 C 62.82 2.74 73.00 1.66 83.00 2.00 C 93.00 2.34 103.96 1.82 114.00 2.00 C 124.04 2.18 134.01 1.87 144.00 2.00 C 153.99 2.13 164.07 1.83 174.00 2.00 C 183.93 2.17 194.18 1.68 204.00 2.00 C 213.82 2.32 224.42 1.31 234.00 2.00 C 243.58 2.69 253.58 -0.53 261.00 4.00
C 260.33 13.10 246.92 18.50 241.75 26.75 C 236.59 35.00 228.45 40.03 221.75 47.75 C 215.05 55.47 204.76 59.03 200.00 69.00
C 388.00 69.00 576.00 69.00 764.00 69.00
C 760.24 66.78 754.51 68.59 750.00 68.00
C 960.98 65.86 1173.64 68.87 1386.00 68.00
C 1366.94 49.36 1348.68 32.60 1329.00 15.00
C 1330.03 12.58 1329.90 10.48 1329.00 8.00
C 1337.91 2.04 1354.70 7.72 1365.07 5.93 C 1375.45 4.14 1386.76 3.74 1400.07 4.93 C 1413.39 6.11 1428.54 3.32 1441.07 3.07 C 1453.60 2.83 1469.59 5.06 1480.00 4.00 C 1490.42 2.94 1505.01 2.57 1517.22 2.22 C 1529.43 1.88 1545.28 1.01 1556.00 1.00 C 1566.72 0.99 1587.63 -1.01 1586.22 8.56 C 1584.82 18.13 1571.90 21.27 1565.75 29.75 C 1559.60 38.23 1553.18 44.08 1545.75 51.75 C 1538.32 59.42 1530.92 66.95 1523.25 74.25 C 1515.58 81.55 1509.35 89.43 1501.25 96.25 C 1493.14 103.06 1488.46 111.04 1480.00 118.00
C 1491.41 133.14 1508.32 146.50 1521.25 160.75 C 1534.18 175.00 1551.52 189.06 1563.75 203.25 C 1575.99 217.44 1600.76 231.41 1593.00 245.00
C 1576.37 244.64 1559.90 245.78 1545.00 244.00
C 1552.12 249.16 1536.27 243.65 1529.99 245.01 C 1523.72 246.37 1512.25 243.74 1505.00 245.00 C 1497.75 246.26 1488.93 247.50 1481.33 246.33 C 1473.73 245.16 1466.15 247.93 1458.33 246.67 C 1450.51 245.41 1442.08 247.17 1434.78 247.22 C 1427.48 247.27 1418.76 248.74 1413.00 246.00
C 1414.87 256.62 1413.36 267.25 1413.00 278.00
C 1417.49 276.16 1412.65 286.69 1414.02 292.02 C 1415.40 297.36 1413.04 307.00 1414.33 312.67 C 1415.62 318.34 1415.59 325.53 1415.22 331.22 C 1414.84 336.92 1417.72 347.74 1409.32 346.66 C 1400.93 345.59 1395.12 346.05 1387.00 346.00 C 1378.88 345.95 1371.95 346.02 1364.00 346.00 C 1356.05 345.98 1347.87 346.01 1340.00 346.00 C 1332.13 345.99 1324.80 346.00 1317.00 346.00 C 1309.20 346.00 1301.81 346.00 1294.00 346.00 C 1286.19 346.00 1277.81 346.00 1270.00 346.00 C 1262.19 346.00 1254.78 346.00 1247.00 346.00 C 1239.22 346.00 1231.84 346.00 1224.00 346.00 C 1216.16 346.00 1207.88 346.00 1200.00 346.00 Z"/>
</g>
<g fill="#000000" fill-opacity="0.97" stroke="None">
<path d="
M 282.00 350.00 
C 313.11 346.99 346.77 348.00 379.00 348.00
C 494.12 348.00 607.95 349.00 723.00 349.00
C 717.08 348.43 709.63 347.35 703.00 348.00
C 731.43 345.67 761.82 347.66 791.00 347.00
C 903.82 347.00 1015.91 348.00 1128.00 348.00
C 1150.58 344.33 1176.24 346.00 1200.00 346.00
C 1207.88 346.00 1216.16 346.00 1224.00 346.00 C 1231.84 346.00 1239.22 346.00 1247.00 346.00 C 1254.78 346.00 1262.19 346.00 1270.00 346.00 C 1277.81 346.00 1286.19 346.00 1294.00 346.00 C 1301.81 346.00 1309.20 346.00 1317.00 346.00 C 1324.80 346.00 1332.13 345.99 1340.00 346.00 C 1347.87 346.01 1356.05 345.98 1364.00 346.00 C 1371.95 346.02 1378.88 345.95 1387.00 346.00 C 1395.12 346.05 1400.93 345.59 1409.32 346.66 C 1417.72 347.74 1414.84 336.92 1415.22 331.22 C 1415.59 325.53 1415.62 318.34 1414.33 312.67 C 1413.04 307.00 1415.40 297.36 1414.02 292.02 C 1412.65 286.69 1417.49 276.16 1413.00 278.00
C 1413.36 267.25 1414.87 256.62 1413.00 246.00
C 1418.76 248.74 1427.48 247.27 1434.78 247.22 C 1442.08 247.17 1450.51 245.41 1458.33 246.67 C 1466.15 247.93 1473.73 245.16 1481.33 246.33 C 1488.93 247.50 1497.75 246.26 1505.00 245.00 C 1512.25 243.74 1523.72 246.37 1529.99 245.01 C 1536.27 243.65 1552.12 249.16 1545.00 244.00
C 1559.90 245.78 1576.37 244.64 1593.00 245.00
C 1600.76 231.41 1575.99 217.44 1563.75 203.25 C 1551.52 189.06 1534.18 175.00 1521.25 160.75 C 1508.32 146.50 1491.41 133.14 1480.00 118.00
C 1488.46 111.04 1493.14 103.06 1501.25 96.25 C 1509.35 89.43 1515.58 81.55 1523.25 74.25 C 1530.92 66.95 1538.32 59.42 1545.75 51.75 C 1553.18 44.08 1559.60 38.23 1565.75 29.75 C 1571.90 21.27 1584.82 18.13 1586.22 8.56 C 1587.63 -1.01 1566.72 0.99 1556.00 1.00 C 1545.28 1.01 1529.43 1.88 1517.22 2.22 C 1505.01 2.57 1490.42 2.94 1480.00 4.00 C 1469.59 5.06 1453.60 2.83 1441.07 3.07 C 1428.54 3.32 1413.39 6.11 1400.07 4.93 C 1386.76 3.74 1375.45 4.14 1365.07 5.93 C 1354.70 7.72 1337.91 2.04 1329.00 8.00
C 1329.90 10.48 1330.03 12.58 1329.00 15.00
C 1348.68 32.60 1366.94 49.36 1386.00 68.00
C 1173.64 68.87 960.98 65.86 750.00 68.00
C 754.51 68.59 760.24 66.78 764.00 69.00
C 576.00 69.00 388.00 69.00 200.00 69.00
C 204.76 59.03 215.05 55.47 221.75 47.75 C 228.45 40.03 236.59 35.00 241.75 26.75 C 246.92 18.50 260.33 13.10 261.00 4.00
C 253.58 -0.53 243.58 2.69 234.00 2.00 C 224.42 1.31 213.82 2.32 204.00 2.00 C 194.18 1.68 183.93 2.17 174.00 2.00 C 164.07 1.83 153.99 2.13 144.00 2.00 C 134.01 1.87 124.04 2.18 114.00 2.00 C 103.96 1.82 93.00 2.34 83.00 2.00 C 73.00 1.66 62.82 2.74 53.00 2.00 C 43.18 1.26 32.54 3.65 23.00 2.00 C 13.46 0.35 6.98 2.39 10.41 11.25 C 13.84 20.11 20.42 17.42 23.41 24.25 C 26.41 31.07 30.26 31.09 35.81 36.75 C 41.35 42.42 39.83 44.94 48.25 51.75 C 56.67 58.56 66.68 71.32 73.75 78.25 C 80.82 85.18 80.20 86.98 87.25 91.41 C 94.29 95.85 93.91 100.09 98.75 105.25 C 103.59 110.41 110.63 111.45 111.00 119.00
C 103.91 123.41 96.85 131.73 91.19 137.75 C 85.53 143.78 80.62 150.32 74.75 156.75 C 68.89 163.19 61.37 170.25 55.23 176.23 C 49.09 182.21 44.13 189.35 37.25 195.25 C 30.36 201.15 23.51 207.54 19.25 214.25 C 14.99 220.96 4.65 227.98 1.00 232.00
C 5.79 246.85 25.60 240.07 40.78 240.78 C 55.96 241.49 73.56 239.22 88.00 241.00 C 102.44 242.78 121.71 240.82 133.00 241.00 C 144.28 241.19 164.42 244.59 179.00 242.00
C 177.46 276.69 179.05 312.50 178.00 347.00
C 187.42 351.80 199.63 347.89 211.00 349.00 C 222.37 350.11 234.22 350.01 246.00 350.00 C 257.78 349.99 270.17 350.00 282.00 350.00
M 242.00 12.00 
C 242.64 12.75 236.62 17.43 235.75 18.75 C 234.88 20.07 230.37 23.83 229.00 25.00
C 219.67 32.98 210.69 40.11 202.75 49.75 C 194.81 59.39 180.96 64.04 179.01 78.01 C 177.06 91.97 179.82 113.28 179.00 129.00 C 178.18 144.72 179.30 164.55 179.00 181.00 C 178.70 197.45 177.78 215.28 178.00 232.00
C 125.84 230.30 73.32 230.07 21.00 229.00
C 30.62 216.95 41.00 206.63 52.25 195.25 C 63.50 183.87 72.13 173.74 84.25 162.25 C 96.37 150.75 102.46 140.14 116.25 128.25 C 130.04 116.36 113.91 102.86 102.75 92.25 C 91.59 81.64 82.26 69.58 71.25 58.75 C 60.23 47.92 50.07 35.53 39.00 25.00
C 34.30 20.99 28.64 16.35 26.00 11.00
C 38.08 11.01 49.89 10.99 62.00 11.00 C 74.11 11.01 86.90 10.97 99.00 11.00 C 111.10 11.03 122.96 10.94 135.00 11.00 C 147.04 11.06 160.11 10.88 172.00 11.00 C 183.89 11.12 196.47 10.73 208.00 11.00 C 219.53 11.27 233.71 9.97 242.00 12.00
M 1566.00 13.00 
C 1559.29 23.02 1548.06 31.65 1539.75 40.75 C 1531.44 49.85 1520.75 58.79 1512.75 67.75 C 1504.75 76.71 1493.80 86.80 1486.25 95.25 C 1478.69 103.70 1460.18 114.43 1468.25 124.75 C 1476.32 135.07 1486.70 142.11 1495.25 151.75 C 1503.80 161.39 1513.52 169.37 1522.25 178.75 C 1530.98 188.13 1540.51 196.37 1549.25 205.75 C 1557.98 215.13 1568.97 223.75 1576.00 234.00
C 1521.47 234.23 1467.05 234.88 1413.00 237.00
C 1414.23 223.56 1411.60 211.25 1412.00 198.00 C 1412.40 184.75 1410.77 171.16 1411.00 158.00 C 1411.23 144.84 1409.65 130.93 1410.00 118.00 C 1410.35 105.07 1407.86 91.57 1409.00 79.00 C 1410.14 66.43 1396.50 65.40 1390.25 56.75 C 1384.00 48.11 1375.43 45.00 1369.25 36.75 C 1363.07 28.51 1353.39 25.09 1349.00 16.00
C 1421.58 16.04 1493.40 12.91 1566.00 13.00
M 1398.00 77.00 
C 1400.66 163.25 1403.50 249.46 1405.00 336.00
C 999.36 337.16 593.71 338.14 188.00 339.00
C 189.86 252.63 188.75 165.52 190.00 79.00
C 592.54 77.84 995.61 78.79 1398.00 77.00 Z"/>
</g>
<g fill="#000000" fill-opacity="0.78" stroke="None">
<path d="
M 39.00 25.00 
C 37.55 23.55 27.99 14.78 29.00 13.00
C 31.31 8.92 43.81 13.18 49.00 12.00 C 54.19 10.82 63.77 12.53 70.00 12.00 C 76.23 11.47 84.24 12.23 91.00 12.00 C 97.76 11.77 106.05 12.12 113.00 12.00 C 119.95 11.88 126.99 12.08 134.00 12.00 C 141.01 11.92 147.92 12.08 155.00 12.00 C 162.08 11.92 169.92 12.14 177.00 12.00 C 184.08 11.86 190.99 12.30 198.00 12.00 C 205.01 11.70 212.04 12.66 219.00 12.00 C 225.96 11.34 233.89 12.96 240.00 13.00
C 240.14 12.87 241.82 11.79 242.00 12.00
C 233.71 9.97 219.53 11.27 208.00 11.00 C 196.47 10.73 183.89 11.12 172.00 11.00 C 160.11 10.88 147.04 11.06 135.00 11.00 C 122.96 10.94 111.10 11.03 99.00 11.00 C 86.90 10.97 74.11 11.01 62.00 11.00 C 49.89 10.99 38.08 11.01 26.00 11.00
C 28.64 16.35 34.30 20.99 39.00 25.00 Z"/>
</g>
<g fill="#E62C57" fill-opacity="0.87" stroke="None">
<path d="
M 29.00 13.00 
C 99.00 13.00 169.00 13.00 239.00 13.00
C 237.89 15.41 235.04 16.62 234.00 19.00
C 235.88 17.12 238.12 14.75 240.00 13.00
C 233.89 12.96 225.96 11.34 219.00 12.00 C 212.04 12.66 205.01 11.70 198.00 12.00 C 190.99 12.30 184.08 11.86 177.00 12.00 C 169.92 12.14 162.08 11.92 155.00 12.00 C 147.92 12.08 141.01 11.92 134.00 12.00 C 126.99 12.08 119.95 11.88 113.00 12.00 C 106.05 12.12 97.76 11.77 91.00 12.00 C 84.24 12.23 76.23 11.47 70.00 12.00 C 63.77 12.53 54.19 10.82 49.00 12.00 C 43.81 13.18 31.31 8.92 29.00 13.00 Z"/>
</g>
<g fill="#000000" fill-opacity="0.53" stroke="None">
<path d="
M 240.00 13.00 
C 238.12 14.75 235.88 17.12 234.00 19.00
C 232.38 20.90 230.71 23.29 229.00 25.00
C 230.37 23.83 234.88 20.07 235.75 18.75 C 236.62 17.43 242.64 12.75 242.00 12.00
C 241.82 11.79 240.14 12.87 240.00 13.00 Z"/>
</g>
<g fill="#E82C57" fill-opacity="1.00" stroke="None">
<path d="
M 39.00 25.00 
C 50.07 35.53 60.23 47.92 71.25 58.75 C 82.26 69.58 91.59 81.64 102.75 92.25 C 113.91 102.86 130.04 116.36 116.25 128.25 C 102.46 140.14 96.37 150.75 84.25 162.25 C 72.13 173.74 63.50 183.87 52.25 195.25 C 41.00 206.63 30.62 216.95 21.00 229.00
C 73.32 230.07 125.84 230.30 178.00 232.00
C 177.78 215.28 178.70 197.45 179.00 181.00 C 179.30 164.55 178.18 144.72 179.00 129.00 C 179.82 113.28 177.06 91.97 179.01 78.01 C 180.96 64.04 194.81 59.39 202.75 49.75 C 210.69 40.11 219.67 32.98 229.00 25.00
C 230.71 23.29 232.38 20.90 234.00 19.00
C 235.04 16.62 237.89 15.41 239.00 13.00
C 169.00 13.00 99.00 13.00 29.00 13.00
C 27.99 14.78 37.55 23.55 39.00 25.00 Z"/>
</g>
<g fill="#E82C57" fill-opacity="1.00" stroke="None">
<path d="
M 1566.00 13.00 
C 1493.40 12.91 1421.58 16.04 1349.00 16.00
C 1353.39 25.09 1363.07 28.51 1369.25 36.75 C 1375.43 45.00 1384.00 48.11 1390.25 56.75 C 1396.50 65.40 1410.14 66.43 1409.00 79.00 C 1407.86 91.57 1410.35 105.07 1410.00 118.00 C 1409.65 130.93 1411.23 144.84 1411.00 158.00 C 1410.77 171.16 1412.40 184.75 1412.00 198.00 C 1411.60 211.25 1414.23 223.56 1413.00 237.00
C 1467.05 234.88 1521.47 234.23 1576.00 234.00
C 1568.97 223.75 1557.98 215.13 1549.25 205.75 C 1540.51 196.37 1530.98 188.13 1522.25 178.75 C 1513.52 169.37 1503.80 161.39 1495.25 151.75 C 1486.70 142.11 1476.32 135.07 1468.25 124.75 C 1460.18 114.43 1478.69 103.70 1486.25 95.25 C 1493.80 86.80 1504.75 76.71 1512.75 67.75 C 1520.75 58.79 1531.44 49.85 1539.75 40.75 C 1548.06 31.65 1559.29 23.02 1566.00 13.00 Z"/>
</g>
<g fill="#E82B57" fill-opacity="1.00" stroke="None">
<path d="
M 1398.00 77.00 
C 995.61 78.79 592.54 77.84 190.00 79.00
C 188.75 165.52 189.86 252.63 188.00 339.00
C 593.71 338.14 999.36 337.16 1405.00 336.00
C 1403.50 249.46 1400.66 163.25 1398.00 77.00
M 390.00 186.00 
C 392.15 185.74 397.29 186.19 399.00 186.00
C 400.28 185.74 401.71 186.20 403.00 186.00
C 404.23 176.15 401.37 165.80 403.00 156.00 C 404.63 146.20 399.46 136.35 404.00 127.00 C 408.54 117.64 417.58 129.35 415.00 138.00 C 412.42 146.65 416.71 157.99 416.00 167.00 C 415.29 176.01 416.60 187.93 416.00 197.00 C 415.40 206.07 416.00 217.41 415.00 226.00 C 414.00 234.59 412.80 243.43 406.00 248.00
C 401.96 229.11 403.14 208.87 403.00 189.00
C 386.37 198.59 367.49 203.24 348.00 204.00
C 348.80 208.64 347.37 214.14 347.00 218.00
C 347.00 225.77 349.88 240.46 343.69 246.69 C 337.51 252.93 333.17 236.92 333.00 229.00 C 332.84 221.08 332.26 206.60 332.00 197.00 C 331.74 187.40 330.97 176.52 330.00 166.00 C 329.03 155.47 330.93 146.63 329.00 135.00 C 327.07 123.37 338.68 119.76 341.78 131.22 C 344.88 142.69 344.03 149.89 345.00 161.00 C 345.97 172.11 347.57 180.70 347.00 192.00
C 361.39 190.28 375.33 186.73 390.00 186.00
M 503.00 142.00 
C 509.99 144.39 504.55 158.45 497.33 154.67 C 490.11 150.89 496.16 139.67 503.00 142.00
M 636.00 149.00 
C 642.07 151.26 638.68 162.85 640.33 168.67 C 641.98 174.49 640.90 185.73 641.00 193.00 C 641.10 200.27 641.41 210.20 641.00 218.00 C 640.59 225.80 639.63 232.09 638.22 240.22 C 636.82 248.35 628.79 248.95 629.02 239.98 C 629.26 231.00 628.63 223.19 629.00 215.00 C 629.37 206.81 630.13 198.65 630.00 191.00 C 629.87 183.35 630.03 173.24 629.00 167.00 C 627.98 160.76 627.56 145.86 636.00 149.00
M 827.00 227.00 
C 830.96 222.00 835.44 211.37 844.00 214.00 C 852.56 216.63 852.16 227.94 853.98 235.02 C 855.79 242.11 854.14 260.85 845.75 252.25 C 837.36 243.64 847.22 235.04 840.00 227.00
C 832.80 230.49 833.61 247.03 822.98 245.97 C 812.34 244.92 813.79 228.26 812.00 220.00 C 810.22 211.74 812.12 193.21 810.00 185.00 C 807.88 176.79 808.87 153.97 816.92 163.08 C 824.96 172.19 818.79 184.10 822.78 194.22 C 826.77 204.34 821.54 217.71 827.00 227.00
M 1191.00 258.00 
C 1177.17 251.37 1171.84 239.88 1163.23 226.77 C 1154.62 213.66 1148.13 198.88 1149.78 181.78 C 1151.42 164.68 1176.25 161.95 1186.00 176.00
C 1190.77 169.09 1197.02 161.88 1206.02 161.02 C 1215.02 160.17 1224.38 166.01 1229.75 173.25 C 1235.12 180.48 1238.06 191.18 1238.00 200.00 C 1237.94 208.82 1233.04 220.42 1229.70 227.69 C 1226.35 234.97 1220.68 244.17 1216.25 249.25 C 1211.82 254.32 1204.58 268.36 1197.32 265.66 C 1190.07 262.96 1201.81 248.59 1205.75 243.75 C 1209.70 238.91 1216.47 228.45 1219.77 221.77 C 1223.07 215.09 1228.53 199.96 1226.00 192.00 C 1223.47 184.04 1220.32 173.17 1210.32 172.68 C 1200.32 172.19 1195.88 178.68 1193.22 190.22 C 1190.56 201.77 1183.26 193.07 1180.23 183.77 C 1177.20 174.47 1159.47 172.93 1159.02 183.02 C 1158.58 193.12 1161.32 202.88 1165.77 211.23 C 1170.22 219.57 1174.17 226.04 1179.30 233.70 C 1184.43 241.35 1189.72 248.73 1191.00 258.00
M 450.00 191.00 
C 439.38 198.78 426.73 230.92 450.00 228.00
C 448.22 236.04 438.65 239.57 431.31 235.69 C 423.97 231.82 422.77 221.45 424.93 213.93 C 427.08 206.41 428.96 200.17 433.30 193.30 C 437.65 186.44 441.17 182.45 449.03 179.03 C 456.88 175.60 463.99 186.60 460.22 193.22 C 456.45 199.85 456.31 210.14 446.99 209.99 C 437.67 209.84 449.43 195.40 450.00 191.00
M 1044.00 185.00 
C 1048.59 187.10 1045.37 195.61 1040.33 192.67 C 1035.29 189.72 1038.86 182.64 1044.00 185.00
M 660.00 221.00 
C 665.26 224.56 663.78 232.49 672.23 233.77 C 680.68 235.05 680.02 243.82 671.98 243.98 C 663.93 244.13 660.49 238.27 656.25 233.75 C 652.01 229.23 644.05 225.91 644.01 219.99 C 643.97 214.07 653.98 214.71 658.25 209.25 C 662.52 203.78 664.90 201.30 670.75 195.75 C 676.60 190.20 678.38 203.54 672.70 207.70 C 667.01 211.85 666.41 217.80 660.00 221.00
M 508.00 265.00 
C 508.57 268.20 508.56 270.85 508.00 274.00
C 506.36 298.08 474.94 286.53 477.00 267.00
C 481.50 269.72 492.15 280.92 493.99 271.99 C 495.83 263.06 491.73 253.58 490.07 245.93 C 488.42 238.28 483.47 230.11 483.07 222.93 C 482.68 215.74 477.44 202.18 485.75 197.75 C 494.06 193.32 491.36 212.57 493.33 218.67 C 495.30 224.78 498.20 234.27 500.98 241.02 C 503.75 247.78 507.76 257.22 508.00 265.00
M 720.00 222.00 
C 718.64 210.28 735.37 211.00 737.92 220.08 C 740.48 229.15 738.56 239.36 731.75 245.75 C 724.94 252.14 718.06 258.31 707.98 254.02 C 697.89 249.74 697.55 241.05 697.78 230.78 C 698.01 220.50 712.59 213.92 708.02 227.02 C 703.46 240.13 711.66 246.25 720.69 241.69 C 729.73 237.14 731.92 219.45 720.00 222.00
M 977.00 236.00 
C 982.36 233.54 985.65 229.01 990.25 225.25 C 994.84 221.48 997.78 214.80 1005.00 216.00 C 1012.22 217.21 1010.56 228.94 1011.00 234.00 C 1011.44 239.06 1014.11 253.54 1005.78 249.22 C 997.44 244.91 1004.48 234.50 1002.00 228.00
C 994.10 234.27 992.32 238.82 983.30 244.30 C 974.29 249.78 963.55 240.92 965.00 230.00
C 956.95 234.60 961.16 244.91 951.92 248.92 C 942.68 252.92 945.73 236.14 951.77 231.77 C 957.81 227.40 956.29 214.33 966.03 214.03 C 975.76 213.72 974.67 229.62 977.00 236.00
M 792.00 239.00 
C 792.28 248.91 781.44 257.36 772.00 255.00 C 762.56 252.64 757.35 241.11 758.00 233.00 C 758.65 224.89 765.43 209.80 778.00 216.00 C 790.57 222.20 768.16 223.67 770.00 234.00 C 771.84 244.33 784.00 245.78 792.00 239.00
M 908.00 241.00 
C 917.51 242.27 927.20 243.08 936.00 247.00
C 930.50 250.70 923.20 252.86 915.98 252.98 C 908.76 253.09 899.88 250.99 894.75 256.75 C 889.62 262.52 878.43 258.78 874.25 255.75 C 870.08 252.71 864.01 241.15 870.25 237.25 C 876.50 233.36 878.88 251.81 887.00 247.00
C 878.20 239.87 873.37 224.59 886.23 218.23 C 899.09 211.87 912.19 228.07 908.00 241.00
M 1069.00 237.00 
C 1067.79 248.81 1081.13 249.47 1089.00 246.00
C 1084.37 254.68 1066.31 262.37 1060.25 251.75 C 1054.18 241.14 1055.77 228.16 1066.25 219.25 C 1076.73 210.34 1085.85 236.38 1069.00 237.00
M 560.00 223.00 
C 565.28 224.80 564.58 238.97 562.67 242.67 C 560.77 246.37 559.48 257.40 553.75 258.75 C 548.02 260.10 550.47 243.42 551.78 239.78 C 553.08 236.14 551.54 220.11 560.00 223.00
M 1033.00 225.00 
C 1038.62 228.75 1029.94 238.44 1033.00 243.00 C 1036.06 247.56 1032.99 253.83 1026.93 251.07 C 1020.87 248.31 1023.35 239.43 1023.33 235.33 C 1023.31 231.23 1028.12 221.75 1033.00 225.00 Z"/>
</g>
<g fill="#FEFBFC" fill-opacity="1.00" stroke="None">
<path d="
M 347.00 218.00 
C 347.00 214.77 345.57 205.98 348.00 204.00
C 367.49 203.24 386.37 198.59 403.00 189.00
C 403.14 208.87 401.96 229.11 406.00 248.00
C 412.80 243.43 414.00 234.59 415.00 226.00 C 416.00 217.41 415.40 206.07 416.00 197.00 C 416.60 187.93 415.29 176.01 416.00 167.00 C 416.71 157.99 412.42 146.65 415.00 138.00 C 417.58 129.35 408.54 117.64 404.00 127.00 C 399.46 136.35 404.63 146.20 403.00 156.00 C 401.37 165.80 404.23 176.15 403.00 186.00
C 401.71 186.20 400.28 185.74 399.00 186.00
C 396.24 186.57 392.83 185.94 390.00 186.00
C 375.33 186.73 361.39 190.28 347.00 192.00
C 347.57 180.70 345.97 172.11 345.00 161.00 C 344.03 149.89 344.88 142.69 341.78 131.22 C 338.68 119.76 327.07 123.37 329.00 135.00 C 330.93 146.63 329.03 155.47 330.00 166.00 C 330.97 176.52 331.74 187.40 332.00 197.00 C 332.26 206.60 332.84 221.08 333.00 229.00 C 333.17 236.92 337.51 252.93 343.69 246.69 C 349.88 240.46 347.00 225.77 347.00 218.00 Z"/>
</g>
<g fill="#FEF2F4" fill-opacity="1.00" stroke="None">
<path d="
M 503.00 142.00 
C 496.16 139.67 490.11 150.89 497.33 154.67 C 504.55 158.45 509.99 144.39 503.00 142.00 Z"/>
</g>
<g fill="#FEFCFC" fill-opacity="1.00" stroke="None">
<path d="
M 636.00 149.00 
C 627.56 145.86 627.98 160.76 629.00 167.00 C 630.03 173.24 629.87 183.35 630.00 191.00 C 630.13 198.65 629.37 206.81 629.00 215.00 C 628.63 223.19 629.26 231.00 629.02 239.98 C 628.79 248.95 636.82 248.35 638.22 240.22 C 639.63 232.09 640.59 225.80 641.00 218.00 C 641.41 210.20 641.10 200.27 641.00 193.00 C 640.90 185.73 641.98 174.49 640.33 168.67 C 638.68 162.85 642.07 151.26 636.00 149.00 Z"/>
</g>
<g fill="#FEFBFC" fill-opacity="1.00" stroke="None">
<path d="
M 827.00 227.00 
C 821.54 217.71 826.77 204.34 822.78 194.22 C 818.79 184.10 824.96 172.19 816.92 163.08 C 808.87 153.97 807.88 176.79 810.00 185.00 C 812.12 193.21 810.22 211.74 812.00 220.00 C 813.79 228.26 812.34 244.92 822.98 245.97 C 833.61 247.03 832.80 230.49 840.00 227.00
C 847.22 235.04 837.36 243.64 845.75 252.25 C 854.14 260.85 855.79 242.11 853.98 235.02 C 852.16 227.94 852.56 216.63 844.00 214.00 C 835.44 211.37 830.96 222.00 827.00 227.00 Z"/>
</g>
<g fill="#FEFAFB" fill-opacity="1.00" stroke="None">
<path d="
M 1191.00 258.00 
C 1189.72 248.73 1184.43 241.35 1179.30 233.70 C 1174.17 226.04 1170.22 219.57 1165.77 211.23 C 1161.32 202.88 1158.58 193.12 1159.02 183.02 C 1159.47 172.93 1177.20 174.47 1180.23 183.77 C 1183.26 193.07 1190.56 201.77 1193.22 190.22 C 1195.88 178.68 1200.32 172.19 1210.32 172.68 C 1220.32 173.17 1223.47 184.04 1226.00 192.00 C 1228.53 199.96 1223.07 215.09 1219.77 221.77 C 1216.47 228.45 1209.70 238.91 1205.75 243.75 C 1201.81 248.59 1190.07 262.96 1197.32 265.66 C 1204.58 268.36 1211.82 254.32 1216.25 249.25 C 1220.68 244.17 1226.35 234.97 1229.70 227.69 C 1233.04 220.42 1237.94 208.82 1238.00 200.00 C 1238.06 191.18 1235.12 180.48 1229.75 173.25 C 1224.38 166.01 1215.02 160.17 1206.02 161.02 C 1197.02 161.88 1190.77 169.09 1186.00 176.00
C 1176.25 161.95 1151.42 164.68 1149.78 181.78 C 1148.13 198.88 1154.62 213.66 1163.23 226.77 C 1171.84 239.88 1177.17 251.37 1191.00 258.00 Z"/>
</g>
<g fill="#FEFAFB" fill-opacity="1.00" stroke="None">
<path d="
M 450.00 191.00 
C 449.43 195.40 437.67 209.84 446.99 209.99 C 456.31 210.14 456.45 199.85 460.22 193.22 C 463.99 186.60 456.88 175.60 449.03 179.03 C 441.17 182.45 437.65 186.44 433.30 193.30 C 428.96 200.17 427.08 206.41 424.93 213.93 C 422.77 221.45 423.97 231.82 431.31 235.69 C 438.65 239.57 448.22 236.04 450.00 228.00
C 426.73 230.92 439.38 198.78 450.00 191.00 Z"/>
</g>
<g fill="#F59BB0" fill-opacity="1.00" stroke="None">
<path d="
M 390.00 186.00 
C 392.83 185.94 396.24 186.57 399.00 186.00
C 397.29 186.19 392.15 185.74 390.00 186.00 Z"/>
</g>
<g fill="#FEF5F7" fill-opacity="1.00" stroke="None">
<path d="
M 1044.00 185.00 
C 1038.86 182.64 1035.29 189.72 1040.33 192.67 C 1045.37 195.61 1048.59 187.10 1044.00 185.00 Z"/>
</g>
<g fill="#FEF9FA" fill-opacity="1.00" stroke="None">
<path d="
M 660.00 221.00 
C 666.41 217.80 667.01 211.85 672.70 207.70 C 678.38 203.54 676.60 190.20 670.75 195.75 C 664.90 201.30 662.52 203.78 658.25 209.25 C 653.98 214.71 643.97 214.07 644.01 219.99 C 644.05 225.91 652.01 229.23 656.25 233.75 C 660.49 238.27 663.93 244.13 671.98 243.98 C 680.02 243.82 680.68 235.05 672.23 233.77 C 663.78 232.49 665.26 224.56 660.00 221.00 Z"/>
</g>
<g fill="#FEFAFB" fill-opacity="1.00" stroke="None">
<path d="
M 508.00 274.00 
C 508.20 271.09 508.20 267.91 508.00 265.00
C 507.76 257.22 503.75 247.78 500.98 241.02 C 498.20 234.27 495.30 224.78 493.33 218.67 C 491.36 212.57 494.06 193.32 485.75 197.75 C 477.44 202.18 482.68 215.74 483.07 222.93 C 483.47 230.11 488.42 238.28 490.07 245.93 C 491.73 253.58 495.83 263.06 493.99 271.99 C 492.15 280.92 481.50 269.72 477.00 267.00
C 474.94 286.53 506.36 298.08 508.00 274.00 Z"/>
</g>
<g fill="#F38DA5" fill-opacity="1.00" stroke="None">
<path d="
M 347.00 218.00 
C 347.37 214.14 348.80 208.64 348.00 204.00
C 345.57 205.98 347.00 214.77 347.00 218.00 Z"/>
</g>
<g fill="#FEFBFB" fill-opacity="1.00" stroke="None">
<path d="
M 720.00 222.00 
C 731.92 219.45 729.73 237.14 720.69 241.69 C 711.66 246.25 703.46 240.13 708.02 227.02 C 712.59 213.92 698.01 220.50 697.78 230.78 C 697.55 241.05 697.89 249.74 707.98 254.02 C 718.06 258.31 724.94 252.14 731.75 245.75 C 738.56 239.36 740.48 229.15 737.92 220.08 C 735.37 211.00 718.64 210.28 720.00 222.00 Z"/>
</g>
<g fill="#FEFAFB" fill-opacity="1.00" stroke="None">
<path d="
M 977.00 236.00 
C 974.67 229.62 975.76 213.72 966.03 214.03 C 956.29 214.33 957.81 227.40 951.77 231.77 C 945.73 236.14 942.68 252.92 951.92 248.92 C 961.16 244.91 956.95 234.60 965.00 230.00
C 963.55 240.92 974.29 249.78 983.30 244.30 C 992.32 238.82 994.10 234.27 1002.00 228.00
C 1004.48 234.50 997.44 244.91 1005.78 249.22 C 1014.11 253.54 1011.44 239.06 1011.00 234.00 C 1010.56 228.94 1012.22 217.21 1005.00 216.00 C 997.78 214.80 994.84 221.48 990.25 225.25 C 985.65 229.01 982.36 233.54 977.00 236.00 Z"/>
</g>
<g fill="#FEFBFB" fill-opacity="1.00" stroke="None">
<path d="
M 792.00 239.00 
C 784.00 245.78 771.84 244.33 770.00 234.00 C 768.16 223.67 790.57 222.20 778.00 216.00 C 765.43 209.80 758.65 224.89 758.00 233.00 C 757.35 241.11 762.56 252.64 772.00 255.00 C 781.44 257.36 792.28 248.91 792.00 239.00 Z"/>
</g>
<g fill="#FEFBFB" fill-opacity="1.00" stroke="None">
<path d="
M 908.00 241.00 
C 912.19 228.07 899.09 211.87 886.23 218.23 C 873.37 224.59 878.20 239.87 887.00 247.00
C 878.88 251.81 876.50 233.36 870.25 237.25 C 864.01 241.15 870.08 252.71 874.25 255.75 C 878.43 258.78 889.62 262.52 894.75 256.75 C 899.88 250.99 908.76 253.09 915.98 252.98 C 923.20 252.86 930.50 250.70 936.00 247.00
C 927.20 243.08 917.51 242.27 908.00 241.00
M 897.00 237.00 
C 894.22 237.28 887.43 231.83 890.78 228.78 C 894.13 225.73 899.11 233.70 897.00 237.00 Z"/>
</g>
<g fill="#FEF9FA" fill-opacity="1.00" stroke="None">
<path d="
M 1069.00 237.00 
C 1085.85 236.38 1076.73 210.34 1066.25 219.25 C 1055.77 228.16 1054.18 241.14 1060.25 251.75 C 1066.31 262.37 1084.37 254.68 1089.00 246.00
C 1081.13 249.47 1067.79 248.81 1069.00 237.00 Z"/>
</g>
<g fill="#FEF8F9" fill-opacity="1.00" stroke="None">
<path d="
M 560.00 223.00 
C 551.54 220.11 553.08 236.14 551.78 239.78 C 550.47 243.42 548.02 260.10 553.75 258.75 C 559.48 257.40 560.77 246.37 562.67 242.67 C 564.58 238.97 565.28 224.80 560.00 223.00 Z"/>
</g>
<g fill="#FEFAFB" fill-opacity="1.00" stroke="None">
<path d="
M 1033.00 225.00 
C 1028.12 221.75 1023.31 231.23 1023.33 235.33 C 1023.35 239.43 1020.87 248.31 1026.93 251.07 C 1032.99 253.83 1036.06 247.56 1033.00 243.00 C 1029.94 238.44 1038.62 228.75 1033.00 225.00 Z"/>
</g>
<g fill="#EB4769" fill-opacity="1.00" stroke="None">
<path d="
M 897.00 237.00 
C 899.11 233.70 894.13 225.73 890.78 228.78 C 887.43 231.83 894.22 237.28 897.00 237.00 Z"/>
</g>
<g fill="#F5A0B3" fill-opacity="1.00" stroke="None">
<path d="
M 508.00 274.00 
C 508.56 270.85 508.57 268.20 508.00 265.00
C 508.20 267.91 508.20 271.09 508.00 274.00 Z"/>
</g>
<g fill="#000000" fill-opacity="0.48" stroke="None">
<path d="
M 1128.00 348.00 
C 1154.00 348.00 1180.00 348.00 1206.00 348.00
C 1204.84 347.16 1201.30 346.16 1200.00 346.00
C 1176.24 346.00 1150.58 344.33 1128.00 348.00 Z"/>
</g>
<g fill="#000000" fill-opacity="0.54" stroke="None">
<path d="
M 723.00 349.00 
C 747.85 348.34 773.91 350.33 798.00 348.00
C 795.67 348.94 792.63 347.16 791.00 347.00
C 761.82 347.66 731.43 345.67 703.00 348.00
C 709.63 347.35 717.08 348.43 723.00 349.00 Z"/>
</g>
<g fill="#000000" fill-opacity="0.56" stroke="None">
<path d="
M 282.00 350.00 
C 318.06 347.95 354.53 351.27 390.00 349.00
C 386.35 349.86 381.94 348.28 379.00 348.00
C 346.77 348.00 313.11 346.99 282.00 350.00 Z"/>
</g>
</svg>