<svg xmlns="http://www.w3.org/2000/svg" xmlns:v="https://svgstorm.com"
viewBox = "0 0 2133 1200"
width="2133"
height="1200">
<g fill="None" fill-opacity="0.0" stroke="#000000" stroke-opacity="0.00" stroke-width="0.3"><path d="
M 0.00 1200.00 
L 2133.00 1200.00
L 2133.00 0.00
L 1103.00 0.00
C 1105.75 2.59 1108.22 6.78 1108.00 11.00
C 1121.66 9.34 1132.57 7.88 1146.22 5.22 C 1159.87 2.56 1173.86 5.44 1188.02 4.98 C 1202.19 4.51 1204.26 18.80 1215.03 22.97 C 1225.79 27.15 1242.21 25.60 1254.00 28.00 C 1265.79 30.40 1279.27 31.17 1290.68 35.32 C 1302.09 39.47 1309.94 48.23 1310.00 61.00
C 1322.45 63.25 1334.44 66.26 1347.07 67.93 C 1359.71 69.60 1372.28 71.43 1384.67 74.33 C 1397.07 77.23 1403.92 81.23 1415.08 87.92 C 1426.24 94.61 1421.99 111.51 1428.25 119.75 C 1434.50 127.99 1449.92 128.13 1458.70 133.31 C 1467.47 138.48 1479.28 141.36 1487.25 148.75 C 1495.22 156.14 1502.84 161.43 1507.77 172.23 C 1512.70 183.03 1516.30 197.67 1513.00 210.00
C 1522.73 218.01 1532.87 222.61 1542.25 230.75 C 1551.62 238.90 1559.24 246.07 1565.75 257.25 C 1572.27 268.43 1573.76 286.72 1571.00 300.00 C 1568.24 313.29 1579.64 323.01 1586.30 333.70 C 1592.97 344.39 1599.13 353.45 1604.77 365.23 C 1610.41 377.01 1614.64 390.36 1616.00 404.00 C 1617.36 417.64 1603.30 430.51 1612.25 440.75 C 1621.21 450.98 1623.94 461.54 1629.33 473.67 C 1634.71 485.81 1630.79 500.25 1619.75 508.75 C 1608.71 517.25 1593.93 519.48 1580.00 520.00
C 1582.54 532.42 1578.47 546.03 1571.23 556.23 C 1563.99 566.42 1554.32 571.40 1542.33 575.33 C 1530.34 579.26 1512.19 580.56 1499.00 580.00 C 1485.81 579.44 1468.61 574.24 1457.31 582.31 C 1446.00 590.37 1441.07 596.09 1428.98 601.97 C 1416.88 607.86 1403.33 609.29 1389.93 607.07 C 1376.52 604.85 1365.24 598.80 1351.99 597.01 C 1338.75 595.22 1321.70 604.64 1308.78 598.22 C 1295.86 591.80 1291.60 605.54 1279.92 610.92 C 1268.25 616.31 1252.71 615.27 1241.31 609.69 C 1229.90 604.12 1221.56 593.60 1209.75 598.75 C 1197.95 603.91 1188.04 608.80 1175.78 612.78 C 1163.52 616.76 1153.76 604.66 1146.00 597.00
C 1120.33 674.01 1121.18 769.53 1131.33 850.67 C 1141.48 931.81 1157.37 1005.71 1182.00 1082.00
C 1197.73 1083.26 1215.58 1084.26 1231.00 1086.00 C 1246.42 1087.74 1264.39 1089.57 1279.00 1092.00 C 1293.61 1094.43 1307.81 1098.01 1322.01 1100.99 C 1336.20 1103.97 1348.04 1110.14 1360.68 1115.32 C 1373.32 1120.50 1386.32 1126.71 1398.23 1131.77 C 1410.13 1136.83 1423.19 1144.01 1433.08 1150.92 C 1442.97 1157.83 1463.61 1169.80 1446.00 1176.00
C 1441.79 1179.71 1441.17 1189.74 1436.25 1193.25 C 1431.33 1196.75 1422.82 1201.98 1419.00 1194.00
C 1410.25 1200.11 1405.73 1188.45 1397.99 1189.01 C 1390.25 1189.57 1383.24 1185.74 1376.93 1184.07 C 1370.61 1182.40 1359.12 1185.31 1358.00 1177.00
C 1349.67 1175.66 1335.94 1177.55 1332.00 1169.00
C 1325.40 1171.69 1320.44 1168.34 1314.92 1166.08 C 1309.40 1163.82 1300.67 1168.79 1298.00 1161.00
C 1294.76 1163.09 1289.44 1165.84 1286.00 1162.00
C 1284.66 1166.52 1276.96 1165.84 1277.00 1161.00
C 1271.04 1158.96 1266.22 1163.67 1261.00 1160.00
C 1254.74 1168.78 1243.89 1163.88 1238.00 1158.00
C 1234.10 1161.23 1227.48 1162.20 1226.00 1156.00
C 1221.87 1158.95 1216.00 1157.58 1212.00 1155.00
C 1208.37 1161.34 1202.02 1157.94 1197.75 1155.25 C 1193.48 1152.55 1183.39 1156.28 1187.00 1147.00
C 1182.76 1153.15 1177.89 1147.65 1173.25 1150.26 C 1168.62 1152.87 1163.15 1149.39 1161.00 1145.00
C 1157.15 1149.11 1152.12 1144.31 1148.31 1147.31 C 1144.49 1150.30 1138.71 1153.44 1136.00 1147.00
C 1128.29 1155.04 1119.73 1145.39 1112.32 1147.66 C 1104.91 1149.94 1096.70 1148.73 1089.00 1146.00
C 1083.96 1151.70 1072.59 1155.84 1066.00 1151.00
C 1063.95 1155.88 1053.79 1157.29 1053.00 1151.00
C 1045.43 1153.09 1036.87 1152.91 1031.00 1147.00
C 1024.78 1150.66 1019.97 1146.93 1013.92 1149.06 C 1007.86 1151.20 1001.95 1150.28 996.00 1148.00
C 996.56 1153.61 986.24 1158.02 986.00 1151.00
C 979.82 1151.87 975.39 1154.53 969.32 1155.66 C 963.25 1156.79 958.29 1151.53 952.92 1150.08 C 947.56 1148.63 942.48 1158.72 936.98 1156.02 C 931.47 1153.32 926.35 1164.73 921.00 1156.00
C 918.01 1162.12 913.36 1160.77 908.75 1158.25 C 904.15 1155.72 897.98 1164.95 894.00 1158.00
C 891.98 1165.61 882.16 1166.52 878.00 1161.00
C 872.13 1160.59 868.75 1170.10 862.00 1166.00
C 858.87 1172.70 848.02 1173.83 842.00 1171.00
C 839.97 1174.75 836.34 1176.99 832.00 1176.00
C 831.22 1183.72 822.73 1180.54 819.00 1177.00
C 815.07 1183.37 808.81 1184.30 802.33 1183.67 C 795.84 1183.04 788.76 1193.93 785.00 1185.00
C 780.20 1192.02 775.33 1186.74 768.97 1189.97 C 762.61 1193.20 756.32 1189.76 751.00 1187.00
C 751.69 1194.10 740.41 1192.23 741.00 1186.00
C 728.44 1189.90 725.86 1177.24 726.00 1168.00
C 724.38 1168.67 722.91 1169.41 721.00 1169.00
C 723.12 1155.06 736.25 1148.50 748.23 1142.23 C 760.21 1135.96 773.94 1131.17 787.07 1126.07 C 800.21 1120.98 813.88 1117.16 828.02 1113.02 C 842.17 1108.88 854.86 1104.19 870.00 1102.00 C 885.14 1099.81 898.69 1092.48 915.07 1092.07 C 931.46 1091.67 933.45 1075.47 938.93 1061.93 C 944.40 1048.38 950.09 1036.72 954.98 1022.98 C 959.86 1009.23 965.27 996.21 968.78 981.78 C 972.28 967.34 975.87 953.08 979.32 938.32 C 982.77 923.56 986.08 908.21 988.98 892.98 C 991.87 877.74 995.57 862.64 997.99 846.99 C 1000.42 831.35 1004.05 817.12 1005.93 800.93 C 1007.81 784.73 1008.21 766.58 1010.00 750.00 C 1011.79 733.42 1010.55 712.83 1011.00 696.00 C 1011.45 679.17 1008.61 662.38 1006.07 646.93 C 1003.54 631.47 999.80 617.14 995.02 602.98 C 990.25 588.82 985.40 577.55 978.00 565.00
C 976.55 568.97 964.17 568.14 959.00 568.00 C 953.83 567.86 947.78 567.59 941.75 563.25 C 935.73 558.91 931.62 563.05 921.93 560.07 C 912.23 557.10 902.40 546.47 901.00 536.00
C 895.06 540.21 890.45 546.61 882.00 546.00 C 873.55 545.38 871.60 536.01 867.00 531.00
C 852.07 563.09 811.93 571.43 779.00 571.00
C 766.31 590.39 743.39 594.26 720.00 595.00 C 696.61 595.74 678.99 577.51 656.00 577.00 C 633.01 576.49 604.62 571.45 582.00 572.00 C 559.38 572.55 536.34 566.02 518.75 551.25 C 501.17 536.47 503.84 504.36 508.00 484.00
C 495.45 482.11 477.93 480.60 472.23 466.77 C 466.53 452.94 470.57 434.12 476.98 421.98 C 483.38 409.83 493.10 401.42 505.00 396.00
C 482.46 367.24 500.64 317.65 538.00 313.00
C 533.31 294.68 535.51 276.01 543.90 259.90 C 552.29 243.79 572.51 238.45 588.00 248.00
C 586.69 228.42 593.82 205.07 601.77 188.77 C 609.72 172.48 622.02 151.02 641.00 163.00
C 649.32 157.51 654.35 147.74 662.75 141.75 C 671.16 135.76 678.76 128.75 688.08 124.08 C 697.40 119.41 707.56 112.47 718.68 111.68 C 729.79 110.88 743.01 106.94 753.00 113.00
C 761.46 96.25 791.83 71.98 807.00 93.00
C 818.66 85.12 836.94 68.39 850.00 82.00
C 854.70 73.45 863.97 65.95 871.08 59.08 C 878.19 52.21 892.38 41.44 900.00 53.00
C 909.79 47.65 922.60 37.37 934.68 36.68 C 946.75 35.98 964.16 37.82 971.97 26.97 C 979.79 16.13 984.54 5.88 997.00 0.00
L 0.00 0.00
L 0.00 1200.00 Z"/>
</g>
<g fill="None" fill-opacity="0.0" stroke="#8DB431" stroke-opacity="1.00" stroke-width="0.3"><path d="
M 978.00 565.00 
C 972.82 555.39 968.56 543.86 962.23 534.77 C 955.90 525.68 950.39 515.47 942.23 507.77 C 934.07 500.07 927.02 489.98 915.97 487.03 C 904.92 484.07 889.19 489.33 876.00 490.00 C 862.81 490.67 848.11 493.01 834.00 494.00 C 819.88 494.98 803.96 495.81 789.00 496.00 C 774.04 496.19 759.48 494.73 744.99 493.01 C 730.51 491.29 721.41 487.46 706.98 484.02 C 692.54 480.59 694.86 465.79 707.25 460.25 C 719.63 454.70 722.18 445.43 735.23 441.23 C 748.28 437.03 761.34 445.92 775.00 446.00 C 788.66 446.08 805.33 447.23 819.01 445.01 C 832.68 442.78 845.82 442.37 858.00 437.00
C 821.43 413.03 800.92 371.61 796.00 330.00
C 794.84 322.88 794.74 314.06 796.00 307.00
C 797.18 289.63 809.30 293.08 821.02 295.98 C 832.75 298.87 848.64 295.18 849.93 309.07 C 851.22 322.96 852.42 333.16 856.31 344.69 C 860.19 356.23 863.35 364.38 868.77 374.23 C 874.19 384.08 878.34 391.43 885.25 399.75 C 892.17 408.06 899.47 413.68 908.03 418.97 C 916.59 424.26 924.51 430.58 933.25 435.75 C 941.98 440.93 950.56 445.81 958.75 452.25 C 966.94 458.69 973.66 463.59 981.25 471.75 C 988.83 479.92 992.98 485.38 1002.23 492.77 C 1011.48 500.16 1023.73 500.24 1026.26 487.26 C 1028.78 474.28 1033.54 467.17 1035.98 454.98 C 1038.41 442.78 1041.92 433.11 1044.00 421.00 C 1046.08 408.88 1049.26 398.25 1050.93 385.93 C 1052.60 373.60 1054.56 361.63 1055.99 348.99 C 1057.42 336.35 1059.43 324.19 1059.98 310.98 C 1060.53 297.76 1061.00 282.52 1061.00 269.00
C 1061.00 264.33 1061.00 259.67 1061.00 255.00
C 1061.00 241.60 1060.77 231.46 1060.00 218.00 C 1059.23 204.54 1058.90 195.45 1058.00 181.00 C 1057.10 166.55 1076.25 172.57 1086.00 170.00 C 1095.75 167.43 1111.19 165.69 1112.00 179.00 C 1112.80 192.32 1109.77 202.14 1108.22 214.22 C 1106.67 226.30 1105.24 236.09 1104.00 248.00 C 1102.76 259.91 1100.60 270.85 1100.00 283.00 C 1099.40 295.15 1098.85 308.65 1099.00 321.00 C 1099.15 333.35 1099.52 346.47 1100.78 358.22 C 1102.04 369.97 1102.75 382.17 1104.78 393.22 C 1106.80 404.27 1107.77 414.97 1110.78 425.22 C 1113.79 435.48 1115.17 446.13 1119.32 455.68 C 1123.48 465.22 1124.68 474.99 1130.31 483.69 C 1135.93 492.40 1148.43 480.58 1154.75 475.75 C 1161.06 470.91 1168.14 462.29 1174.75 456.75 C 1181.36 451.21 1188.29 444.95 1195.25 439.25 C 1202.21 433.54 1210.17 427.91 1217.70 422.70 C 1225.22 417.48 1233.09 411.67 1241.23 407.23 C 1249.37 402.79 1257.57 397.23 1265.70 392.70 C 1273.82 388.16 1280.87 382.24 1288.25 376.25 C 1295.62 370.25 1300.07 363.82 1306.25 356.25 C 1312.43 348.67 1316.04 340.68 1320.77 331.77 C 1325.50 322.86 1325.26 311.82 1330.31 302.31 C 1335.35 292.79 1349.98 297.17 1361.00 298.00 C 1372.02 298.83 1366.12 316.84 1364.02 325.02 C 1361.92 333.21 1359.15 346.96 1355.22 355.22 C 1351.29 363.49 1347.45 373.26 1341.70 380.70 C 1335.94 388.13 1330.14 394.73 1323.75 401.75 C 1317.37 408.77 1310.25 414.30 1303.30 420.30 C 1296.36 426.31 1289.27 432.48 1283.00 439.00
C 1295.43 440.78 1310.77 442.46 1323.00 444.00 C 1335.23 445.54 1352.37 449.65 1364.01 446.01 C 1375.65 442.37 1393.96 435.53 1395.00 450.00 C 1396.04 464.47 1391.55 473.78 1381.25 482.25 C 1370.95 490.72 1358.86 490.29 1345.99 491.99 C 1333.12 493.70 1315.26 493.54 1302.00 493.00 C 1288.74 492.46 1271.81 491.57 1259.00 491.00 C 1246.19 490.43 1231.23 483.84 1220.75 490.75 C 1210.27 497.67 1202.72 501.04 1194.25 509.25 C 1185.79 517.47 1181.18 525.41 1174.70 534.70 C 1168.22 543.98 1163.75 553.46 1158.70 563.70 C 1153.64 573.93 1149.27 585.98 1146.00 597.00
C 1153.76 604.66 1163.52 616.76 1175.78 612.78 C 1188.04 608.80 1197.95 603.91 1209.75 598.75 C 1221.56 593.60 1229.90 604.12 1241.31 609.69 C 1252.71 615.27 1268.25 616.31 1279.92 610.92 C 1291.60 605.54 1295.86 591.80 1308.78 598.22 C 1321.70 604.64 1338.75 595.22 1351.99 597.01 C 1365.24 598.80 1376.52 604.85 1389.93 607.07 C 1403.33 609.29 1416.88 607.86 1428.98 601.97 C 1441.07 596.09 1446.00 590.37 1457.31 582.31 C 1468.61 574.24 1485.81 579.44 1499.00 580.00 C 1512.19 580.56 1530.34 579.26 1542.33 575.33 C 1554.32 571.40 1563.99 566.42 1571.23 556.23 C 1578.47 546.03 1582.54 532.42 1580.00 520.00
C 1593.93 519.48 1608.71 517.25 1619.75 508.75 C 1630.79 500.25 1634.71 485.81 1629.33 473.67 C 1623.94 461.54 1621.21 450.98 1612.25 440.75 C 1603.30 430.51 1617.36 417.64 1616.00 404.00 C 1614.64 390.36 1610.41 377.01 1604.77 365.23 C 1599.13 353.45 1592.97 344.39 1586.30 333.70 C 1579.64 323.01 1568.24 313.29 1571.00 300.00 C 1573.76 286.72 1572.27 268.43 1565.75 257.25 C 1559.24 246.07 1551.62 238.90 1542.25 230.75 C 1532.87 222.61 1522.73 218.01 1513.00 210.00
C 1516.30 197.67 1512.70 183.03 1507.77 172.23 C 1502.84 161.43 1495.22 156.14 1487.25 148.75 C 1479.28 141.36 1467.47 138.48 1458.70 133.31 C 1449.92 128.13 1434.50 127.99 1428.25 119.75 C 1421.99 111.51 1426.24 94.61 1415.08 87.92 C 1403.92 81.23 1397.07 77.23 1384.67 74.33 C 1372.28 71.43 1359.71 69.60 1347.07 67.93 C 1334.44 66.26 1322.45 63.25 1310.00 61.00
C 1309.94 48.23 1302.09 39.47 1290.68 35.32 C 1279.27 31.17 1265.79 30.40 1254.00 28.00 C 1242.21 25.60 1225.79 27.15 1215.03 22.97 C 1204.26 18.80 1202.19 4.51 1188.02 4.98 C 1173.86 5.44 1159.87 2.56 1146.22 5.22 C 1132.57 7.88 1121.66 9.34 1108.00 11.00
C 1108.22 6.78 1105.75 2.59 1103.00 0.00
L 1073.00 0.00
C 1056.18 5.78 1038.54 11.03 1022.00 18.00
C 1022.00 11.04 1019.28 4.24 1014.00 0.00
L 997.00 0.00
C 984.54 5.88 979.79 16.13 971.97 26.97 C 964.16 37.82 946.75 35.98 934.68 36.68 C 922.60 37.37 909.79 47.65 900.00 53.00
C 892.38 41.44 878.19 52.21 871.08 59.08 C 863.97 65.95 854.70 73.45 850.00 82.00
C 836.94 68.39 818.66 85.12 807.00 93.00
C 791.83 71.98 761.46 96.25 753.00 113.00
C 743.01 106.94 729.79 110.88 718.68 111.68 C 707.56 112.47 697.40 119.41 688.08 124.08 C 678.76 128.75 671.16 135.76 662.75 141.75 C 654.35 147.74 649.32 157.51 641.00 163.00
C 622.02 151.02 609.72 172.48 601.77 188.77 C 593.82 205.07 586.69 228.42 588.00 248.00
C 572.51 238.45 552.29 243.79 543.90 259.90 C 535.51 276.01 533.31 294.68 538.00 313.00
C 500.64 317.65 482.46 367.24 505.00 396.00
C 493.10 401.42 483.38 409.83 476.98 421.98 C 470.57 434.12 466.53 452.94 472.23 466.77 C 477.93 480.60 495.45 482.11 508.00 484.00
C 503.84 504.36 501.17 536.47 518.75 551.25 C 536.34 566.02 559.38 572.55 582.00 572.00 C 604.62 571.45 633.01 576.49 656.00 577.00 C 678.99 577.51 696.61 595.74 720.00 595.00 C 743.39 594.26 766.31 590.39 779.00 571.00
C 811.93 571.43 852.07 563.09 867.00 531.00
C 871.60 536.01 873.55 545.38 882.00 546.00 C 890.45 546.61 895.06 540.21 901.00 536.00
C 902.40 546.47 912.23 557.10 921.93 560.07 C 931.62 563.05 935.73 558.91 941.75 563.25 C 947.78 567.59 953.83 567.86 959.00 568.00 C 964.17 568.14 976.55 568.97 978.00 565.00 Z"/>
</g>
<g fill="None" fill-opacity="0.0" stroke="#000000" stroke-opacity="0.00" stroke-width="0.3"><path d="
M 1073.00 0.00 
L 1014.00 0.00
C 1019.28 4.24 1022.00 11.04 1022.00 18.00
C 1038.54 11.03 1056.18 5.78 1073.00 0.00 Z"/>
</g>
<g fill="None" fill-opacity="0.0" stroke="#000000" stroke-opacity="1.00" stroke-width="0.3"><path d="
M 1061.00 255.00 
C 1061.43 259.40 1061.42 264.66 1061.00 269.00
C 1061.00 282.52 1060.53 297.76 1059.98 310.98 C 1059.43 324.19 1057.42 336.35 1055.99 348.99 C 1054.56 361.63 1052.60 373.60 1050.93 385.93 C 1049.26 398.25 1046.08 408.88 1044.00 421.00 C 1041.92 433.11 1038.41 442.78 1035.98 454.98 C 1033.54 467.17 1028.78 474.28 1026.26 487.26 C 1023.73 500.24 1011.48 500.16 1002.23 492.77 C 992.98 485.38 988.83 479.92 981.25 471.75 C 973.66 463.59 966.94 458.69 958.75 452.25 C 950.56 445.81 941.98 440.93 933.25 435.75 C 924.51 430.58 916.59 424.26 908.03 418.97 C 899.47 413.68 892.17 408.06 885.25 399.75 C 878.34 391.43 874.19 384.08 868.77 374.23 C 863.35 364.38 860.19 356.23 856.31 344.69 C 852.42 333.16 851.22 322.96 849.93 309.07 C 848.64 295.18 832.75 298.87 821.02 295.98 C 809.30 293.08 797.18 289.63 796.00 307.00
C 795.49 314.47 795.59 322.53 796.00 330.00
C 800.92 371.61 821.43 413.03 858.00 437.00
C 845.82 442.37 832.68 442.78 819.01 445.01 C 805.33 447.23 788.66 446.08 775.00 446.00 C 761.34 445.92 748.28 437.03 735.23 441.23 C 722.18 445.43 719.63 454.70 707.25 460.25 C 694.86 465.79 692.54 480.59 706.98 484.02 C 721.41 487.46 730.51 491.29 744.99 493.01 C 759.48 494.73 774.04 496.19 789.00 496.00 C 803.96 495.81 819.88 494.98 834.00 494.00 C 848.11 493.01 862.81 490.67 876.00 490.00 C 889.19 489.33 904.92 484.07 915.97 487.03 C 927.02 489.98 934.07 500.07 942.23 507.77 C 950.39 515.47 955.90 525.68 962.23 534.77 C 968.56 543.86 972.82 555.39 978.00 565.00
C 985.40 577.55 990.25 588.82 995.02 602.98 C 999.80 617.14 1003.54 631.47 1006.07 646.93 C 1008.61 662.38 1011.45 679.17 1011.00 696.00 C 1010.55 712.83 1011.79 733.42 1010.00 750.00 C 1008.21 766.58 1007.81 784.73 1005.93 800.93 C 1004.05 817.12 1000.42 831.35 997.99 846.99 C 995.57 862.64 991.87 877.74 988.98 892.98 C 986.08 908.21 982.77 923.56 979.32 938.32 C 975.87 953.08 972.28 967.34 968.78 981.78 C 965.27 996.21 959.86 1009.23 954.98 1022.98 C 950.09 1036.72 944.40 1048.38 938.93 1061.93 C 933.45 1075.47 931.46 1091.67 915.07 1092.07 C 898.69 1092.48 885.14 1099.81 870.00 1102.00 C 854.86 1104.19 842.17 1108.88 828.02 1113.02 C 813.88 1117.16 800.21 1120.98 787.07 1126.07 C 773.94 1131.17 760.21 1135.96 748.23 1142.23 C 736.25 1148.50 723.12 1155.06 721.00 1169.00
C 722.91 1169.41 724.38 1168.67 726.00 1168.00
C 735.23 1164.18 740.79 1154.99 751.08 1152.08 C 761.36 1149.16 770.48 1142.98 781.03 1140.02 C 791.57 1137.07 801.28 1132.16 812.07 1129.07 C 822.87 1125.99 833.97 1123.22 845.02 1120.02 C 856.08 1116.83 867.48 1114.57 879.00 1112.00 C 890.53 1109.44 901.98 1106.88 914.00 1105.00 C 926.02 1103.13 938.16 1100.95 950.67 1099.67 C 963.18 1098.39 975.99 1096.43 989.00 1096.00 C 1002.01 1095.57 1014.71 1093.32 1028.00 1093.00 C 1041.29 1092.68 1055.44 1091.81 1069.00 1092.00 C 1082.56 1092.19 1096.45 1091.97 1110.00 1092.00 C 1123.55 1092.03 1137.66 1092.68 1151.00 1093.00 C 1164.34 1093.32 1177.58 1094.90 1190.67 1095.33 C 1203.76 1095.76 1216.51 1097.59 1229.07 1098.93 C 1241.63 1100.27 1254.97 1101.11 1267.00 1103.00 C 1279.04 1104.89 1290.52 1107.82 1302.02 1109.98 C 1313.53 1112.14 1324.66 1115.11 1335.22 1118.78 C 1345.79 1122.45 1354.96 1127.21 1365.03 1130.98 C 1375.09 1134.74 1384.47 1140.33 1394.23 1143.77 C 1403.99 1147.21 1412.24 1155.08 1421.23 1158.77 C 1430.22 1162.47 1436.51 1175.01 1446.00 1176.00
C 1463.61 1169.80 1442.97 1157.83 1433.08 1150.92 C 1423.19 1144.01 1410.13 1136.83 1398.23 1131.77 C 1386.32 1126.71 1373.32 1120.50 1360.68 1115.32 C 1348.04 1110.14 1336.20 1103.97 1322.01 1100.99 C 1307.81 1098.01 1293.61 1094.43 1279.00 1092.00 C 1264.39 1089.57 1246.42 1087.74 1231.00 1086.00 C 1215.58 1084.26 1197.73 1083.26 1182.00 1082.00
C 1157.37 1005.71 1141.48 931.81 1131.33 850.67 C 1121.18 769.53 1120.33 674.01 1146.00 597.00
C 1149.27 585.98 1153.64 573.93 1158.70 563.70 C 1163.75 553.46 1168.22 543.98 1174.70 534.70 C 1181.18 525.41 1185.79 517.47 1194.25 509.25 C 1202.72 501.04 1210.27 497.67 1220.75 490.75 C 1231.23 483.84 1246.19 490.43 1259.00 491.00 C 1271.81 491.57 1288.74 492.46 1302.00 493.00 C 1315.26 493.54 1333.12 493.70 1345.99 491.99 C 1358.86 490.29 1370.95 490.72 1381.25 482.25 C 1391.55 473.78 1396.04 464.47 1395.00 450.00 C 1393.96 435.53 1375.65 442.37 1364.01 446.01 C 1352.37 449.65 1335.23 445.54 1323.00 444.00 C 1310.77 442.46 1295.43 440.78 1283.00 439.00
C 1289.27 432.48 1296.36 426.31 1303.30 420.30 C 1310.25 414.30 1317.37 408.77 1323.75 401.75 C 1330.14 394.73 1335.94 388.13 1341.70 380.70 C 1347.45 373.26 1351.29 363.49 1355.22 355.22 C 1359.15 346.96 1361.92 333.21 1364.02 325.02 C 1366.12 316.84 1372.02 298.83 1361.00 298.00 C 1349.98 297.17 1335.35 292.79 1330.31 302.31 C 1325.26 311.82 1325.50 322.86 1320.77 331.77 C 1316.04 340.68 1312.43 348.67 1306.25 356.25 C 1300.07 363.82 1295.62 370.25 1288.25 376.25 C 1280.87 382.24 1273.82 388.16 1265.70 392.70 C 1257.57 397.23 1249.37 402.79 1241.23 407.23 C 1233.09 411.67 1225.22 417.48 1217.70 422.70 C 1210.17 427.91 1202.21 433.54 1195.25 439.25 C 1188.29 444.95 1181.36 451.21 1174.75 456.75 C 1168.14 462.29 1161.06 470.91 1154.75 475.75 C 1148.43 480.58 1135.93 492.40 1130.31 483.69 C 1124.68 474.99 1123.48 465.22 1119.32 455.68 C 1115.17 446.13 1113.79 435.48 1110.78 425.22 C 1107.77 414.97 1106.80 404.27 1104.78 393.22 C 1102.75 382.17 1102.04 369.97 1100.78 358.22 C 1099.52 346.47 1099.15 333.35 1099.00 321.00 C 1098.85 308.65 1099.40 295.15 1100.00 283.00 C 1100.60 270.85 1102.76 259.91 1104.00 248.00 C 1105.24 236.09 1106.67 226.30 1108.22 214.22 C 1109.77 202.14 1112.80 192.32 1112.00 179.00 C 1111.19 165.69 1095.75 167.43 1086.00 170.00 C 1076.25 172.57 1057.10 166.55 1058.00 181.00 C 1058.90 195.45 1059.23 204.54 1060.00 218.00 C 1060.77 231.46 1061.00 241.60 1061.00 255.00
M 807.00 325.00 
C 806.30 320.68 806.17 316.28 807.00 312.00
C 807.19 309.55 808.26 307.58 808.00 305.00
C 817.74 309.52 839.31 304.26 839.00 318.00 C 838.69 331.74 843.25 343.38 846.92 355.08 C 850.60 366.78 855.25 376.09 860.92 386.08 C 866.60 396.07 872.37 402.77 879.75 411.25 C 887.14 419.72 895.31 425.67 904.23 431.77 C 913.15 437.87 922.99 443.06 932.08 448.92 C 941.16 454.79 949.41 460.03 958.08 466.92 C 966.75 473.80 973.29 480.49 980.75 489.25 C 988.21 498.01 995.53 503.78 1006.22 508.78 C 1016.92 513.77 1030.85 511.55 1034.78 498.78 C 1038.70 486.00 1043.11 478.37 1045.78 465.78 C 1048.45 453.19 1052.45 442.57 1054.93 429.93 C 1057.41 417.29 1059.84 404.92 1062.00 392.00 C 1064.15 379.07 1065.48 366.68 1067.33 353.33 C 1069.18 339.98 1069.59 325.84 1071.00 312.00 C 1072.41 298.16 1071.72 283.18 1073.00 269.00 C 1074.27 254.81 1070.68 239.42 1072.00 225.00
C 1071.64 221.27 1071.00 216.41 1071.00 212.00
C 1071.00 201.91 1069.68 191.95 1069.00 182.00
C 1079.93 182.35 1090.44 181.14 1101.00 180.00
C 1098.25 201.00 1096.00 220.93 1093.00 242.00 C 1090.00 263.07 1088.05 284.98 1088.00 307.00 C 1087.95 329.03 1088.27 354.43 1090.33 375.67 C 1092.39 396.91 1095.88 415.19 1100.78 435.22 C 1105.67 455.25 1110.64 468.91 1118.92 488.08 C 1127.20 507.24 1151.57 496.74 1163.08 484.08 C 1174.60 471.42 1188.10 461.90 1200.75 450.75 C 1213.41 439.60 1227.59 430.89 1241.70 421.70 C 1255.80 412.50 1271.98 404.86 1285.70 394.70 C 1299.42 384.54 1309.26 372.21 1319.75 358.75 C 1330.25 345.30 1336.64 325.46 1341.00 309.00
C 1345.67 309.00 1350.33 309.00 1355.00 309.00
C 1353.20 319.61 1350.69 332.15 1347.07 342.07 C 1343.46 352.00 1339.62 361.39 1334.08 370.08 C 1328.53 378.76 1323.08 385.33 1315.75 392.75 C 1308.43 400.18 1303.31 405.83 1294.75 412.75 C 1286.19 419.68 1283.05 424.68 1272.25 431.25 C 1261.45 437.82 1259.62 448.72 1274.67 449.33 C 1289.72 449.94 1297.13 453.02 1310.67 454.33 C 1324.21 455.64 1334.48 458.45 1348.00 458.00 C 1361.52 457.55 1372.00 457.99 1384.00 453.00
C 1380.02 480.33 1349.19 482.24 1325.00 482.00 C 1300.81 481.76 1265.59 481.84 1242.00 477.00 C 1218.40 472.17 1201.85 485.48 1185.25 502.25 C 1168.64 519.02 1159.56 533.36 1149.23 554.23 C 1138.90 575.09 1132.68 596.26 1127.02 620.02 C 1121.36 643.79 1117.95 671.11 1116.00 697.00 C 1114.05 722.89 1113.14 756.17 1114.00 783.00 C 1114.86 809.83 1118.10 837.84 1121.33 863.67 C 1124.56 889.50 1129.46 914.16 1133.93 939.07 C 1138.39 963.99 1143.09 987.95 1149.00 1012.00 C 1154.91 1036.05 1162.00 1057.50 1169.00 1081.00
C 1093.47 1076.98 1015.55 1077.72 942.00 1088.00
C 949.09 1066.55 958.72 1049.21 966.75 1027.75 C 974.79 1006.29 980.79 983.92 985.93 960.93 C 991.07 937.94 997.61 914.88 1001.93 890.93 C 1006.24 866.98 1011.33 842.71 1014.93 817.93 C 1018.52 793.14 1020.61 764.68 1022.00 739.00 C 1023.39 713.32 1022.13 680.16 1019.02 655.98 C 1015.92 631.79 1011.03 609.13 1002.22 587.78 C 993.42 566.42 985.38 549.67 974.08 529.92 C 962.78 510.18 951.95 499.93 934.25 483.75 C 916.54 467.57 888.82 477.33 865.00 479.00 C 841.18 480.67 810.10 485.96 785.00 485.00 C 759.90 484.04 734.47 481.47 712.00 472.00
C 721.81 467.82 727.27 456.77 737.70 453.70 C 748.12 450.63 762.60 457.55 775.00 457.00 C 787.40 456.45 804.74 458.15 817.00 457.00 C 829.26 455.85 844.37 452.79 855.02 451.02 C 865.68 449.26 883.77 442.57 874.75 433.25 C 865.73 423.93 857.06 424.18 849.25 414.75 C 841.43 405.33 835.12 400.57 829.70 390.30 C 824.27 380.04 818.99 371.77 815.25 360.75 C 811.51 349.74 808.21 336.84 807.00 325.00 Z"/>
</g>
<g fill="None" fill-opacity="0.0" stroke="#B6774C" stroke-opacity="1.00" stroke-width="0.3"><path d="
M 1071.00 212.00 
C 1071.36 215.73 1072.00 220.59 1072.00 225.00
C 1070.68 239.42 1074.27 254.81 1073.00 269.00 C 1071.72 283.18 1072.41 298.16 1071.00 312.00 C 1069.59 325.84 1069.18 339.98 1067.33 353.33 C 1065.48 366.68 1064.15 379.07 1062.00 392.00 C 1059.84 404.92 1057.41 417.29 1054.93 429.93 C 1052.45 442.57 1048.45 453.19 1045.78 465.78 C 1043.11 478.37 1038.70 486.00 1034.78 498.78 C 1030.85 511.55 1016.92 513.77 1006.22 508.78 C 995.53 503.78 988.21 498.01 980.75 489.25 C 973.29 480.49 966.75 473.80 958.08 466.92 C 949.41 460.03 941.16 454.79 932.08 448.92 C 922.99 443.06 913.15 437.87 904.23 431.77 C 895.31 425.67 887.14 419.72 879.75 411.25 C 872.37 402.77 866.60 396.07 860.92 386.08 C 855.25 376.09 850.60 366.78 846.92 355.08 C 843.25 343.38 838.69 331.74 839.00 318.00 C 839.31 304.26 817.74 309.52 808.00 305.00
C 808.26 307.58 807.19 309.55 807.00 312.00
C 806.67 316.20 806.77 320.79 807.00 325.00
C 808.21 336.84 811.51 349.74 815.25 360.75 C 818.99 371.77 824.27 380.04 829.70 390.30 C 835.12 400.57 841.43 405.33 849.25 414.75 C 857.06 424.18 865.73 423.93 874.75 433.25 C 883.77 442.57 865.68 449.26 855.02 451.02 C 844.37 452.79 829.26 455.85 817.00 457.00 C 804.74 458.15 787.40 456.45 775.00 457.00 C 762.60 457.55 748.12 450.63 737.70 453.70 C 727.27 456.77 721.81 467.82 712.00 472.00
C 734.47 481.47 759.90 484.04 785.00 485.00 C 810.10 485.96 841.18 480.67 865.00 479.00 C 888.82 477.33 916.54 467.57 934.25 483.75 C 951.95 499.93 962.78 510.18 974.08 529.92 C 985.38 549.67 993.42 566.42 1002.22 587.78 C 1011.03 609.13 1015.92 631.79 1019.02 655.98 C 1022.13 680.16 1023.39 713.32 1022.00 739.00 C 1020.61 764.68 1018.52 793.14 1014.93 817.93 C 1011.33 842.71 1006.24 866.98 1001.93 890.93 C 997.61 914.88 991.07 937.94 985.93 960.93 C 980.79 983.92 974.79 1006.29 966.75 1027.75 C 958.72 1049.21 949.09 1066.55 942.00 1088.00
C 1015.55 1077.72 1093.47 1076.98 1169.00 1081.00
C 1162.00 1057.50 1154.91 1036.05 1149.00 1012.00 C 1143.09 987.95 1138.39 963.99 1133.93 939.07 C 1129.46 914.16 1124.56 889.50 1121.33 863.67 C 1118.10 837.84 1114.86 809.83 1114.00 783.00 C 1113.14 756.17 1114.05 722.89 1116.00 697.00 C 1117.95 671.11 1121.36 643.79 1127.02 620.02 C 1132.68 596.26 1138.90 575.09 1149.23 554.23 C 1159.56 533.36 1168.64 519.02 1185.25 502.25 C 1201.85 485.48 1218.40 472.17 1242.00 477.00 C 1265.59 481.84 1300.81 481.76 1325.00 482.00 C 1349.19 482.24 1380.02 480.33 1384.00 453.00
C 1372.00 457.99 1361.52 457.55 1348.00 458.00 C 1334.48 458.45 1324.21 455.64 1310.67 454.33 C 1297.13 453.02 1289.72 449.94 1274.67 449.33 C 1259.62 448.72 1261.45 437.82 1272.25 431.25 C 1283.05 424.68 1286.19 419.68 1294.75 412.75 C 1303.31 405.83 1308.43 400.18 1315.75 392.75 C 1323.08 385.33 1328.53 378.76 1334.08 370.08 C 1339.62 361.39 1343.46 352.00 1347.07 342.07 C 1350.69 332.15 1353.20 319.61 1355.00 309.00
C 1350.33 309.00 1345.67 309.00 1341.00 309.00
C 1336.64 325.46 1330.25 345.30 1319.75 358.75 C 1309.26 372.21 1299.42 384.54 1285.70 394.70 C 1271.98 404.86 1255.80 412.50 1241.70 421.70 C 1227.59 430.89 1213.41 439.60 1200.75 450.75 C 1188.10 461.90 1174.60 471.42 1163.08 484.08 C 1151.57 496.74 1127.20 507.24 1118.92 488.08 C 1110.64 468.91 1105.67 455.25 1100.78 435.22 C 1095.88 415.19 1092.39 396.91 1090.33 375.67 C 1088.27 354.43 1087.95 329.03 1088.00 307.00 C 1088.05 284.98 1090.00 263.07 1093.00 242.00 C 1096.00 220.93 1098.25 201.00 1101.00 180.00
C 1090.44 181.14 1079.93 182.35 1069.00 182.00
C 1069.68 191.95 1071.00 201.91 1071.00 212.00 Z"/>
</g>
<g fill="None" fill-opacity="0.0" stroke="#5A3C26" stroke-opacity="1.00" stroke-width="0.3"><path d="
M 1072.00 225.00 
C 1072.00 220.59 1071.36 215.73 1071.00 212.00
C 1071.00 216.41 1071.64 221.27 1072.00 225.00 Z"/>
</g>
<g fill="None" fill-opacity="0.0" stroke="#465B1A" stroke-opacity="1.00" stroke-width="0.3"><path d="
M 1061.00 269.00 
C 1061.42 264.66 1061.43 259.40 1061.00 255.00
C 1061.00 259.67 1061.00 264.33 1061.00 269.00 Z"/>
</g>
<g fill="None" fill-opacity="0.0" stroke="#354514" stroke-opacity="1.00" stroke-width="0.3"><path d="
M 796.00 330.00 
C 795.59 322.53 795.49 314.47 796.00 307.00
C 794.74 314.06 794.84 322.88 796.00 330.00 Z"/>
</g>
<g fill="None" fill-opacity="0.0" stroke="#4D3321" stroke-opacity="1.00" stroke-width="0.3"><path d="
M 807.00 325.00 
C 806.77 320.79 806.67 316.20 807.00 312.00
C 806.17 316.28 806.30 320.68 807.00 325.00 Z"/>
</g>
<g fill="None" fill-opacity="0.0" stroke="#8DB533" stroke-opacity="0.98" stroke-width="0.3"><path d="
M 726.00 1168.00 
C 725.86 1177.24 728.44 1189.90 741.00 1186.00
C 740.41 1192.23 751.69 1194.10 751.00 1187.00
C 756.32 1189.76 762.61 1193.20 768.97 1189.97 C 775.33 1186.74 780.20 1192.02 785.00 1185.00
C 788.76 1193.93 795.84 1183.04 802.33 1183.67 C 808.81 1184.30 815.07 1183.37 819.00 1177.00
C 822.73 1180.54 831.22 1183.72 832.00 1176.00
C 836.34 1176.99 839.97 1174.75 842.00 1171.00
C 848.02 1173.83 858.87 1172.70 862.00 1166.00
C 868.75 1170.10 872.13 1160.59 878.00 1161.00
C 882.16 1166.52 891.98 1165.61 894.00 1158.00
C 897.98 1164.95 904.15 1155.72 908.75 1158.25 C 913.36 1160.77 918.01 1162.12 921.00 1156.00
C 926.35 1164.73 931.47 1153.32 936.98 1156.02 C 942.48 1158.72 947.56 1148.63 952.92 1150.08 C 958.29 1151.53 963.25 1156.79 969.32 1155.66 C 975.39 1154.53 979.82 1151.87 986.00 1151.00
C 986.24 1158.02 996.56 1153.61 996.00 1148.00
C 1001.95 1150.28 1007.86 1151.20 1013.92 1149.06 C 1019.97 1146.93 1024.78 1150.66 1031.00 1147.00
C 1036.87 1152.91 1045.43 1153.09 1053.00 1151.00
C 1053.79 1157.29 1063.95 1155.88 1066.00 1151.00
C 1072.59 1155.84 1083.96 1151.70 1089.00 1146.00
C 1096.70 1148.73 1104.91 1149.94 1112.32 1147.66 C 1119.73 1145.39 1128.29 1155.04 1136.00 1147.00
C 1138.71 1153.44 1144.49 1150.30 1148.31 1147.31 C 1152.12 1144.31 1157.15 1149.11 1161.00 1145.00
C 1163.15 1149.39 1168.62 1152.87 1173.25 1150.26 C 1177.89 1147.65 1182.76 1153.15 1187.00 1147.00
C 1183.39 1156.28 1193.48 1152.55 1197.75 1155.25 C 1202.02 1157.94 1208.37 1161.34 1212.00 1155.00
C 1216.00 1157.58 1221.87 1158.95 1226.00 1156.00
C 1227.48 1162.20 1234.10 1161.23 1238.00 1158.00
C 1243.89 1163.88 1254.74 1168.78 1261.00 1160.00
C 1266.22 1163.67 1271.04 1158.96 1277.00 1161.00
C 1276.96 1165.84 1284.66 1166.52 1286.00 1162.00
C 1289.44 1165.84 1294.76 1163.09 1298.00 1161.00
C 1300.67 1168.79 1309.40 1163.82 1314.92 1166.08 C 1320.44 1168.34 1325.40 1171.69 1332.00 1169.00
C 1335.94 1177.55 1349.67 1175.66 1358.00 1177.00
C 1359.12 1185.31 1370.61 1182.40 1376.93 1184.07 C 1383.24 1185.74 1390.25 1189.57 1397.99 1189.01 C 1405.73 1188.45 1410.25 1200.11 1419.00 1194.00
C 1422.82 1201.98 1431.33 1196.75 1436.25 1193.25 C 1441.17 1189.74 1441.79 1179.71 1446.00 1176.00
C 1436.51 1175.01 1430.22 1162.47 1421.23 1158.77 C 1412.24 1155.08 1403.99 1147.21 1394.23 1143.77 C 1384.47 1140.33 1375.09 1134.74 1365.03 1130.98 C 1354.96 1127.21 1345.79 1122.45 1335.22 1118.78 C 1324.66 1115.11 1313.53 1112.14 1302.02 1109.98 C 1290.52 1107.82 1279.04 1104.89 1267.00 1103.00 C 1254.97 1101.11 1241.63 1100.27 1229.07 1098.93 C 1216.51 1097.59 1203.76 1095.76 1190.67 1095.33 C 1177.58 1094.90 1164.34 1093.32 1151.00 1093.00 C 1137.66 1092.68 1123.55 1092.03 1110.00 1092.00 C 1096.45 1091.97 1082.56 1092.19 1069.00 1092.00 C 1055.44 1091.81 1041.29 1092.68 1028.00 1093.00 C 1014.71 1093.32 1002.01 1095.57 989.00 1096.00 C 975.99 1096.43 963.18 1098.39 950.67 1099.67 C 938.16 1100.95 926.02 1103.13 914.00 1105.00 C 901.98 1106.88 890.53 1109.44 879.00 1112.00 C 867.48 1114.57 856.08 1116.83 845.02 1120.02 C 833.97 1123.22 822.87 1125.99 812.07 1129.07 C 801.28 1132.16 791.57 1137.07 781.03 1140.02 C 770.48 1142.98 761.36 1149.16 751.08 1152.08 C 740.79 1154.99 735.23 1164.18 726.00 1168.00 Z"/>
</g>
<g fill="#000000" fill-opacity="0.00" stroke="None">
<path d="
M 0.00 1200.00 
L 2133.00 1200.00
L 2133.00 0.00
L 1103.00 0.00
C 1105.75 2.59 1108.22 6.78 1108.00 11.00
C 1121.66 9.34 1132.57 7.88 1146.22 5.22 C 1159.87 2.56 1173.86 5.44 1188.02 4.98 C 1202.19 4.51 1204.26 18.80 1215.03 22.97 C 1225.79 27.15 1242.21 25.60 1254.00 28.00 C 1265.79 30.40 1279.27 31.17 1290.68 35.32 C 1302.09 39.47 1309.94 48.23 1310.00 61.00
C 1322.45 63.25 1334.44 66.26 1347.07 67.93 C 1359.71 69.60 1372.28 71.43 1384.67 74.33 C 1397.07 77.23 1403.92 81.23 1415.08 87.92 C 1426.24 94.61 1421.99 111.51 1428.25 119.75 C 1434.50 127.99 1449.92 128.13 1458.70 133.31 C 1467.47 138.48 1479.28 141.36 1487.25 148.75 C 1495.22 156.14 1502.84 161.43 1507.77 172.23 C 1512.70 183.03 1516.30 197.67 1513.00 210.00
C 1522.73 218.01 1532.87 222.61 1542.25 230.75 C 1551.62 238.90 1559.24 246.07 1565.75 257.25 C 1572.27 268.43 1573.76 286.72 1571.00 300.00 C 1568.24 313.29 1579.64 323.01 1586.30 333.70 C 1592.97 344.39 1599.13 353.45 1604.77 365.23 C 1610.41 377.01 1614.64 390.36 1616.00 404.00 C 1617.36 417.64 1603.30 430.51 1612.25 440.75 C 1621.21 450.98 1623.94 461.54 1629.33 473.67 C 1634.71 485.81 1630.79 500.25 1619.75 508.75 C 1608.71 517.25 1593.93 519.48 1580.00 520.00
C 1582.54 532.42 1578.47 546.03 1571.23 556.23 C 1563.99 566.42 1554.32 571.40 1542.33 575.33 C 1530.34 579.26 1512.19 580.56 1499.00 580.00 C 1485.81 579.44 1468.61 574.24 1457.31 582.31 C 1446.00 590.37 1441.07 596.09 1428.98 601.97 C 1416.88 607.86 1403.33 609.29 1389.93 607.07 C 1376.52 604.85 1365.24 598.80 1351.99 597.01 C 1338.75 595.22 1321.70 604.64 1308.78 598.22 C 1295.86 591.80 1291.60 605.54 1279.92 610.92 C 1268.25 616.31 1252.71 615.27 1241.31 609.69 C 1229.90 604.12 1221.56 593.60 1209.75 598.75 C 1197.95 603.91 1188.04 608.80 1175.78 612.78 C 1163.52 616.76 1153.76 604.66 1146.00 597.00
C 1120.33 674.01 1121.18 769.53 1131.33 850.67 C 1141.48 931.81 1157.37 1005.71 1182.00 1082.00
C 1197.73 1083.26 1215.58 1084.26 1231.00 1086.00 C 1246.42 1087.74 1264.39 1089.57 1279.00 1092.00 C 1293.61 1094.43 1307.81 1098.01 1322.01 1100.99 C 1336.20 1103.97 1348.04 1110.14 1360.68 1115.32 C 1373.32 1120.50 1386.32 1126.71 1398.23 1131.77 C 1410.13 1136.83 1423.19 1144.01 1433.08 1150.92 C 1442.97 1157.83 1463.61 1169.80 1446.00 1176.00
C 1441.79 1179.71 1441.17 1189.74 1436.25 1193.25 C 1431.33 1196.75 1422.82 1201.98 1419.00 1194.00
C 1410.25 1200.11 1405.73 1188.45 1397.99 1189.01 C 1390.25 1189.57 1383.24 1185.74 1376.93 1184.07 C 1370.61 1182.40 1359.12 1185.31 1358.00 1177.00
C 1349.67 1175.66 1335.94 1177.55 1332.00 1169.00
C 1325.40 1171.69 1320.44 1168.34 1314.92 1166.08 C 1309.40 1163.82 1300.67 1168.79 1298.00 1161.00
C 1294.76 1163.09 1289.44 1165.84 1286.00 1162.00
C 1284.66 1166.52 1276.96 1165.84 1277.00 1161.00
C 1271.04 1158.96 1266.22 1163.67 1261.00 1160.00
C 1254.74 1168.78 1243.89 1163.88 1238.00 1158.00
C 1234.10 1161.23 1227.48 1162.20 1226.00 1156.00
C 1221.87 1158.95 1216.00 1157.58 1212.00 1155.00
C 1208.37 1161.34 1202.02 1157.94 1197.75 1155.25 C 1193.48 1152.55 1183.39 1156.28 1187.00 1147.00
C 1182.76 1153.15 1177.89 1147.65 1173.25 1150.26 C 1168.62 1152.87 1163.15 1149.39 1161.00 1145.00
C 1157.15 1149.11 1152.12 1144.31 1148.31 1147.31 C 1144.49 1150.30 1138.71 1153.44 1136.00 1147.00
C 1128.29 1155.04 1119.73 1145.39 1112.32 1147.66 C 1104.91 1149.94 1096.70 1148.73 1089.00 1146.00
C 1083.96 1151.70 1072.59 1155.84 1066.00 1151.00
C 1063.95 1155.88 1053.79 1157.29 1053.00 1151.00
C 1045.43 1153.09 1036.87 1152.91 1031.00 1147.00
C 1024.78 1150.66 1019.97 1146.93 1013.92 1149.06 C 1007.86 1151.20 1001.95 1150.28 996.00 1148.00
C 996.56 1153.61 986.24 1158.02 986.00 1151.00
C 979.82 1151.87 975.39 1154.53 969.32 1155.66 C 963.25 1156.79 958.29 1151.53 952.92 1150.08 C 947.56 1148.63 942.48 1158.72 936.98 1156.02 C 931.47 1153.32 926.35 1164.73 921.00 1156.00
C 918.01 1162.12 913.36 1160.77 908.75 1158.25 C 904.15 1155.72 897.98 1164.95 894.00 1158.00
C 891.98 1165.61 882.16 1166.52 878.00 1161.00
C 872.13 1160.59 868.75 1170.10 862.00 1166.00
C 858.87 1172.70 848.02 1173.83 842.00 1171.00
C 839.97 1174.75 836.34 1176.99 832.00 1176.00
C 831.22 1183.72 822.73 1180.54 819.00 1177.00
C 815.07 1183.37 808.81 1184.30 802.33 1183.67 C 795.84 1183.04 788.76 1193.93 785.00 1185.00
C 780.20 1192.02 775.33 1186.74 768.97 1189.97 C 762.61 1193.20 756.32 1189.76 751.00 1187.00
C 751.69 1194.10 740.41 1192.23 741.00 1186.00
C 728.44 1189.90 725.86 1177.24 726.00 1168.00
C 724.38 1168.67 722.91 1169.41 721.00 1169.00
C 723.12 1155.06 736.25 1148.50 748.23 1142.23 C 760.21 1135.96 773.94 1131.17 787.07 1126.07 C 800.21 1120.98 813.88 1117.16 828.02 1113.02 C 842.17 1108.88 854.86 1104.19 870.00 1102.00 C 885.14 1099.81 898.69 1092.48 915.07 1092.07 C 931.46 1091.67 933.45 1075.47 938.93 1061.93 C 944.40 1048.38 950.09 1036.72 954.98 1022.98 C 959.86 1009.23 965.27 996.21 968.78 981.78 C 972.28 967.34 975.87 953.08 979.32 938.32 C 982.77 923.56 986.08 908.21 988.98 892.98 C 991.87 877.74 995.57 862.64 997.99 846.99 C 1000.42 831.35 1004.05 817.12 1005.93 800.93 C 1007.81 784.73 1008.21 766.58 1010.00 750.00 C 1011.79 733.42 1010.55 712.83 1011.00 696.00 C 1011.45 679.17 1008.61 662.38 1006.07 646.93 C 1003.54 631.47 999.80 617.14 995.02 602.98 C 990.25 588.82 985.40 577.55 978.00 565.00
C 976.55 568.97 964.17 568.14 959.00 568.00 C 953.83 567.86 947.78 567.59 941.75 563.25 C 935.73 558.91 931.62 563.05 921.93 560.07 C 912.23 557.10 902.40 546.47 901.00 536.00
C 895.06 540.21 890.45 546.61 882.00 546.00 C 873.55 545.38 871.60 536.01 867.00 531.00
C 852.07 563.09 811.93 571.43 779.00 571.00
C 766.31 590.39 743.39 594.26 720.00 595.00 C 696.61 595.74 678.99 577.51 656.00 577.00 C 633.01 576.49 604.62 571.45 582.00 572.00 C 559.38 572.55 536.34 566.02 518.75 551.25 C 501.17 536.47 503.84 504.36 508.00 484.00
C 495.45 482.11 477.93 480.60 472.23 466.77 C 466.53 452.94 470.57 434.12 476.98 421.98 C 483.38 409.83 493.10 401.42 505.00 396.00
C 482.46 367.24 500.64 317.65 538.00 313.00
C 533.31 294.68 535.51 276.01 543.90 259.90 C 552.29 243.79 572.51 238.45 588.00 248.00
C 586.69 228.42 593.82 205.07 601.77 188.77 C 609.72 172.48 622.02 151.02 641.00 163.00
C 649.32 157.51 654.35 147.74 662.75 141.75 C 671.16 135.76 678.76 128.75 688.08 124.08 C 697.40 119.41 707.56 112.47 718.68 111.68 C 729.79 110.88 743.01 106.94 753.00 113.00
C 761.46 96.25 791.83 71.98 807.00 93.00
C 818.66 85.12 836.94 68.39 850.00 82.00
C 854.70 73.45 863.97 65.95 871.08 59.08 C 878.19 52.21 892.38 41.44 900.00 53.00
C 909.79 47.65 922.60 37.37 934.68 36.68 C 946.75 35.98 964.16 37.82 971.97 26.97 C 979.79 16.13 984.54 5.88 997.00 0.00
L 0.00 0.00
L 0.00 1200.00 Z"/>
</g>
<g fill="#8DB431" fill-opacity="1.00" stroke="None">
<path d="
M 978.00 565.00 
C 972.82 555.39 968.56 543.86 962.23 534.77 C 955.90 525.68 950.39 515.47 942.23 507.77 C 934.07 500.07 927.02 489.98 915.97 487.03 C 904.92 484.07 889.19 489.33 876.00 490.00 C 862.81 490.67 848.11 493.01 834.00 494.00 C 819.88 494.98 803.96 495.81 789.00 496.00 C 774.04 496.19 759.48 494.73 744.99 493.01 C 730.51 491.29 721.41 487.46 706.98 484.02 C 692.54 480.59 694.86 465.79 707.25 460.25 C 719.63 454.70 722.18 445.43 735.23 441.23 C 748.28 437.03 761.34 445.92 775.00 446.00 C 788.66 446.08 805.33 447.23 819.01 445.01 C 832.68 442.78 845.82 442.37 858.00 437.00
C 821.43 413.03 800.92 371.61 796.00 330.00
C 794.84 322.88 794.74 314.06 796.00 307.00
C 797.18 289.63 809.30 293.08 821.02 295.98 C 832.75 298.87 848.64 295.18 849.93 309.07 C 851.22 322.96 852.42 333.16 856.31 344.69 C 860.19 356.23 863.35 364.38 868.77 374.23 C 874.19 384.08 878.34 391.43 885.25 399.75 C 892.17 408.06 899.47 413.68 908.03 418.97 C 916.59 424.26 924.51 430.58 933.25 435.75 C 941.98 440.93 950.56 445.81 958.75 452.25 C 966.94 458.69 973.66 463.59 981.25 471.75 C 988.83 479.92 992.98 485.38 1002.23 492.77 C 1011.48 500.16 1023.73 500.24 1026.26 487.26 C 1028.78 474.28 1033.54 467.17 1035.98 454.98 C 1038.41 442.78 1041.92 433.11 1044.00 421.00 C 1046.08 408.88 1049.26 398.25 1050.93 385.93 C 1052.60 373.60 1054.56 361.63 1055.99 348.99 C 1057.42 336.35 1059.43 324.19 1059.98 310.98 C 1060.53 297.76 1061.00 282.52 1061.00 269.00
C 1061.00 264.33 1061.00 259.67 1061.00 255.00
C 1061.00 241.60 1060.77 231.46 1060.00 218.00 C 1059.23 204.54 1058.90 195.45 1058.00 181.00 C 1057.10 166.55 1076.25 172.57 1086.00 170.00 C 1095.75 167.43 1111.19 165.69 1112.00 179.00 C 1112.80 192.32 1109.77 202.14 1108.22 214.22 C 1106.67 226.30 1105.24 236.09 1104.00 248.00 C 1102.76 259.91 1100.60 270.85 1100.00 283.00 C 1099.40 295.15 1098.85 308.65 1099.00 321.00 C 1099.15 333.35 1099.52 346.47 1100.78 358.22 C 1102.04 369.97 1102.75 382.17 1104.78 393.22 C 1106.80 404.27 1107.77 414.97 1110.78 425.22 C 1113.79 435.48 1115.17 446.13 1119.32 455.68 C 1123.48 465.22 1124.68 474.99 1130.31 483.69 C 1135.93 492.40 1148.43 480.58 1154.75 475.75 C 1161.06 470.91 1168.14 462.29 1174.75 456.75 C 1181.36 451.21 1188.29 444.95 1195.25 439.25 C 1202.21 433.54 1210.17 427.91 1217.70 422.70 C 1225.22 417.48 1233.09 411.67 1241.23 407.23 C 1249.37 402.79 1257.57 397.23 1265.70 392.70 C 1273.82 388.16 1280.87 382.24 1288.25 376.25 C 1295.62 370.25 1300.07 363.82 1306.25 356.25 C 1312.43 348.67 1316.04 340.68 1320.77 331.77 C 1325.50 322.86 1325.26 311.82 1330.31 302.31 C 1335.35 292.79 1349.98 297.17 1361.00 298.00 C 1372.02 298.83 1366.12 316.84 1364.02 325.02 C 1361.92 333.21 1359.15 346.96 1355.22 355.22 C 1351.29 363.49 1347.45 373.26 1341.70 380.70 C 1335.94 388.13 1330.14 394.73 1323.75 401.75 C 1317.37 408.77 1310.25 414.30 1303.30 420.30 C 1296.36 426.31 1289.27 432.48 1283.00 439.00
C 1295.43 440.78 1310.77 442.46 1323.00 444.00 C 1335.23 445.54 1352.37 449.65 1364.01 446.01 C 1375.65 442.37 1393.96 435.53 1395.00 450.00 C 1396.04 464.47 1391.55 473.78 1381.25 482.25 C 1370.95 490.72 1358.86 490.29 1345.99 491.99 C 1333.12 493.70 1315.26 493.54 1302.00 493.00 C 1288.74 492.46 1271.81 491.57 1259.00 491.00 C 1246.19 490.43 1231.23 483.84 1220.75 490.75 C 1210.27 497.67 1202.72 501.04 1194.25 509.25 C 1185.79 517.47 1181.18 525.41 1174.70 534.70 C 1168.22 543.98 1163.75 553.46 1158.70 563.70 C 1153.64 573.93 1149.27 585.98 1146.00 597.00
C 1153.76 604.66 1163.52 616.76 1175.78 612.78 C 1188.04 608.80 1197.95 603.91 1209.75 598.75 C 1221.56 593.60 1229.90 604.12 1241.31 609.69 C 1252.71 615.27 1268.25 616.31 1279.92 610.92 C 1291.60 605.54 1295.86 591.80 1308.78 598.22 C 1321.70 604.64 1338.75 595.22 1351.99 597.01 C 1365.24 598.80 1376.52 604.85 1389.93 607.07 C 1403.33 609.29 1416.88 607.86 1428.98 601.97 C 1441.07 596.09 1446.00 590.37 1457.31 582.31 C 1468.61 574.24 1485.81 579.44 1499.00 580.00 C 1512.19 580.56 1530.34 579.26 1542.33 575.33 C 1554.32 571.40 1563.99 566.42 1571.23 556.23 C 1578.47 546.03 1582.54 532.42 1580.00 520.00
C 1593.93 519.48 1608.71 517.25 1619.75 508.75 C 1630.79 500.25 1634.71 485.81 1629.33 473.67 C 1623.94 461.54 1621.21 450.98 1612.25 440.75 C 1603.30 430.51 1617.36 417.64 1616.00 404.00 C 1614.64 390.36 1610.41 377.01 1604.77 365.23 C 1599.13 353.45 1592.97 344.39 1586.30 333.70 C 1579.64 323.01 1568.24 313.29 1571.00 300.00 C 1573.76 286.72 1572.27 268.43 1565.75 257.25 C 1559.24 246.07 1551.62 238.90 1542.25 230.75 C 1532.87 222.61 1522.73 218.01 1513.00 210.00
C 1516.30 197.67 1512.70 183.03 1507.77 172.23 C 1502.84 161.43 1495.22 156.14 1487.25 148.75 C 1479.28 141.36 1467.47 138.48 1458.70 133.31 C 1449.92 128.13 1434.50 127.99 1428.25 119.75 C 1421.99 111.51 1426.24 94.61 1415.08 87.92 C 1403.92 81.23 1397.07 77.23 1384.67 74.33 C 1372.28 71.43 1359.71 69.60 1347.07 67.93 C 1334.44 66.26 1322.45 63.25 1310.00 61.00
C 1309.94 48.23 1302.09 39.47 1290.68 35.32 C 1279.27 31.17 1265.79 30.40 1254.00 28.00 C 1242.21 25.60 1225.79 27.15 1215.03 22.97 C 1204.26 18.80 1202.19 4.51 1188.02 4.98 C 1173.86 5.44 1159.87 2.56 1146.22 5.22 C 1132.57 7.88 1121.66 9.34 1108.00 11.00
C 1108.22 6.78 1105.75 2.59 1103.00 0.00
L 1073.00 0.00
C 1056.18 5.78 1038.54 11.03 1022.00 18.00
C 1022.00 11.04 1019.28 4.24 1014.00 0.00
L 997.00 0.00
C 984.54 5.88 979.79 16.13 971.97 26.97 C 964.16 37.82 946.75 35.98 934.68 36.68 C 922.60 37.37 909.79 47.65 900.00 53.00
C 892.38 41.44 878.19 52.21 871.08 59.08 C 863.97 65.95 854.70 73.45 850.00 82.00
C 836.94 68.39 818.66 85.12 807.00 93.00
C 791.83 71.98 761.46 96.25 753.00 113.00
C 743.01 106.94 729.79 110.88 718.68 111.68 C 707.56 112.47 697.40 119.41 688.08 124.08 C 678.76 128.75 671.16 135.76 662.75 141.75 C 654.35 147.74 649.32 157.51 641.00 163.00
C 622.02 151.02 609.72 172.48 601.77 188.77 C 593.82 205.07 586.69 228.42 588.00 248.00
C 572.51 238.45 552.29 243.79 543.90 259.90 C 535.51 276.01 533.31 294.68 538.00 313.00
C 500.64 317.65 482.46 367.24 505.00 396.00
C 493.10 401.42 483.38 409.83 476.98 421.98 C 470.57 434.12 466.53 452.94 472.23 466.77 C 477.93 480.60 495.45 482.11 508.00 484.00
C 503.84 504.36 501.17 536.47 518.75 551.25 C 536.34 566.02 559.38 572.55 582.00 572.00 C 604.62 571.45 633.01 576.49 656.00 577.00 C 678.99 577.51 696.61 595.74 720.00 595.00 C 743.39 594.26 766.31 590.39 779.00 571.00
C 811.93 571.43 852.07 563.09 867.00 531.00
C 871.60 536.01 873.55 545.38 882.00 546.00 C 890.45 546.61 895.06 540.21 901.00 536.00
C 902.40 546.47 912.23 557.10 921.93 560.07 C 931.62 563.05 935.73 558.91 941.75 563.25 C 947.78 567.59 953.83 567.86 959.00 568.00 C 964.17 568.14 976.55 568.97 978.00 565.00 Z"/>
</g>
<g fill="#000000" fill-opacity="0.00" stroke="None">
<path d="
M 1073.00 0.00 
L 1014.00 0.00
C 1019.28 4.24 1022.00 11.04 1022.00 18.00
C 1038.54 11.03 1056.18 5.78 1073.00 0.00 Z"/>
</g>
<g fill="#000000" fill-opacity="1.00" stroke="None">
<path d="
M 1061.00 255.00 
C 1061.43 259.40 1061.42 264.66 1061.00 269.00
C 1061.00 282.52 1060.53 297.76 1059.98 310.98 C 1059.43 324.19 1057.42 336.35 1055.99 348.99 C 1054.56 361.63 1052.60 373.60 1050.93 385.93 C 1049.26 398.25 1046.08 408.88 1044.00 421.00 C 1041.92 433.11 1038.41 442.78 1035.98 454.98 C 1033.54 467.17 1028.78 474.28 1026.26 487.26 C 1023.73 500.24 1011.48 500.16 1002.23 492.77 C 992.98 485.38 988.83 479.92 981.25 471.75 C 973.66 463.59 966.94 458.69 958.75 452.25 C 950.56 445.81 941.98 440.93 933.25 435.75 C 924.51 430.58 916.59 424.26 908.03 418.97 C 899.47 413.68 892.17 408.06 885.25 399.75 C 878.34 391.43 874.19 384.08 868.77 374.23 C 863.35 364.38 860.19 356.23 856.31 344.69 C 852.42 333.16 851.22 322.96 849.93 309.07 C 848.64 295.18 832.75 298.87 821.02 295.98 C 809.30 293.08 797.18 289.63 796.00 307.00
C 795.49 314.47 795.59 322.53 796.00 330.00
C 800.92 371.61 821.43 413.03 858.00 437.00
C 845.82 442.37 832.68 442.78 819.01 445.01 C 805.33 447.23 788.66 446.08 775.00 446.00 C 761.34 445.92 748.28 437.03 735.23 441.23 C 722.18 445.43 719.63 454.70 707.25 460.25 C 694.86 465.79 692.54 480.59 706.98 484.02 C 721.41 487.46 730.51 491.29 744.99 493.01 C 759.48 494.73 774.04 496.19 789.00 496.00 C 803.96 495.81 819.88 494.98 834.00 494.00 C 848.11 493.01 862.81 490.67 876.00 490.00 C 889.19 489.33 904.92 484.07 915.97 487.03 C 927.02 489.98 934.07 500.07 942.23 507.77 C 950.39 515.47 955.90 525.68 962.23 534.77 C 968.56 543.86 972.82 555.39 978.00 565.00
C 985.40 577.55 990.25 588.82 995.02 602.98 C 999.80 617.14 1003.54 631.47 1006.07 646.93 C 1008.61 662.38 1011.45 679.17 1011.00 696.00 C 1010.55 712.83 1011.79 733.42 1010.00 750.00 C 1008.21 766.58 1007.81 784.73 1005.93 800.93 C 1004.05 817.12 1000.42 831.35 997.99 846.99 C 995.57 862.64 991.87 877.74 988.98 892.98 C 986.08 908.21 982.77 923.56 979.32 938.32 C 975.87 953.08 972.28 967.34 968.78 981.78 C 965.27 996.21 959.86 1009.23 954.98 1022.98 C 950.09 1036.72 944.40 1048.38 938.93 1061.93 C 933.45 1075.47 931.46 1091.67 915.07 1092.07 C 898.69 1092.48 885.14 1099.81 870.00 1102.00 C 854.86 1104.19 842.17 1108.88 828.02 1113.02 C 813.88 1117.16 800.21 1120.98 787.07 1126.07 C 773.94 1131.17 760.21 1135.96 748.23 1142.23 C 736.25 1148.50 723.12 1155.06 721.00 1169.00
C 722.91 1169.41 724.38 1168.67 726.00 1168.00
C 735.23 1164.18 740.79 1154.99 751.08 1152.08 C 761.36 1149.16 770.48 1142.98 781.03 1140.02 C 791.57 1137.07 801.28 1132.16 812.07 1129.07 C 822.87 1125.99 833.97 1123.22 845.02 1120.02 C 856.08 1116.83 867.48 1114.57 879.00 1112.00 C 890.53 1109.44 901.98 1106.88 914.00 1105.00 C 926.02 1103.13 938.16 1100.95 950.67 1099.67 C 963.18 1098.39 975.99 1096.43 989.00 1096.00 C 1002.01 1095.57 1014.71 1093.32 1028.00 1093.00 C 1041.29 1092.68 1055.44 1091.81 1069.00 1092.00 C 1082.56 1092.19 1096.45 1091.97 1110.00 1092.00 C 1123.55 1092.03 1137.66 1092.68 1151.00 1093.00 C 1164.34 1093.32 1177.58 1094.90 1190.67 1095.33 C 1203.76 1095.76 1216.51 1097.59 1229.07 1098.93 C 1241.63 1100.27 1254.97 1101.11 1267.00 1103.00 C 1279.04 1104.89 1290.52 1107.82 1302.02 1109.98 C 1313.53 1112.14 1324.66 1115.11 1335.22 1118.78 C 1345.79 1122.45 1354.96 1127.21 1365.03 1130.98 C 1375.09 1134.74 1384.47 1140.33 1394.23 1143.77 C 1403.99 1147.21 1412.24 1155.08 1421.23 1158.77 C 1430.22 1162.47 1436.51 1175.01 1446.00 1176.00
C 1463.61 1169.80 1442.97 1157.83 1433.08 1150.92 C 1423.19 1144.01 1410.13 1136.83 1398.23 1131.77 C 1386.32 1126.71 1373.32 1120.50 1360.68 1115.32 C 1348.04 1110.14 1336.20 1103.97 1322.01 1100.99 C 1307.81 1098.01 1293.61 1094.43 1279.00 1092.00 C 1264.39 1089.57 1246.42 1087.74 1231.00 1086.00 C 1215.58 1084.26 1197.73 1083.26 1182.00 1082.00
C 1157.37 1005.71 1141.48 931.81 1131.33 850.67 C 1121.18 769.53 1120.33 674.01 1146.00 597.00
C 1149.27 585.98 1153.64 573.93 1158.70 563.70 C 1163.75 553.46 1168.22 543.98 1174.70 534.70 C 1181.18 525.41 1185.79 517.47 1194.25 509.25 C 1202.72 501.04 1210.27 497.67 1220.75 490.75 C 1231.23 483.84 1246.19 490.43 1259.00 491.00 C 1271.81 491.57 1288.74 492.46 1302.00 493.00 C 1315.26 493.54 1333.12 493.70 1345.99 491.99 C 1358.86 490.29 1370.95 490.72 1381.25 482.25 C 1391.55 473.78 1396.04 464.47 1395.00 450.00 C 1393.96 435.53 1375.65 442.37 1364.01 446.01 C 1352.37 449.65 1335.23 445.54 1323.00 444.00 C 1310.77 442.46 1295.43 440.78 1283.00 439.00
C 1289.27 432.48 1296.36 426.31 1303.30 420.30 C 1310.25 414.30 1317.37 408.77 1323.75 401.75 C 1330.14 394.73 1335.94 388.13 1341.70 380.70 C 1347.45 373.26 1351.29 363.49 1355.22 355.22 C 1359.15 346.96 1361.92 333.21 1364.02 325.02 C 1366.12 316.84 1372.02 298.83 1361.00 298.00 C 1349.98 297.17 1335.35 292.79 1330.31 302.31 C 1325.26 311.82 1325.50 322.86 1320.77 331.77 C 1316.04 340.68 1312.43 348.67 1306.25 356.25 C 1300.07 363.82 1295.62 370.25 1288.25 376.25 C 1280.87 382.24 1273.82 388.16 1265.70 392.70 C 1257.57 397.23 1249.37 402.79 1241.23 407.23 C 1233.09 411.67 1225.22 417.48 1217.70 422.70 C 1210.17 427.91 1202.21 433.54 1195.25 439.25 C 1188.29 444.95 1181.36 451.21 1174.75 456.75 C 1168.14 462.29 1161.06 470.91 1154.75 475.75 C 1148.43 480.58 1135.93 492.40 1130.31 483.69 C 1124.68 474.99 1123.48 465.22 1119.32 455.68 C 1115.17 446.13 1113.79 435.48 1110.78 425.22 C 1107.77 414.97 1106.80 404.27 1104.78 393.22 C 1102.75 382.17 1102.04 369.97 1100.78 358.22 C 1099.52 346.47 1099.15 333.35 1099.00 321.00 C 1098.85 308.65 1099.40 295.15 1100.00 283.00 C 1100.60 270.85 1102.76 259.91 1104.00 248.00 C 1105.24 236.09 1106.67 226.30 1108.22 214.22 C 1109.77 202.14 1112.80 192.32 1112.00 179.00 C 1111.19 165.69 1095.75 167.43 1086.00 170.00 C 1076.25 172.57 1057.10 166.55 1058.00 181.00 C 1058.90 195.45 1059.23 204.54 1060.00 218.00 C 1060.77 231.46 1061.00 241.60 1061.00 255.00
M 807.00 325.00 
C 806.30 320.68 806.17 316.28 807.00 312.00
C 807.19 309.55 808.26 307.58 808.00 305.00
C 817.74 309.52 839.31 304.26 839.00 318.00 C 838.69 331.74 843.25 343.38 846.92 355.08 C 850.60 366.78 855.25 376.09 860.92 386.08 C 866.60 396.07 872.37 402.77 879.75 411.25 C 887.14 419.72 895.31 425.67 904.23 431.77 C 913.15 437.87 922.99 443.06 932.08 448.92 C 941.16 454.79 949.41 460.03 958.08 466.92 C 966.75 473.80 973.29 480.49 980.75 489.25 C 988.21 498.01 995.53 503.78 1006.22 508.78 C 1016.92 513.77 1030.85 511.55 1034.78 498.78 C 1038.70 486.00 1043.11 478.37 1045.78 465.78 C 1048.45 453.19 1052.45 442.57 1054.93 429.93 C 1057.41 417.29 1059.84 404.92 1062.00 392.00 C 1064.15 379.07 1065.48 366.68 1067.33 353.33 C 1069.18 339.98 1069.59 325.84 1071.00 312.00 C 1072.41 298.16 1071.72 283.18 1073.00 269.00 C 1074.27 254.81 1070.68 239.42 1072.00 225.00
C 1071.64 221.27 1071.00 216.41 1071.00 212.00
C 1071.00 201.91 1069.68 191.95 1069.00 182.00
C 1079.93 182.35 1090.44 181.14 1101.00 180.00
C 1098.25 201.00 1096.00 220.93 1093.00 242.00 C 1090.00 263.07 1088.05 284.98 1088.00 307.00 C 1087.95 329.03 1088.27 354.43 1090.33 375.67 C 1092.39 396.91 1095.88 415.19 1100.78 435.22 C 1105.67 455.25 1110.64 468.91 1118.92 488.08 C 1127.20 507.24 1151.57 496.74 1163.08 484.08 C 1174.60 471.42 1188.10 461.90 1200.75 450.75 C 1213.41 439.60 1227.59 430.89 1241.70 421.70 C 1255.80 412.50 1271.98 404.86 1285.70 394.70 C 1299.42 384.54 1309.26 372.21 1319.75 358.75 C 1330.25 345.30 1336.64 325.46 1341.00 309.00
C 1345.67 309.00 1350.33 309.00 1355.00 309.00
C 1353.20 319.61 1350.69 332.15 1347.07 342.07 C 1343.46 352.00 1339.62 361.39 1334.08 370.08 C 1328.53 378.76 1323.08 385.33 1315.75 392.75 C 1308.43 400.18 1303.31 405.83 1294.75 412.75 C 1286.19 419.68 1283.05 424.68 1272.25 431.25 C 1261.45 437.82 1259.62 448.72 1274.67 449.33 C 1289.72 449.94 1297.13 453.02 1310.67 454.33 C 1324.21 455.64 1334.48 458.45 1348.00 458.00 C 1361.52 457.55 1372.00 457.99 1384.00 453.00
C 1380.02 480.33 1349.19 482.24 1325.00 482.00 C 1300.81 481.76 1265.59 481.84 1242.00 477.00 C 1218.40 472.17 1201.85 485.48 1185.25 502.25 C 1168.64 519.02 1159.56 533.36 1149.23 554.23 C 1138.90 575.09 1132.68 596.26 1127.02 620.02 C 1121.36 643.79 1117.95 671.11 1116.00 697.00 C 1114.05 722.89 1113.14 756.17 1114.00 783.00 C 1114.86 809.83 1118.10 837.84 1121.33 863.67 C 1124.56 889.50 1129.46 914.16 1133.93 939.07 C 1138.39 963.99 1143.09 987.95 1149.00 1012.00 C 1154.91 1036.05 1162.00 1057.50 1169.00 1081.00
C 1093.47 1076.98 1015.55 1077.72 942.00 1088.00
C 949.09 1066.55 958.72 1049.21 966.75 1027.75 C 974.79 1006.29 980.79 983.92 985.93 960.93 C 991.07 937.94 997.61 914.88 1001.93 890.93 C 1006.24 866.98 1011.33 842.71 1014.93 817.93 C 1018.52 793.14 1020.61 764.68 1022.00 739.00 C 1023.39 713.32 1022.13 680.16 1019.02 655.98 C 1015.92 631.79 1011.03 609.13 1002.22 587.78 C 993.42 566.42 985.38 549.67 974.08 529.92 C 962.78 510.18 951.95 499.93 934.25 483.75 C 916.54 467.57 888.82 477.33 865.00 479.00 C 841.18 480.67 810.10 485.96 785.00 485.00 C 759.90 484.04 734.47 481.47 712.00 472.00
C 721.81 467.82 727.27 456.77 737.70 453.70 C 748.12 450.63 762.60 457.55 775.00 457.00 C 787.40 456.45 804.74 458.15 817.00 457.00 C 829.26 455.85 844.37 452.79 855.02 451.02 C 865.68 449.26 883.77 442.57 874.75 433.25 C 865.73 423.93 857.06 424.18 849.25 414.75 C 841.43 405.33 835.12 400.57 829.70 390.30 C 824.27 380.04 818.99 371.77 815.25 360.75 C 811.51 349.74 808.21 336.84 807.00 325.00 Z"/>
</g>
<g fill="#B6774C" fill-opacity="1.00" stroke="None">
<path d="
M 1071.00 212.00 
C 1071.36 215.73 1072.00 220.59 1072.00 225.00
C 1070.68 239.42 1074.27 254.81 1073.00 269.00 C 1071.72 283.18 1072.41 298.16 1071.00 312.00 C 1069.59 325.84 1069.18 339.98 1067.33 353.33 C 1065.48 366.68 1064.15 379.07 1062.00 392.00 C 1059.84 404.92 1057.41 417.29 1054.93 429.93 C 1052.45 442.57 1048.45 453.19 1045.78 465.78 C 1043.11 478.37 1038.70 486.00 1034.78 498.78 C 1030.85 511.55 1016.92 513.77 1006.22 508.78 C 995.53 503.78 988.21 498.01 980.75 489.25 C 973.29 480.49 966.75 473.80 958.08 466.92 C 949.41 460.03 941.16 454.79 932.08 448.92 C 922.99 443.06 913.15 437.87 904.23 431.77 C 895.31 425.67 887.14 419.72 879.75 411.25 C 872.37 402.77 866.60 396.07 860.92 386.08 C 855.25 376.09 850.60 366.78 846.92 355.08 C 843.25 343.38 838.69 331.74 839.00 318.00 C 839.31 304.26 817.74 309.52 808.00 305.00
C 808.26 307.58 807.19 309.55 807.00 312.00
C 806.67 316.20 806.77 320.79 807.00 325.00
C 808.21 336.84 811.51 349.74 815.25 360.75 C 818.99 371.77 824.27 380.04 829.70 390.30 C 835.12 400.57 841.43 405.33 849.25 414.75 C 857.06 424.18 865.73 423.93 874.75 433.25 C 883.77 442.57 865.68 449.26 855.02 451.02 C 844.37 452.79 829.26 455.85 817.00 457.00 C 804.74 458.15 787.40 456.45 775.00 457.00 C 762.60 457.55 748.12 450.63 737.70 453.70 C 727.27 456.77 721.81 467.82 712.00 472.00
C 734.47 481.47 759.90 484.04 785.00 485.00 C 810.10 485.96 841.18 480.67 865.00 479.00 C 888.82 477.33 916.54 467.57 934.25 483.75 C 951.95 499.93 962.78 510.18 974.08 529.92 C 985.38 549.67 993.42 566.42 1002.22 587.78 C 1011.03 609.13 1015.92 631.79 1019.02 655.98 C 1022.13 680.16 1023.39 713.32 1022.00 739.00 C 1020.61 764.68 1018.52 793.14 1014.93 817.93 C 1011.33 842.71 1006.24 866.98 1001.93 890.93 C 997.61 914.88 991.07 937.94 985.93 960.93 C 980.79 983.92 974.79 1006.29 966.75 1027.75 C 958.72 1049.21 949.09 1066.55 942.00 1088.00
C 1015.55 1077.72 1093.47 1076.98 1169.00 1081.00
C 1162.00 1057.50 1154.91 1036.05 1149.00 1012.00 C 1143.09 987.95 1138.39 963.99 1133.93 939.07 C 1129.46 914.16 1124.56 889.50 1121.33 863.67 C 1118.10 837.84 1114.86 809.83 1114.00 783.00 C 1113.14 756.17 1114.05 722.89 1116.00 697.00 C 1117.95 671.11 1121.36 643.79 1127.02 620.02 C 1132.68 596.26 1138.90 575.09 1149.23 554.23 C 1159.56 533.36 1168.64 519.02 1185.25 502.25 C 1201.85 485.48 1218.40 472.17 1242.00 477.00 C 1265.59 481.84 1300.81 481.76 1325.00 482.00 C 1349.19 482.24 1380.02 480.33 1384.00 453.00
C 1372.00 457.99 1361.52 457.55 1348.00 458.00 C 1334.48 458.45 1324.21 455.64 1310.67 454.33 C 1297.13 453.02 1289.72 449.94 1274.67 449.33 C 1259.62 448.72 1261.45 437.82 1272.25 431.25 C 1283.05 424.68 1286.19 419.68 1294.75 412.75 C 1303.31 405.83 1308.43 400.18 1315.75 392.75 C 1323.08 385.33 1328.53 378.76 1334.08 370.08 C 1339.62 361.39 1343.46 352.00 1347.07 342.07 C 1350.69 332.15 1353.20 319.61 1355.00 309.00
C 1350.33 309.00 1345.67 309.00 1341.00 309.00
C 1336.64 325.46 1330.25 345.30 1319.75 358.75 C 1309.26 372.21 1299.42 384.54 1285.70 394.70 C 1271.98 404.86 1255.80 412.50 1241.70 421.70 C 1227.59 430.89 1213.41 439.60 1200.75 450.75 C 1188.10 461.90 1174.60 471.42 1163.08 484.08 C 1151.57 496.74 1127.20 507.24 1118.92 488.08 C 1110.64 468.91 1105.67 455.25 1100.78 435.22 C 1095.88 415.19 1092.39 396.91 1090.33 375.67 C 1088.27 354.43 1087.95 329.03 1088.00 307.00 C 1088.05 284.98 1090.00 263.07 1093.00 242.00 C 1096.00 220.93 1098.25 201.00 1101.00 180.00
C 1090.44 181.14 1079.93 182.35 1069.00 182.00
C 1069.68 191.95 1071.00 201.91 1071.00 212.00 Z"/>
</g>
<g fill="#5A3C26" fill-opacity="1.00" stroke="None">
<path d="
M 1072.00 225.00 
C 1072.00 220.59 1071.36 215.73 1071.00 212.00
C 1071.00 216.41 1071.64 221.27 1072.00 225.00 Z"/>
</g>
<g fill="#465B1A" fill-opacity="1.00" stroke="None">
<path d="
M 1061.00 269.00 
C 1061.42 264.66 1061.43 259.40 1061.00 255.00
C 1061.00 259.67 1061.00 264.33 1061.00 269.00 Z"/>
</g>
<g fill="#354514" fill-opacity="1.00" stroke="None">
<path d="
M 796.00 330.00 
C 795.59 322.53 795.49 314.47 796.00 307.00
C 794.74 314.06 794.84 322.88 796.00 330.00 Z"/>
</g>
<g fill="#4D3321" fill-opacity="1.00" stroke="None">
<path d="
M 807.00 325.00 
C 806.77 320.79 806.67 316.20 807.00 312.00
C 806.17 316.28 806.30 320.68 807.00 325.00 Z"/>
</g>
<g fill="#8DB533" fill-opacity="0.98" stroke="None">
<path d="
M 726.00 1168.00 
C 725.86 1177.24 728.44 1189.90 741.00 1186.00
C 740.41 1192.23 751.69 1194.10 751.00 1187.00
C 756.32 1189.76 762.61 1193.20 768.97 1189.97 C 775.33 1186.74 780.20 1192.02 785.00 1185.00
C 788.76 1193.93 795.84 1183.04 802.33 1183.67 C 808.81 1184.30 815.07 1183.37 819.00 1177.00
C 822.73 1180.54 831.22 1183.72 832.00 1176.00
C 836.34 1176.99 839.97 1174.75 842.00 1171.00
C 848.02 1173.83 858.87 1172.70 862.00 1166.00
C 868.75 1170.10 872.13 1160.59 878.00 1161.00
C 882.16 1166.52 891.98 1165.61 894.00 1158.00
C 897.98 1164.95 904.15 1155.72 908.75 1158.25 C 913.36 1160.77 918.01 1162.12 921.00 1156.00
C 926.35 1164.73 931.47 1153.32 936.98 1156.02 C 942.48 1158.72 947.56 1148.63 952.92 1150.08 C 958.29 1151.53 963.25 1156.79 969.32 1155.66 C 975.39 1154.53 979.82 1151.87 986.00 1151.00
C 986.24 1158.02 996.56 1153.61 996.00 1148.00
C 1001.95 1150.28 1007.86 1151.20 1013.92 1149.06 C 1019.97 1146.93 1024.78 1150.66 1031.00 1147.00
C 1036.87 1152.91 1045.43 1153.09 1053.00 1151.00
C 1053.79 1157.29 1063.95 1155.88 1066.00 1151.00
C 1072.59 1155.84 1083.96 1151.70 1089.00 1146.00
C 1096.70 1148.73 1104.91 1149.94 1112.32 1147.66 C 1119.73 1145.39 1128.29 1155.04 1136.00 1147.00
C 1138.71 1153.44 1144.49 1150.30 1148.31 1147.31 C 1152.12 1144.31 1157.15 1149.11 1161.00 1145.00
C 1163.15 1149.39 1168.62 1152.87 1173.25 1150.26 C 1177.89 1147.65 1182.76 1153.15 1187.00 1147.00
C 1183.39 1156.28 1193.48 1152.55 1197.75 1155.25 C 1202.02 1157.94 1208.37 1161.34 1212.00 1155.00
C 1216.00 1157.58 1221.87 1158.95 1226.00 1156.00
C 1227.48 1162.20 1234.10 1161.23 1238.00 1158.00
C 1243.89 1163.88 1254.74 1168.78 1261.00 1160.00
C 1266.22 1163.67 1271.04 1158.96 1277.00 1161.00
C 1276.96 1165.84 1284.66 1166.52 1286.00 1162.00
C 1289.44 1165.84 1294.76 1163.09 1298.00 1161.00
C 1300.67 1168.79 1309.40 1163.82 1314.92 1166.08 C 1320.44 1168.34 1325.40 1171.69 1332.00 1169.00
C 1335.94 1177.55 1349.67 1175.66 1358.00 1177.00
C 1359.12 1185.31 1370.61 1182.40 1376.93 1184.07 C 1383.24 1185.74 1390.25 1189.57 1397.99 1189.01 C 1405.73 1188.45 1410.25 1200.11 1419.00 1194.00
C 1422.82 1201.98 1431.33 1196.75 1436.25 1193.25 C 1441.17 1189.74 1441.79 1179.71 1446.00 1176.00
C 1436.51 1175.01 1430.22 1162.47 1421.23 1158.77 C 1412.24 1155.08 1403.99 1147.21 1394.23 1143.77 C 1384.47 1140.33 1375.09 1134.74 1365.03 1130.98 C 1354.96 1127.21 1345.79 1122.45 1335.22 1118.78 C 1324.66 1115.11 1313.53 1112.14 1302.02 1109.98 C 1290.52 1107.82 1279.04 1104.89 1267.00 1103.00 C 1254.97 1101.11 1241.63 1100.27 1229.07 1098.93 C 1216.51 1097.59 1203.76 1095.76 1190.67 1095.33 C 1177.58 1094.90 1164.34 1093.32 1151.00 1093.00 C 1137.66 1092.68 1123.55 1092.03 1110.00 1092.00 C 1096.45 1091.97 1082.56 1092.19 1069.00 1092.00 C 1055.44 1091.81 1041.29 1092.68 1028.00 1093.00 C 1014.71 1093.32 1002.01 1095.57 989.00 1096.00 C 975.99 1096.43 963.18 1098.39 950.67 1099.67 C 938.16 1100.95 926.02 1103.13 914.00 1105.00 C 901.98 1106.88 890.53 1109.44 879.00 1112.00 C 867.48 1114.57 856.08 1116.83 845.02 1120.02 C 833.97 1123.22 822.87 1125.99 812.07 1129.07 C 801.28 1132.16 791.57 1137.07 781.03 1140.02 C 770.48 1142.98 761.36 1149.16 751.08 1152.08 C 740.79 1154.99 735.23 1164.18 726.00 1168.00 Z"/>
</g>
</svg>