<svg xmlns="http://www.w3.org/2000/svg" xmlns:v="https://svgstorm.com"
viewBox = "0 0 320 235"
width="320"
height="235">
<g fill="None" fill-opacity="0.0" stroke="#000000" stroke-opacity="0.04" stroke-width="0.3"><path d="
M 0.00 235.00 
L 320.00 235.00
L 320.00 0.00
L 0.00 0.00
L 0.00 235.00
M 307.00 2.00 
C 307.09 7.34 312.72 11.37 309.00 16.00
C 314.30 19.68 313.66 28.96 314.77 37.23 C 315.88 45.49 315.15 47.30 316.02 56.03 C 316.89 64.75 318.35 77.93 318.00 88.00 C 317.65 98.07 319.17 110.59 319.00 121.00 C 318.83 131.41 318.28 143.62 318.00 154.00 C 317.72 164.38 317.03 173.97 313.23 183.23 C 309.43 192.48 300.27 193.62 290.99 194.99 C 281.72 196.36 269.64 196.39 260.00 198.00 C 250.36 199.61 239.86 200.70 230.00 202.00 C 220.14 203.30 209.96 204.87 200.00 206.00 C 190.04 207.13 180.74 209.68 170.78 210.78 C 160.82 211.87 150.80 213.37 140.98 214.98 C 131.15 216.58 120.86 217.52 111.00 219.00 C 101.14 220.48 91.53 222.09 81.78 223.78 C 72.03 225.46 61.96 226.31 52.33 228.33 C 42.70 230.35 33.12 231.77 23.33 233.33 C 13.54 234.89 3.14 232.98 2.02 221.98 C 0.91 210.98 1.38 201.24 2.33 190.33 C 3.28 179.42 3.16 168.83 4.00 158.00 C 4.84 147.17 4.59 135.86 5.00 125.00 C 5.41 114.14 6.47 103.73 6.98 92.98 C 7.48 82.22 6.98 69.66 7.00 59.00 C 7.02 48.34 6.96 38.74 9.00 31.00
C 23.92 22.34 43.51 22.70 62.25 20.80 C 80.98 18.90 100.65 17.93 120.22 16.22 C 139.79 14.51 159.51 12.50 179.07 11.07 C 198.64 9.64 219.54 7.07 240.22 5.22 C 260.90 3.37 284.85 3.62 307.00 2.00 Z"/>
</g>
<g fill="None" fill-opacity="0.0" stroke="#000000" stroke-opacity="0.98" stroke-width="0.3"><path d="
M 307.00 2.00 
C 284.85 3.62 260.90 3.37 240.22 5.22 C 219.54 7.07 198.64 9.64 179.07 11.07 C 159.51 12.50 139.79 14.51 120.22 16.22 C 100.65 17.93 80.98 18.90 62.25 20.80 C 43.51 22.70 23.92 22.34 9.00 31.00
C 6.96 38.74 7.02 48.34 7.00 59.00 C 6.98 69.66 7.48 82.22 6.98 92.98 C 6.47 103.73 5.41 114.14 5.00 125.00 C 4.59 135.86 4.84 147.17 4.00 158.00 C 3.16 168.83 3.28 179.42 2.33 190.33 C 1.38 201.24 0.91 210.98 2.02 221.98 C 3.14 232.98 13.54 234.89 23.33 233.33 C 33.12 231.77 42.70 230.35 52.33 228.33 C 61.96 226.31 72.03 225.46 81.78 223.78 C 91.53 222.09 101.14 220.48 111.00 219.00 C 120.86 217.52 131.15 216.58 140.98 214.98 C 150.80 213.37 160.82 211.87 170.78 210.78 C 180.74 209.68 190.04 207.13 200.00 206.00 C 209.96 204.87 220.14 203.30 230.00 202.00 C 239.86 200.70 250.36 199.61 260.00 198.00 C 269.64 196.39 281.72 196.36 290.99 194.99 C 300.27 193.62 309.43 192.48 313.23 183.23 C 317.03 173.97 317.72 164.38 318.00 154.00 C 318.28 143.62 318.83 131.41 319.00 121.00 C 319.17 110.59 317.65 98.07 318.00 88.00 C 318.35 77.93 316.89 64.75 316.02 56.03 C 315.15 47.30 315.88 45.49 314.77 37.23 C 313.66 28.96 314.30 19.68 309.00 16.00
C 312.72 11.37 307.09 7.34 307.00 2.00
M 181.00 119.00 
C 178.70 118.90 176.30 118.89 174.00 119.00
C 168.76 119.26 163.71 121.01 161.00 126.00
C 152.02 117.57 139.21 116.00 130.00 125.00
C 100.48 92.73 64.36 67.08 35.00 36.00
C 118.40 29.95 201.23 21.61 285.00 17.00
C 256.56 53.58 218.98 86.45 186.00 120.00
C 184.24 120.05 182.93 118.47 181.00 119.00
M 299.00 28.00 
C 304.21 74.41 307.25 122.70 303.00 170.00
C 270.92 153.55 240.53 133.03 207.00 120.00
C 237.55 89.40 267.93 57.05 299.00 28.00
M 88.00 141.00 
C 84.62 144.95 80.60 148.40 77.00 152.00
C 69.80 160.42 61.37 168.85 53.00 176.00
C 49.68 179.32 46.55 182.97 43.00 186.00
C 38.92 189.49 35.03 193.55 31.00 197.00
C 29.00 199.00 27.13 201.18 25.00 203.00
C 21.27 206.18 17.79 209.99 14.00 213.00
C 16.43 155.87 19.56 98.89 19.00 41.00
C 48.53 67.00 77.88 94.06 107.00 121.00
C 101.32 128.16 93.63 133.89 88.00 141.00
M 162.00 130.00 
C 167.41 117.59 188.86 119.10 189.99 134.01 C 191.12 148.92 183.79 155.56 174.25 166.25 C 164.71 176.94 153.38 174.62 144.92 164.08 C 136.45 153.55 126.63 146.85 131.31 132.31 C 135.98 117.76 153.45 121.44 162.00 130.00
M 23.00 220.00 
C 21.22 219.10 28.84 212.99 30.00 212.00
C 40.74 202.82 50.26 192.18 61.00 183.00
C 69.92 174.08 79.13 164.87 88.00 156.00
C 96.07 146.56 106.00 138.41 114.00 129.00
C 125.82 133.69 126.50 149.36 133.31 156.69 C 140.11 164.03 148.40 177.63 159.03 178.97 C 169.66 180.31 177.76 165.67 185.75 158.75 C 193.75 151.83 191.87 132.08 200.00 125.00
C 231.11 144.64 263.06 164.46 297.00 179.00
C 252.17 187.06 205.56 191.93 159.99 198.99 C 114.43 206.06 68.34 211.88 23.00 220.00 Z"/>
</g>
<g fill="None" fill-opacity="0.0" stroke="#FEC260" stroke-opacity="1.00" stroke-width="0.3"><path d="
M 174.00 119.00 
C 176.55 118.59 178.51 118.61 181.00 119.00
C 182.93 118.47 184.24 120.05 186.00 120.00
C 218.98 86.45 256.56 53.58 285.00 17.00
C 201.23 21.61 118.40 29.95 35.00 36.00
C 64.36 67.08 100.48 92.73 130.00 125.00
C 139.21 116.00 152.02 117.57 161.00 126.00
C 163.71 121.01 168.76 119.26 174.00 119.00 Z"/>
</g>
<g fill="None" fill-opacity="0.0" stroke="#FDC260" stroke-opacity="0.99" stroke-width="0.3"><path d="
M 299.00 28.00 
C 267.93 57.05 237.55 89.40 207.00 120.00
C 240.53 133.03 270.92 153.55 303.00 170.00
C 307.25 122.70 304.21 74.41 299.00 28.00 Z"/>
</g>
<g fill="None" fill-opacity="0.0" stroke="#FDC260" stroke-opacity="1.00" stroke-width="0.3"><path d="
M 25.00 203.00 
C 27.00 201.00 28.87 198.82 31.00 197.00
C 35.03 193.55 38.92 189.49 43.00 186.00
C 46.32 182.68 49.45 179.03 53.00 176.00
C 61.37 168.85 69.80 160.42 77.00 152.00
C 80.38 148.05 84.40 144.60 88.00 141.00
C 93.63 133.89 101.32 128.16 107.00 121.00
C 77.88 94.06 48.53 67.00 19.00 41.00
C 19.56 98.89 16.43 155.87 14.00 213.00
C 17.79 209.99 21.27 206.18 25.00 203.00 Z"/>
</g>
<g fill="None" fill-opacity="0.0" stroke="#73572B" stroke-opacity="1.00" stroke-width="0.3"><path d="
M 174.00 119.00 
C 176.30 118.89 178.70 118.90 181.00 119.00
C 178.51 118.61 176.55 118.59 174.00 119.00 Z"/>
</g>
<g fill="None" fill-opacity="0.0" stroke="#DF0000" stroke-opacity="1.00" stroke-width="0.3"><path d="
M 162.00 130.00 
C 153.45 121.44 135.98 117.76 131.31 132.31 C 126.63 146.85 136.45 153.55 144.92 164.08 C 153.38 174.62 164.71 176.94 174.25 166.25 C 183.79 155.56 191.12 148.92 189.99 134.01 C 188.86 119.10 167.41 117.59 162.00 130.00 Z"/>
</g>
<g fill="None" fill-opacity="0.0" stroke="#FDC160" stroke-opacity="1.00" stroke-width="0.3"><path d="
M 88.00 156.00 
C 79.92 165.46 70.41 174.96 61.00 183.00
C 50.26 192.18 40.74 202.82 30.00 212.00
C 27.58 214.42 25.19 217.44 23.00 220.00
C 68.34 211.88 114.43 206.06 159.99 198.99 C 205.56 191.93 252.17 187.06 297.00 179.00
C 263.06 164.46 231.11 144.64 200.00 125.00
C 191.87 132.08 193.75 151.83 185.75 158.75 C 177.76 165.67 169.66 180.31 159.03 178.97 C 148.40 177.63 140.11 164.03 133.31 156.69 C 126.50 149.36 125.82 133.69 114.00 129.00
C 106.00 138.41 96.07 146.56 88.00 156.00 Z"/>
</g>
<g fill="None" fill-opacity="0.0" stroke="#73582C" stroke-opacity="1.00" stroke-width="0.3"><path d="
M 77.00 152.00 
C 80.60 148.40 84.62 144.95 88.00 141.00
C 84.40 144.60 80.38 148.05 77.00 152.00 Z"/>
</g>
<g fill="None" fill-opacity="0.0" stroke="#7B5E2F" stroke-opacity="1.00" stroke-width="0.3"><path d="
M 61.00 183.00 
C 70.41 174.96 79.92 165.46 88.00 156.00
C 79.13 164.87 69.92 174.08 61.00 183.00 Z"/>
</g>
<g fill="None" fill-opacity="0.0" stroke="#7C5F2F" stroke-opacity="1.00" stroke-width="0.3"><path d="
M 43.00 186.00 
C 46.55 182.97 49.68 179.32 53.00 176.00
C 49.45 179.03 46.32 182.68 43.00 186.00 Z"/>
</g>
<g fill="None" fill-opacity="0.0" stroke="#73582B" stroke-opacity="1.00" stroke-width="0.3"><path d="
M 25.00 203.00 
C 27.13 201.18 29.00 199.00 31.00 197.00
C 28.87 198.82 27.00 201.00 25.00 203.00 Z"/>
</g>
<g fill="None" fill-opacity="0.0" stroke="#826331" stroke-opacity="1.00" stroke-width="0.3"><path d="
M 23.00 220.00 
C 25.19 217.44 27.58 214.42 30.00 212.00
C 28.84 212.99 21.22 219.10 23.00 220.00 Z"/>
</g>
<g fill="#000000" fill-opacity="0.04" stroke="None">
<path d="
M 0.00 235.00 
L 320.00 235.00
L 320.00 0.00
L 0.00 0.00
L 0.00 235.00
M 307.00 2.00 
C 307.09 7.34 312.72 11.37 309.00 16.00
C 314.30 19.68 313.66 28.96 314.77 37.23 C 315.88 45.49 315.15 47.30 316.02 56.03 C 316.89 64.75 318.35 77.93 318.00 88.00 C 317.65 98.07 319.17 110.59 319.00 121.00 C 318.83 131.41 318.28 143.62 318.00 154.00 C 317.72 164.38 317.03 173.97 313.23 183.23 C 309.43 192.48 300.27 193.62 290.99 194.99 C 281.72 196.36 269.64 196.39 260.00 198.00 C 250.36 199.61 239.86 200.70 230.00 202.00 C 220.14 203.30 209.96 204.87 200.00 206.00 C 190.04 207.13 180.74 209.68 170.78 210.78 C 160.82 211.87 150.80 213.37 140.98 214.98 C 131.15 216.58 120.86 217.52 111.00 219.00 C 101.14 220.48 91.53 222.09 81.78 223.78 C 72.03 225.46 61.96 226.31 52.33 228.33 C 42.70 230.35 33.12 231.77 23.33 233.33 C 13.54 234.89 3.14 232.98 2.02 221.98 C 0.91 210.98 1.38 201.24 2.33 190.33 C 3.28 179.42 3.16 168.83 4.00 158.00 C 4.84 147.17 4.59 135.86 5.00 125.00 C 5.41 114.14 6.47 103.73 6.98 92.98 C 7.48 82.22 6.98 69.66 7.00 59.00 C 7.02 48.34 6.96 38.74 9.00 31.00
C 23.92 22.34 43.51 22.70 62.25 20.80 C 80.98 18.90 100.65 17.93 120.22 16.22 C 139.79 14.51 159.51 12.50 179.07 11.07 C 198.64 9.64 219.54 7.07 240.22 5.22 C 260.90 3.37 284.85 3.62 307.00 2.00 Z"/>
</g>
<g fill="#000000" fill-opacity="0.98" stroke="None">
<path d="
M 307.00 2.00 
C 284.85 3.62 260.90 3.37 240.22 5.22 C 219.54 7.07 198.64 9.64 179.07 11.07 C 159.51 12.50 139.79 14.51 120.22 16.22 C 100.65 17.93 80.98 18.90 62.25 20.80 C 43.51 22.70 23.92 22.34 9.00 31.00
C 6.96 38.74 7.02 48.34 7.00 59.00 C 6.98 69.66 7.48 82.22 6.98 92.98 C 6.47 103.73 5.41 114.14 5.00 125.00 C 4.59 135.86 4.84 147.17 4.00 158.00 C 3.16 168.83 3.28 179.42 2.33 190.33 C 1.38 201.24 0.91 210.98 2.02 221.98 C 3.14 232.98 13.54 234.89 23.33 233.33 C 33.12 231.77 42.70 230.35 52.33 228.33 C 61.96 226.31 72.03 225.46 81.78 223.78 C 91.53 222.09 101.14 220.48 111.00 219.00 C 120.86 217.52 131.15 216.58 140.98 214.98 C 150.80 213.37 160.82 211.87 170.78 210.78 C 180.74 209.68 190.04 207.13 200.00 206.00 C 209.96 204.87 220.14 203.30 230.00 202.00 C 239.86 200.70 250.36 199.61 260.00 198.00 C 269.64 196.39 281.72 196.36 290.99 194.99 C 300.27 193.62 309.43 192.48 313.23 183.23 C 317.03 173.97 317.72 164.38 318.00 154.00 C 318.28 143.62 318.83 131.41 319.00 121.00 C 319.17 110.59 317.65 98.07 318.00 88.00 C 318.35 77.93 316.89 64.75 316.02 56.03 C 315.15 47.30 315.88 45.49 314.77 37.23 C 313.66 28.96 314.30 19.68 309.00 16.00
C 312.72 11.37 307.09 7.34 307.00 2.00
M 181.00 119.00 
C 178.70 118.90 176.30 118.89 174.00 119.00
C 168.76 119.26 163.71 121.01 161.00 126.00
C 152.02 117.57 139.21 116.00 130.00 125.00
C 100.48 92.73 64.36 67.08 35.00 36.00
C 118.40 29.95 201.23 21.61 285.00 17.00
C 256.56 53.58 218.98 86.45 186.00 120.00
C 184.24 120.05 182.93 118.47 181.00 119.00
M 299.00 28.00 
C 304.21 74.41 307.25 122.70 303.00 170.00
C 270.92 153.55 240.53 133.03 207.00 120.00
C 237.55 89.40 267.93 57.05 299.00 28.00
M 88.00 141.00 
C 84.62 144.95 80.60 148.40 77.00 152.00
C 69.80 160.42 61.37 168.85 53.00 176.00
C 49.68 179.32 46.55 182.97 43.00 186.00
C 38.92 189.49 35.03 193.55 31.00 197.00
C 29.00 199.00 27.13 201.18 25.00 203.00
C 21.27 206.18 17.79 209.99 14.00 213.00
C 16.43 155.87 19.56 98.89 19.00 41.00
C 48.53 67.00 77.88 94.06 107.00 121.00
C 101.32 128.16 93.63 133.89 88.00 141.00
M 162.00 130.00 
C 167.41 117.59 188.86 119.10 189.99 134.01 C 191.12 148.92 183.79 155.56 174.25 166.25 C 164.71 176.94 153.38 174.62 144.92 164.08 C 136.45 153.55 126.63 146.85 131.31 132.31 C 135.98 117.76 153.45 121.44 162.00 130.00
M 23.00 220.00 
C 21.22 219.10 28.84 212.99 30.00 212.00
C 40.74 202.82 50.26 192.18 61.00 183.00
C 69.92 174.08 79.13 164.87 88.00 156.00
C 96.07 146.56 106.00 138.41 114.00 129.00
C 125.82 133.69 126.50 149.36 133.31 156.69 C 140.11 164.03 148.40 177.63 159.03 178.97 C 169.66 180.31 177.76 165.67 185.75 158.75 C 193.75 151.83 191.87 132.08 200.00 125.00
C 231.11 144.64 263.06 164.46 297.00 179.00
C 252.17 187.06 205.56 191.93 159.99 198.99 C 114.43 206.06 68.34 211.88 23.00 220.00 Z"/>
</g>
<g fill="#FEC260" fill-opacity="1.00" stroke="None">
<path d="
M 174.00 119.00 
C 176.55 118.59 178.51 118.61 181.00 119.00
C 182.93 118.47 184.24 120.05 186.00 120.00
C 218.98 86.45 256.56 53.58 285.00 17.00
C 201.23 21.61 118.40 29.95 35.00 36.00
C 64.36 67.08 100.48 92.73 130.00 125.00
C 139.21 116.00 152.02 117.57 161.00 126.00
C 163.71 121.01 168.76 119.26 174.00 119.00 Z"/>
</g>
<g fill="#FDC260" fill-opacity="0.99" stroke="None">
<path d="
M 299.00 28.00 
C 267.93 57.05 237.55 89.40 207.00 120.00
C 240.53 133.03 270.92 153.55 303.00 170.00
C 307.25 122.70 304.21 74.41 299.00 28.00 Z"/>
</g>
<g fill="#FDC260" fill-opacity="1.00" stroke="None">
<path d="
M 25.00 203.00 
C 27.00 201.00 28.87 198.82 31.00 197.00
C 35.03 193.55 38.92 189.49 43.00 186.00
C 46.32 182.68 49.45 179.03 53.00 176.00
C 61.37 168.85 69.80 160.42 77.00 152.00
C 80.38 148.05 84.40 144.60 88.00 141.00
C 93.63 133.89 101.32 128.16 107.00 121.00
C 77.88 94.06 48.53 67.00 19.00 41.00
C 19.56 98.89 16.43 155.87 14.00 213.00
C 17.79 209.99 21.27 206.18 25.00 203.00 Z"/>
</g>
<g fill="#73572B" fill-opacity="1.00" stroke="None">
<path d="
M 174.00 119.00 
C 176.30 118.89 178.70 118.90 181.00 119.00
C 178.51 118.61 176.55 118.59 174.00 119.00 Z"/>
</g>
<g fill="#DF0000" fill-opacity="1.00" stroke="None">
<path d="
M 162.00 130.00 
C 153.45 121.44 135.98 117.76 131.31 132.31 C 126.63 146.85 136.45 153.55 144.92 164.08 C 153.38 174.62 164.71 176.94 174.25 166.25 C 183.79 155.56 191.12 148.92 189.99 134.01 C 188.86 119.10 167.41 117.59 162.00 130.00 Z"/>
</g>
<g fill="#FDC160" fill-opacity="1.00" stroke="None">
<path d="
M 88.00 156.00 
C 79.92 165.46 70.41 174.96 61.00 183.00
C 50.26 192.18 40.74 202.82 30.00 212.00
C 27.58 214.42 25.19 217.44 23.00 220.00
C 68.34 211.88 114.43 206.06 159.99 198.99 C 205.56 191.93 252.17 187.06 297.00 179.00
C 263.06 164.46 231.11 144.64 200.00 125.00
C 191.87 132.08 193.75 151.83 185.75 158.75 C 177.76 165.67 169.66 180.31 159.03 178.97 C 148.40 177.63 140.11 164.03 133.31 156.69 C 126.50 149.36 125.82 133.69 114.00 129.00
C 106.00 138.41 96.07 146.56 88.00 156.00 Z"/>
</g>
<g fill="#73582C" fill-opacity="1.00" stroke="None">
<path d="
M 77.00 152.00 
C 80.60 148.40 84.62 144.95 88.00 141.00
C 84.40 144.60 80.38 148.05 77.00 152.00 Z"/>
</g>
<g fill="#7B5E2F" fill-opacity="1.00" stroke="None">
<path d="
M 61.00 183.00 
C 70.41 174.96 79.92 165.46 88.00 156.00
C 79.13 164.87 69.92 174.08 61.00 183.00 Z"/>
</g>
<g fill="#7C5F2F" fill-opacity="1.00" stroke="None">
<path d="
M 43.00 186.00 
C 46.55 182.97 49.68 179.32 53.00 176.00
C 49.45 179.03 46.32 182.68 43.00 186.00 Z"/>
</g>
<g fill="#73582B" fill-opacity="1.00" stroke="None">
<path d="
M 25.00 203.00 
C 27.13 201.18 29.00 199.00 31.00 197.00
C 28.87 198.82 27.00 201.00 25.00 203.00 Z"/>
</g>
<g fill="#826331" fill-opacity="1.00" stroke="None">
<path d="
M 23.00 220.00 
C 25.19 217.44 27.58 214.42 30.00 212.00
C 28.84 212.99 21.22 219.10 23.00 220.00 Z"/>
</g>
</svg>