<svg xmlns="http://www.w3.org/2000/svg" xmlns:v="https://svgstorm.com"
viewBox = "0 0 320 400"
width="320"
height="400">
<g fill="None" fill-opacity="0.0" stroke="#000000" stroke-opacity="0.02" stroke-width="0.3"><path d="
M 0.00 400.00 
L 320.00 400.00
L 320.00 0.00
L 0.00 0.00
L 0.00 400.00
M 7.00 205.00 
C 6.35 197.67 7.82 196.57 9.00 194.00
C 10.69 180.35 26.75 177.32 26.00 163.00 C 25.25 148.68 23.19 134.97 25.93 118.93 C 28.66 102.88 46.21 106.15 60.00 105.00 C 73.80 103.86 84.62 101.00 94.25 91.25 C 103.88 81.49 106.08 74.80 116.77 65.77 C 127.46 56.74 119.41 43.36 123.93 30.93 C 128.45 18.49 136.68 13.94 146.25 5.25 C 155.81 -3.44 169.20 6.36 176.25 14.75 C 183.29 23.15 193.97 36.64 189.22 48.22 C 184.47 59.80 197.34 64.07 205.25 73.75 C 213.16 83.43 220.48 87.19 229.25 97.75 C 238.01 108.32 251.96 108.74 267.00 108.00 C 282.04 107.26 288.67 122.45 284.00 137.00 C 279.33 151.55 294.89 156.59 301.92 167.08 C 308.95 177.57 314.01 186.84 313.93 201.07 C 313.84 215.30 318.50 230.10 318.00 245.00 C 317.49 259.90 319.14 276.98 319.00 292.00 C 318.86 307.02 316.84 322.41 316.07 337.07 C 315.30 351.74 305.39 359.61 290.99 359.99 C 276.60 360.38 262.24 363.77 247.99 364.99 C 233.74 366.21 219.81 368.95 205.78 370.78 C 191.75 372.61 177.64 374.87 163.78 376.78 C 149.92 378.69 135.54 380.84 121.93 382.93 C 108.31 385.02 93.18 386.72 79.98 388.98 C 66.77 391.23 51.43 393.75 38.98 395.98 C 26.52 398.20 7.87 404.20 3.02 389.98 C -1.82 375.75 3.38 361.07 3.00 346.00 C 2.62 330.93 5.30 315.36 5.00 300.00 C 4.70 284.64 7.28 269.51 7.00 254.00 C 6.72 238.49 8.37 220.62 7.00 205.00 Z"/>
</g>
<g fill="None" fill-opacity="0.0" stroke="#000000" stroke-opacity="0.99" stroke-width="0.3"><path d="
M 9.00 194.00 
C 8.51 197.92 7.58 201.77 7.00 205.00
C 8.37 220.62 6.72 238.49 7.00 254.00 C 7.28 269.51 4.70 284.64 5.00 300.00 C 5.30 315.36 2.62 330.93 3.00 346.00 C 3.38 361.07 -1.82 375.75 3.02 389.98 C 7.87 404.20 26.52 398.20 38.98 395.98 C 51.43 393.75 66.77 391.23 79.98 388.98 C 93.18 386.72 108.31 385.02 121.93 382.93 C 135.54 380.84 149.92 378.69 163.78 376.78 C 177.64 374.87 191.75 372.61 205.78 370.78 C 219.81 368.95 233.74 366.21 247.99 364.99 C 262.24 363.77 276.60 360.38 290.99 359.99 C 305.39 359.61 315.30 351.74 316.07 337.07 C 316.84 322.41 318.86 307.02 319.00 292.00 C 319.14 276.98 317.49 259.90 318.00 245.00 C 318.50 230.10 313.84 215.30 313.93 201.07 C 314.01 186.84 308.95 177.57 301.92 167.08 C 294.89 156.59 279.33 151.55 284.00 137.00 C 288.67 122.45 282.04 107.26 267.00 108.00 C 251.96 108.74 238.01 108.32 229.25 97.75 C 220.48 87.19 213.16 83.43 205.25 73.75 C 197.34 64.07 184.47 59.80 189.22 48.22 C 193.97 36.64 183.29 23.15 176.25 14.75 C 169.20 6.36 155.81 -3.44 146.25 5.25 C 136.68 13.94 128.45 18.49 123.93 30.93 C 119.41 43.36 127.46 56.74 116.77 65.77 C 106.08 74.80 103.88 81.49 94.25 91.25 C 84.62 101.00 73.80 103.86 60.00 105.00 C 46.21 106.15 28.66 102.88 25.93 118.93 C 23.19 134.97 25.25 148.68 26.00 163.00 C 26.75 177.32 10.69 180.35 9.00 194.00
M 184.00 51.00 
C 174.77 45.56 167.17 28.31 155.00 30.00 C 142.83 31.69 136.98 47.18 127.00 53.00
C 121.53 44.34 126.47 28.89 132.75 22.75 C 139.03 16.62 146.26 4.59 155.23 4.23 C 164.20 3.87 171.60 16.55 177.92 22.08 C 184.23 27.62 190.75 43.59 184.00 51.00
M 157.00 45.00 
C 158.08 45.44 159.04 46.41 160.00 47.00
C 160.64 47.39 161.39 47.63 162.00 48.00
C 166.22 50.57 169.88 55.35 173.00 59.00
C 186.57 74.87 203.37 88.27 217.00 104.00
C 181.85 97.77 144.65 95.01 108.00 98.00
C 117.84 83.95 131.46 71.79 142.00 58.00
C 144.62 54.48 153.55 43.60 157.00 45.00
M 276.00 160.00 
C 276.00 162.77 275.20 165.96 275.00 168.00
C 275.00 181.59 276.03 196.83 262.75 202.75 C 249.48 208.68 243.50 213.70 231.92 219.92 C 220.35 226.15 211.92 229.19 201.30 236.30 C 190.68 243.41 182.67 247.69 171.31 254.31 C 159.94 260.92 146.51 259.67 134.77 255.23 C 123.03 250.79 110.05 248.48 98.98 243.02 C 87.90 237.57 79.81 231.01 68.92 226.08 C 58.03 221.15 49.98 212.53 40.00 207.00
C 42.04 193.04 37.19 179.11 36.00 164.00 C 34.82 148.88 32.31 131.23 36.00 116.00
C 46.51 116.14 57.16 116.45 67.01 114.01 C 76.86 111.57 86.71 110.89 97.00 110.00 C 107.29 109.11 117.85 107.73 128.22 107.22 C 138.59 106.72 151.73 106.61 162.00 107.00 C 172.27 107.39 181.03 110.18 191.02 110.98 C 201.02 111.78 211.97 113.12 221.67 114.33 C 231.37 115.54 243.64 116.81 253.00 117.00 C 262.36 117.19 278.16 114.93 277.00 127.00 C 275.84 139.07 275.79 147.90 276.00 160.00
M 287.00 181.00 
C 285.94 183.03 284.87 186.17 282.00 186.00
C 280.90 182.11 283.15 180.03 287.00 181.00
M 29.00 187.00 
C 29.77 193.08 22.86 187.31 29.00 187.00
M 299.00 189.00 
C 303.76 238.26 307.39 288.89 303.00 339.00
C 281.01 326.65 258.53 314.33 234.92 305.08 C 211.31 295.82 190.64 280.26 169.00 268.00
C 213.06 245.92 257.18 217.50 299.00 189.00
M 102.00 295.00 
C 99.34 297.66 96.84 300.57 94.00 303.00
C 67.05 326.03 43.11 353.57 14.00 373.00
C 16.86 318.97 19.27 264.82 19.00 210.00
C 56.17 230.58 92.96 251.78 133.00 266.00
C 123.45 276.44 112.02 284.92 102.00 295.00
M 109.00 307.00 
C 111.66 304.34 114.16 301.43 117.00 299.00
C 127.06 290.40 138.29 280.52 145.00 270.00
C 154.92 270.66 164.28 278.97 173.70 284.30 C 183.12 289.64 191.41 296.70 201.23 301.77 C 211.05 306.84 222.02 311.18 232.08 315.92 C 242.13 320.67 253.08 325.08 263.08 329.92 C 273.07 334.77 283.26 339.47 292.00 346.00
C 201.06 356.86 109.06 371.47 20.00 385.00
C 52.02 362.66 80.10 334.22 109.00 307.00 Z"/>
</g>
<g fill="None" fill-opacity="0.0" stroke="#DD0000" stroke-opacity="1.00" stroke-width="0.3"><path d="
M 184.00 51.00 
C 190.75 43.59 184.23 27.62 177.92 22.08 C 171.60 16.55 164.20 3.87 155.23 4.23 C 146.26 4.59 139.03 16.62 132.75 22.75 C 126.47 28.89 121.53 44.34 127.00 53.00
C 136.98 47.18 142.83 31.69 155.00 30.00 C 167.17 28.31 174.77 45.56 184.00 51.00 Z"/>
</g>
<g fill="None" fill-opacity="0.0" stroke="#892F16" stroke-opacity="1.00" stroke-width="0.3"><path d="
M 142.00 58.00 
C 144.18 55.50 153.83 44.53 157.00 45.00
C 153.55 43.60 144.62 54.48 142.00 58.00 Z"/>
</g>
<g fill="None" fill-opacity="0.0" stroke="#FBC05F" stroke-opacity="0.99" stroke-width="0.3"><path d="
M 142.00 58.00 
C 131.46 71.79 117.84 83.95 108.00 98.00
C 144.65 95.01 181.85 97.77 217.00 104.00
C 203.37 88.27 186.57 74.87 173.00 59.00
C 172.84 58.77 172.00 59.00 172.00 59.00
C 167.16 56.63 163.80 50.48 160.00 47.00
C 159.04 46.41 158.08 45.44 157.00 45.00
C 153.83 44.53 144.18 55.50 142.00 58.00 Z"/>
</g>
<g fill="None" fill-opacity="0.0" stroke="#E27F3F" stroke-opacity="1.00" stroke-width="0.3"><path d="
M 172.00 59.00 
C 169.38 55.25 165.28 51.06 162.00 48.00
C 161.39 47.63 160.64 47.39 160.00 47.00
C 163.80 50.48 167.16 56.63 172.00 59.00 Z"/>
</g>
<g fill="None" fill-opacity="0.0" stroke="#260000" stroke-opacity="1.00" stroke-width="0.3"><path d="
M 172.00 59.00 
C 172.00 59.00 172.84 58.77 173.00 59.00
C 169.88 55.35 166.22 50.57 162.00 48.00
C 165.28 51.06 169.38 55.25 172.00 59.00 Z"/>
</g>
<g fill="None" fill-opacity="0.0" stroke="#EBD6B1" stroke-opacity="1.00" stroke-width="0.3"><path d="
M 275.00 168.00 
C 275.00 165.23 275.80 162.04 276.00 160.00
C 275.79 147.90 275.84 139.07 277.00 127.00 C 278.16 114.93 262.36 117.19 253.00 117.00 C 243.64 116.81 231.37 115.54 221.67 114.33 C 211.97 113.12 201.02 111.78 191.02 110.98 C 181.03 110.18 172.27 107.39 162.00 107.00 C 151.73 106.61 138.59 106.72 128.22 107.22 C 117.85 107.73 107.29 109.11 97.00 110.00 C 86.71 110.89 76.86 111.57 67.01 114.01 C 57.16 116.45 46.51 116.14 36.00 116.00
C 32.31 131.23 34.82 148.88 36.00 164.00 C 37.19 179.11 42.04 193.04 40.00 207.00
C 49.98 212.53 58.03 221.15 68.92 226.08 C 79.81 231.01 87.90 237.57 98.98 243.02 C 110.05 248.48 123.03 250.79 134.77 255.23 C 146.51 259.67 159.94 260.92 171.31 254.31 C 182.67 247.69 190.68 243.41 201.30 236.30 C 211.92 229.19 220.35 226.15 231.92 219.92 C 243.50 213.70 249.48 208.68 262.75 202.75 C 276.03 196.83 275.00 181.59 275.00 168.00
M 214.00 142.00 
C 216.59 142.05 219.07 142.65 221.00 143.00
C 224.14 143.29 227.14 143.63 230.00 145.00
C 215.02 154.63 195.10 146.05 179.00 144.00
C 176.40 143.86 173.60 143.82 171.00 144.00
C 163.11 144.54 155.88 147.84 148.00 149.00 C 140.12 150.16 130.40 150.08 122.98 148.02 C 115.55 145.96 108.76 141.04 101.00 142.00 C 93.24 142.96 84.52 140.53 78.31 147.31 C 72.09 154.08 66.22 148.66 73.25 142.25 C 80.28 135.84 84.99 136.18 93.22 134.22 C 101.46 132.26 109.78 135.12 117.22 137.78 C 124.66 140.43 132.56 142.24 141.00 142.00 C 149.44 141.76 156.35 139.39 164.22 137.22 C 172.09 135.06 181.23 135.33 189.01 137.99 C 196.79 140.66 205.34 141.83 214.00 142.00
M 106.00 169.00 
C 120.44 169.78 134.92 179.08 150.01 175.01 C 165.10 170.94 179.18 166.81 195.00 170.00 C 210.82 173.19 227.29 170.23 243.00 171.00
C 239.53 178.73 228.75 179.00 221.00 179.00
C 216.91 179.40 212.02 179.39 208.00 179.00
C 197.28 179.00 185.11 175.24 174.33 177.33 C 163.55 179.42 155.17 182.78 144.00 183.00
C 140.35 183.44 136.63 183.59 133.00 183.00
C 123.29 182.47 115.51 176.65 106.00 176.00
C 102.77 175.78 99.23 175.78 96.00 176.00
C 87.92 176.55 86.10 178.92 78.31 182.31 C 70.51 185.69 70.59 178.05 78.08 175.08 C 85.56 172.10 88.77 169.31 97.00 169.00
C 100.11 168.56 102.93 168.50 106.00 169.00
M 154.00 211.00 
C 149.91 211.40 145.02 211.39 141.00 211.00
C 133.35 211.00 123.77 208.30 116.93 207.07 C 110.09 205.84 97.87 202.52 92.00 206.00 C 86.12 209.47 72.76 213.06 78.25 205.25 C 83.74 197.43 90.99 199.44 99.00 198.00 C 107.01 196.56 116.07 199.63 124.01 200.99 C 131.94 202.36 141.28 204.72 150.00 204.00 C 158.72 203.28 167.17 203.53 175.67 201.67 C 184.17 199.81 193.45 202.97 202.00 202.00 C 210.55 201.03 217.73 196.12 227.00 198.00
C 209.59 216.94 177.51 205.43 154.00 211.00 Z"/>
</g>
<g fill="None" fill-opacity="0.0" stroke="#010000" stroke-opacity="1.00" stroke-width="0.3"><path d="
M 171.00 144.00 
C 173.90 143.48 176.18 143.54 179.00 144.00
C 195.10 146.05 215.02 154.63 230.00 145.00
C 227.14 143.63 224.14 143.29 221.00 143.00
C 218.76 142.80 215.58 142.15 214.00 142.00
C 205.34 141.83 196.79 140.66 189.01 137.99 C 181.23 135.33 172.09 135.06 164.22 137.22 C 156.35 139.39 149.44 141.76 141.00 142.00 C 132.56 142.24 124.66 140.43 117.22 137.78 C 109.78 135.12 101.46 132.26 93.22 134.22 C 84.99 136.18 80.28 135.84 73.25 142.25 C 66.22 148.66 72.09 154.08 78.31 147.31 C 84.52 140.53 93.24 142.96 101.00 142.00 C 108.76 141.04 115.55 145.96 122.98 148.02 C 130.40 150.08 140.12 150.16 148.00 149.00 C 155.88 147.84 163.11 144.54 171.00 144.00 Z"/>
</g>
<g fill="None" fill-opacity="0.0" stroke="#786E5B" stroke-opacity="1.00" stroke-width="0.3"><path d="
M 221.00 143.00 
C 219.07 142.65 216.59 142.05 214.00 142.00
C 215.58 142.15 218.76 142.80 221.00 143.00 Z"/>
</g>
<g fill="None" fill-opacity="0.0" stroke="#8C7F69" stroke-opacity="1.00" stroke-width="0.3"><path d="
M 171.00 144.00 
C 173.60 143.82 176.40 143.86 179.00 144.00
C 176.18 143.54 173.90 143.48 171.00 144.00 Z"/>
</g>
<g fill="None" fill-opacity="0.0" stroke="#A78247" stroke-opacity="0.99" stroke-width="0.3"><path d="
M 275.00 168.00 
C 275.20 165.96 276.00 162.77 276.00 160.00
C 275.80 162.04 275.00 165.23 275.00 168.00 Z"/>
</g>
<g fill="None" fill-opacity="0.0" stroke="#766B59" stroke-opacity="1.00" stroke-width="0.3"><path d="
M 97.00 169.00 
C 99.96 168.89 103.05 168.84 106.00 169.00
C 102.93 168.50 100.11 168.56 97.00 169.00 Z"/>
</g>
<g fill="None" fill-opacity="0.0" stroke="#010000" stroke-opacity="1.00" stroke-width="0.3"><path d="
M 96.00 176.00 
C 99.49 175.38 102.57 175.39 106.00 176.00
C 115.51 176.65 123.29 182.47 133.00 183.00
C 136.63 183.20 140.37 183.07 144.00 183.00
C 155.17 182.78 163.55 179.42 174.33 177.33 C 185.11 175.24 197.28 179.00 208.00 179.00
C 212.33 179.00 216.67 179.00 221.00 179.00
C 228.75 179.00 239.53 178.73 243.00 171.00
C 227.29 170.23 210.82 173.19 195.00 170.00 C 179.18 166.81 165.10 170.94 150.01 175.01 C 134.92 179.08 120.44 169.78 106.00 169.00
C 103.05 168.84 99.96 168.89 97.00 169.00
C 88.77 169.31 85.56 172.10 78.08 175.08 C 70.59 178.05 70.51 185.69 78.31 182.31 C 86.10 178.92 87.92 176.55 96.00 176.00 Z"/>
</g>
<g fill="None" fill-opacity="0.0" stroke="#847863" stroke-opacity="1.00" stroke-width="0.3"><path d="
M 96.00 176.00 
C 99.23 175.78 102.77 175.78 106.00 176.00
C 102.57 175.39 99.49 175.38 96.00 176.00 Z"/>
</g>
<g fill="None" fill-opacity="0.0" stroke="#877B66" stroke-opacity="1.00" stroke-width="0.3"><path d="
M 221.00 179.00 
C 216.67 179.00 212.33 179.00 208.00 179.00
C 212.02 179.39 216.91 179.40 221.00 179.00 Z"/>
</g>
<g fill="None" fill-opacity="0.0" stroke="#B18744" stroke-opacity="1.00" stroke-width="0.3"><path d="
M 287.00 181.00 
C 283.15 180.03 280.90 182.11 282.00 186.00
C 284.87 186.17 285.94 183.03 287.00 181.00 Z"/>
</g>
<g fill="None" fill-opacity="0.0" stroke="#897D67" stroke-opacity="1.00" stroke-width="0.3"><path d="
M 144.00 183.00 
C 140.37 183.07 136.63 183.20 133.00 183.00
C 136.63 183.59 140.35 183.44 144.00 183.00 Z"/>
</g>
<g fill="None" fill-opacity="0.0" stroke="#B98D46" stroke-opacity="0.95" stroke-width="0.3"><path d="
M 29.00 187.00 
C 22.86 187.31 29.77 193.08 29.00 187.00 Z"/>
</g>
<g fill="None" fill-opacity="0.0" stroke="#FDC260" stroke-opacity="1.00" stroke-width="0.3"><path d="
M 299.00 189.00 
C 257.18 217.50 213.06 245.92 169.00 268.00
C 190.64 280.26 211.31 295.82 234.92 305.08 C 258.53 314.33 281.01 326.65 303.00 339.00
C 307.39 288.89 303.76 238.26 299.00 189.00 Z"/>
</g>
<g fill="None" fill-opacity="0.0" stroke="#000000" stroke-opacity="0.63" stroke-width="0.3"><path d="
M 7.00 205.00 
C 7.58 201.77 8.51 197.92 9.00 194.00
C 7.82 196.57 6.35 197.67 7.00 205.00 Z"/>
</g>
<g fill="None" fill-opacity="0.0" stroke="#010100" stroke-opacity="1.00" stroke-width="0.3"><path d="
M 141.00 211.00 
C 145.33 211.00 149.67 211.00 154.00 211.00
C 177.51 205.43 209.59 216.94 227.00 198.00
C 217.73 196.12 210.55 201.03 202.00 202.00 C 193.45 202.97 184.17 199.81 175.67 201.67 C 167.17 203.53 158.72 203.28 150.00 204.00 C 141.28 204.72 131.94 202.36 124.01 200.99 C 116.07 199.63 107.01 196.56 99.00 198.00 C 90.99 199.44 83.74 197.43 78.25 205.25 C 72.76 213.06 86.12 209.47 92.00 206.00 C 97.87 202.52 110.09 205.84 116.93 207.07 C 123.77 208.30 133.35 211.00 141.00 211.00 Z"/>
</g>
<g fill="None" fill-opacity="0.0" stroke="#FDC160" stroke-opacity="1.00" stroke-width="0.3"><path d="
M 94.00 303.00 
C 96.66 300.34 99.16 297.43 102.00 295.00
C 112.02 284.92 123.45 276.44 133.00 266.00
C 92.96 251.78 56.17 230.58 19.00 210.00
C 19.27 264.82 16.86 318.97 14.00 373.00
C 43.11 353.57 67.05 326.03 94.00 303.00 Z"/>
</g>
<g fill="None" fill-opacity="0.0" stroke="#7A6F5C" stroke-opacity="1.00" stroke-width="0.3"><path d="
M 154.00 211.00 
C 149.67 211.00 145.33 211.00 141.00 211.00
C 145.02 211.39 149.91 211.40 154.00 211.00 Z"/>
</g>
<g fill="None" fill-opacity="0.0" stroke="#FDC160" stroke-opacity="1.00" stroke-width="0.3"><path d="
M 117.00 299.00 
C 114.34 301.66 111.84 304.57 109.00 307.00
C 80.10 334.22 52.02 362.66 20.00 385.00
C 109.06 371.47 201.06 356.86 292.00 346.00
C 283.26 339.47 273.07 334.77 263.08 329.92 C 253.08 325.08 242.13 320.67 232.08 315.92 C 222.02 311.18 211.05 306.84 201.23 301.77 C 191.41 296.70 183.12 289.64 173.70 284.30 C 164.28 278.97 154.92 270.66 145.00 270.00
C 138.29 280.52 127.06 290.40 117.00 299.00 Z"/>
</g>
<g fill="None" fill-opacity="0.0" stroke="#73582C" stroke-opacity="1.00" stroke-width="0.3"><path d="
M 94.00 303.00 
C 96.84 300.57 99.34 297.66 102.00 295.00
C 99.16 297.43 96.66 300.34 94.00 303.00 Z"/>
</g>
<g fill="None" fill-opacity="0.0" stroke="#72572B" stroke-opacity="1.00" stroke-width="0.3"><path d="
M 109.00 307.00 
C 111.84 304.57 114.34 301.66 117.00 299.00
C 114.16 301.43 111.66 304.34 109.00 307.00 Z"/>
</g>
<g fill="#000000" fill-opacity="0.02" stroke="None">
<path d="
M 0.00 400.00 
L 320.00 400.00
L 320.00 0.00
L 0.00 0.00
L 0.00 400.00
M 7.00 205.00 
C 6.35 197.67 7.82 196.57 9.00 194.00
C 10.69 180.35 26.75 177.32 26.00 163.00 C 25.25 148.68 23.19 134.97 25.93 118.93 C 28.66 102.88 46.21 106.15 60.00 105.00 C 73.80 103.86 84.62 101.00 94.25 91.25 C 103.88 81.49 106.08 74.80 116.77 65.77 C 127.46 56.74 119.41 43.36 123.93 30.93 C 128.45 18.49 136.68 13.94 146.25 5.25 C 155.81 -3.44 169.20 6.36 176.25 14.75 C 183.29 23.15 193.97 36.64 189.22 48.22 C 184.47 59.80 197.34 64.07 205.25 73.75 C 213.16 83.43 220.48 87.19 229.25 97.75 C 238.01 108.32 251.96 108.74 267.00 108.00 C 282.04 107.26 288.67 122.45 284.00 137.00 C 279.33 151.55 294.89 156.59 301.92 167.08 C 308.95 177.57 314.01 186.84 313.93 201.07 C 313.84 215.30 318.50 230.10 318.00 245.00 C 317.49 259.90 319.14 276.98 319.00 292.00 C 318.86 307.02 316.84 322.41 316.07 337.07 C 315.30 351.74 305.39 359.61 290.99 359.99 C 276.60 360.38 262.24 363.77 247.99 364.99 C 233.74 366.21 219.81 368.95 205.78 370.78 C 191.75 372.61 177.64 374.87 163.78 376.78 C 149.92 378.69 135.54 380.84 121.93 382.93 C 108.31 385.02 93.18 386.72 79.98 388.98 C 66.77 391.23 51.43 393.75 38.98 395.98 C 26.52 398.20 7.87 404.20 3.02 389.98 C -1.82 375.75 3.38 361.07 3.00 346.00 C 2.62 330.93 5.30 315.36 5.00 300.00 C 4.70 284.64 7.28 269.51 7.00 254.00 C 6.72 238.49 8.37 220.62 7.00 205.00 Z"/>
</g>
<g fill="#000000" fill-opacity="0.99" stroke="None">
<path d="
M 9.00 194.00 
C 8.51 197.92 7.58 201.77 7.00 205.00
C 8.37 220.62 6.72 238.49 7.00 254.00 C 7.28 269.51 4.70 284.64 5.00 300.00 C 5.30 315.36 2.62 330.93 3.00 346.00 C 3.38 361.07 -1.82 375.75 3.02 389.98 C 7.87 404.20 26.52 398.20 38.98 395.98 C 51.43 393.75 66.77 391.23 79.98 388.98 C 93.18 386.72 108.31 385.02 121.93 382.93 C 135.54 380.84 149.92 378.69 163.78 376.78 C 177.64 374.87 191.75 372.61 205.78 370.78 C 219.81 368.95 233.74 366.21 247.99 364.99 C 262.24 363.77 276.60 360.38 290.99 359.99 C 305.39 359.61 315.30 351.74 316.07 337.07 C 316.84 322.41 318.86 307.02 319.00 292.00 C 319.14 276.98 317.49 259.90 318.00 245.00 C 318.50 230.10 313.84 215.30 313.93 201.07 C 314.01 186.84 308.95 177.57 301.92 167.08 C 294.89 156.59 279.33 151.55 284.00 137.00 C 288.67 122.45 282.04 107.26 267.00 108.00 C 251.96 108.74 238.01 108.32 229.25 97.75 C 220.48 87.19 213.16 83.43 205.25 73.75 C 197.34 64.07 184.47 59.80 189.22 48.22 C 193.97 36.64 183.29 23.15 176.25 14.75 C 169.20 6.36 155.81 -3.44 146.25 5.25 C 136.68 13.94 128.45 18.49 123.93 30.93 C 119.41 43.36 127.46 56.74 116.77 65.77 C 106.08 74.80 103.88 81.49 94.25 91.25 C 84.62 101.00 73.80 103.86 60.00 105.00 C 46.21 106.15 28.66 102.88 25.93 118.93 C 23.19 134.97 25.25 148.68 26.00 163.00 C 26.75 177.32 10.69 180.35 9.00 194.00
M 184.00 51.00 
C 174.77 45.56 167.17 28.31 155.00 30.00 C 142.83 31.69 136.98 47.18 127.00 53.00
C 121.53 44.34 126.47 28.89 132.75 22.75 C 139.03 16.62 146.26 4.59 155.23 4.23 C 164.20 3.87 171.60 16.55 177.92 22.08 C 184.23 27.62 190.75 43.59 184.00 51.00
M 157.00 45.00 
C 158.08 45.44 159.04 46.41 160.00 47.00
C 160.64 47.39 161.39 47.63 162.00 48.00
C 166.22 50.57 169.88 55.35 173.00 59.00
C 186.57 74.87 203.37 88.27 217.00 104.00
C 181.85 97.77 144.65 95.01 108.00 98.00
C 117.84 83.95 131.46 71.79 142.00 58.00
C 144.62 54.48 153.55 43.60 157.00 45.00
M 276.00 160.00 
C 276.00 162.77 275.20 165.96 275.00 168.00
C 275.00 181.59 276.03 196.83 262.75 202.75 C 249.48 208.68 243.50 213.70 231.92 219.92 C 220.35 226.15 211.92 229.19 201.30 236.30 C 190.68 243.41 182.67 247.69 171.31 254.31 C 159.94 260.92 146.51 259.67 134.77 255.23 C 123.03 250.79 110.05 248.48 98.98 243.02 C 87.90 237.57 79.81 231.01 68.92 226.08 C 58.03 221.15 49.98 212.53 40.00 207.00
C 42.04 193.04 37.19 179.11 36.00 164.00 C 34.82 148.88 32.31 131.23 36.00 116.00
C 46.51 116.14 57.16 116.45 67.01 114.01 C 76.86 111.57 86.71 110.89 97.00 110.00 C 107.29 109.11 117.85 107.73 128.22 107.22 C 138.59 106.72 151.73 106.61 162.00 107.00 C 172.27 107.39 181.03 110.18 191.02 110.98 C 201.02 111.78 211.97 113.12 221.67 114.33 C 231.37 115.54 243.64 116.81 253.00 117.00 C 262.36 117.19 278.16 114.93 277.00 127.00 C 275.84 139.07 275.79 147.90 276.00 160.00
M 287.00 181.00 
C 285.94 183.03 284.87 186.17 282.00 186.00
C 280.90 182.11 283.15 180.03 287.00 181.00
M 29.00 187.00 
C 29.77 193.08 22.86 187.31 29.00 187.00
M 299.00 189.00 
C 303.76 238.26 307.39 288.89 303.00 339.00
C 281.01 326.65 258.53 314.33 234.92 305.08 C 211.31 295.82 190.64 280.26 169.00 268.00
C 213.06 245.92 257.18 217.50 299.00 189.00
M 102.00 295.00 
C 99.34 297.66 96.84 300.57 94.00 303.00
C 67.05 326.03 43.11 353.57 14.00 373.00
C 16.86 318.97 19.27 264.82 19.00 210.00
C 56.17 230.58 92.96 251.78 133.00 266.00
C 123.45 276.44 112.02 284.92 102.00 295.00
M 109.00 307.00 
C 111.66 304.34 114.16 301.43 117.00 299.00
C 127.06 290.40 138.29 280.52 145.00 270.00
C 154.92 270.66 164.28 278.97 173.70 284.30 C 183.12 289.64 191.41 296.70 201.23 301.77 C 211.05 306.84 222.02 311.18 232.08 315.92 C 242.13 320.67 253.08 325.08 263.08 329.92 C 273.07 334.77 283.26 339.47 292.00 346.00
C 201.06 356.86 109.06 371.47 20.00 385.00
C 52.02 362.66 80.10 334.22 109.00 307.00 Z"/>
</g>
<g fill="#DD0000" fill-opacity="1.00" stroke="None">
<path d="
M 184.00 51.00 
C 190.75 43.59 184.23 27.62 177.92 22.08 C 171.60 16.55 164.20 3.87 155.23 4.23 C 146.26 4.59 139.03 16.62 132.75 22.75 C 126.47 28.89 121.53 44.34 127.00 53.00
C 136.98 47.18 142.83 31.69 155.00 30.00 C 167.17 28.31 174.77 45.56 184.00 51.00 Z"/>
</g>
<g fill="#892F16" fill-opacity="1.00" stroke="None">
<path d="
M 142.00 58.00 
C 144.18 55.50 153.83 44.53 157.00 45.00
C 153.55 43.60 144.62 54.48 142.00 58.00 Z"/>
</g>
<g fill="#FBC05F" fill-opacity="0.99" stroke="None">
<path d="
M 142.00 58.00 
C 131.46 71.79 117.84 83.95 108.00 98.00
C 144.65 95.01 181.85 97.77 217.00 104.00
C 203.37 88.27 186.57 74.87 173.00 59.00
C 172.84 58.77 172.00 59.00 172.00 59.00
C 167.16 56.63 163.80 50.48 160.00 47.00
C 159.04 46.41 158.08 45.44 157.00 45.00
C 153.83 44.53 144.18 55.50 142.00 58.00 Z"/>
</g>
<g fill="#E27F3F" fill-opacity="1.00" stroke="None">
<path d="
M 172.00 59.00 
C 169.38 55.25 165.28 51.06 162.00 48.00
C 161.39 47.63 160.64 47.39 160.00 47.00
C 163.80 50.48 167.16 56.63 172.00 59.00 Z"/>
</g>
<g fill="#260000" fill-opacity="1.00" stroke="None">
<path d="
M 172.00 59.00 
C 172.00 59.00 172.84 58.77 173.00 59.00
C 169.88 55.35 166.22 50.57 162.00 48.00
C 165.28 51.06 169.38 55.25 172.00 59.00 Z"/>
</g>
<g fill="#EBD6B1" fill-opacity="1.00" stroke="None">
<path d="
M 275.00 168.00 
C 275.00 165.23 275.80 162.04 276.00 160.00
C 275.79 147.90 275.84 139.07 277.00 127.00 C 278.16 114.93 262.36 117.19 253.00 117.00 C 243.64 116.81 231.37 115.54 221.67 114.33 C 211.97 113.12 201.02 111.78 191.02 110.98 C 181.03 110.18 172.27 107.39 162.00 107.00 C 151.73 106.61 138.59 106.72 128.22 107.22 C 117.85 107.73 107.29 109.11 97.00 110.00 C 86.71 110.89 76.86 111.57 67.01 114.01 C 57.16 116.45 46.51 116.14 36.00 116.00
C 32.31 131.23 34.82 148.88 36.00 164.00 C 37.19 179.11 42.04 193.04 40.00 207.00
C 49.98 212.53 58.03 221.15 68.92 226.08 C 79.81 231.01 87.90 237.57 98.98 243.02 C 110.05 248.48 123.03 250.79 134.77 255.23 C 146.51 259.67 159.94 260.92 171.31 254.31 C 182.67 247.69 190.68 243.41 201.30 236.30 C 211.92 229.19 220.35 226.15 231.92 219.92 C 243.50 213.70 249.48 208.68 262.75 202.75 C 276.03 196.83 275.00 181.59 275.00 168.00
M 214.00 142.00 
C 216.59 142.05 219.07 142.65 221.00 143.00
C 224.14 143.29 227.14 143.63 230.00 145.00
C 215.02 154.63 195.10 146.05 179.00 144.00
C 176.40 143.86 173.60 143.82 171.00 144.00
C 163.11 144.54 155.88 147.84 148.00 149.00 C 140.12 150.16 130.40 150.08 122.98 148.02 C 115.55 145.96 108.76 141.04 101.00 142.00 C 93.24 142.96 84.52 140.53 78.31 147.31 C 72.09 154.08 66.22 148.66 73.25 142.25 C 80.28 135.84 84.99 136.18 93.22 134.22 C 101.46 132.26 109.78 135.12 117.22 137.78 C 124.66 140.43 132.56 142.24 141.00 142.00 C 149.44 141.76 156.35 139.39 164.22 137.22 C 172.09 135.06 181.23 135.33 189.01 137.99 C 196.79 140.66 205.34 141.83 214.00 142.00
M 106.00 169.00 
C 120.44 169.78 134.92 179.08 150.01 175.01 C 165.10 170.94 179.18 166.81 195.00 170.00 C 210.82 173.19 227.29 170.23 243.00 171.00
C 239.53 178.73 228.75 179.00 221.00 179.00
C 216.91 179.40 212.02 179.39 208.00 179.00
C 197.28 179.00 185.11 175.24 174.33 177.33 C 163.55 179.42 155.17 182.78 144.00 183.00
C 140.35 183.44 136.63 183.59 133.00 183.00
C 123.29 182.47 115.51 176.65 106.00 176.00
C 102.77 175.78 99.23 175.78 96.00 176.00
C 87.92 176.55 86.10 178.92 78.31 182.31 C 70.51 185.69 70.59 178.05 78.08 175.08 C 85.56 172.10 88.77 169.31 97.00 169.00
C 100.11 168.56 102.93 168.50 106.00 169.00
M 154.00 211.00 
C 149.91 211.40 145.02 211.39 141.00 211.00
C 133.35 211.00 123.77 208.30 116.93 207.07 C 110.09 205.84 97.87 202.52 92.00 206.00 C 86.12 209.47 72.76 213.06 78.25 205.25 C 83.74 197.43 90.99 199.44 99.00 198.00 C 107.01 196.56 116.07 199.63 124.01 200.99 C 131.94 202.36 141.28 204.72 150.00 204.00 C 158.72 203.28 167.17 203.53 175.67 201.67 C 184.17 199.81 193.45 202.97 202.00 202.00 C 210.55 201.03 217.73 196.12 227.00 198.00
C 209.59 216.94 177.51 205.43 154.00 211.00 Z"/>
</g>
<g fill="#010000" fill-opacity="1.00" stroke="None">
<path d="
M 171.00 144.00 
C 173.90 143.48 176.18 143.54 179.00 144.00
C 195.10 146.05 215.02 154.63 230.00 145.00
C 227.14 143.63 224.14 143.29 221.00 143.00
C 218.76 142.80 215.58 142.15 214.00 142.00
C 205.34 141.83 196.79 140.66 189.01 137.99 C 181.23 135.33 172.09 135.06 164.22 137.22 C 156.35 139.39 149.44 141.76 141.00 142.00 C 132.56 142.24 124.66 140.43 117.22 137.78 C 109.78 135.12 101.46 132.26 93.22 134.22 C 84.99 136.18 80.28 135.84 73.25 142.25 C 66.22 148.66 72.09 154.08 78.31 147.31 C 84.52 140.53 93.24 142.96 101.00 142.00 C 108.76 141.04 115.55 145.96 122.98 148.02 C 130.40 150.08 140.12 150.16 148.00 149.00 C 155.88 147.84 163.11 144.54 171.00 144.00 Z"/>
</g>
<g fill="#786E5B" fill-opacity="1.00" stroke="None">
<path d="
M 221.00 143.00 
C 219.07 142.65 216.59 142.05 214.00 142.00
C 215.58 142.15 218.76 142.80 221.00 143.00 Z"/>
</g>
<g fill="#8C7F69" fill-opacity="1.00" stroke="None">
<path d="
M 171.00 144.00 
C 173.60 143.82 176.40 143.86 179.00 144.00
C 176.18 143.54 173.90 143.48 171.00 144.00 Z"/>
</g>
<g fill="#A78247" fill-opacity="0.99" stroke="None">
<path d="
M 275.00 168.00 
C 275.20 165.96 276.00 162.77 276.00 160.00
C 275.80 162.04 275.00 165.23 275.00 168.00 Z"/>
</g>
<g fill="#766B59" fill-opacity="1.00" stroke="None">
<path d="
M 97.00 169.00 
C 99.96 168.89 103.05 168.84 106.00 169.00
C 102.93 168.50 100.11 168.56 97.00 169.00 Z"/>
</g>
<g fill="#010000" fill-opacity="1.00" stroke="None">
<path d="
M 96.00 176.00 
C 99.49 175.38 102.57 175.39 106.00 176.00
C 115.51 176.65 123.29 182.47 133.00 183.00
C 136.63 183.20 140.37 183.07 144.00 183.00
C 155.17 182.78 163.55 179.42 174.33 177.33 C 185.11 175.24 197.28 179.00 208.00 179.00
C 212.33 179.00 216.67 179.00 221.00 179.00
C 228.75 179.00 239.53 178.73 243.00 171.00
C 227.29 170.23 210.82 173.19 195.00 170.00 C 179.18 166.81 165.10 170.94 150.01 175.01 C 134.92 179.08 120.44 169.78 106.00 169.00
C 103.05 168.84 99.96 168.89 97.00 169.00
C 88.77 169.31 85.56 172.10 78.08 175.08 C 70.59 178.05 70.51 185.69 78.31 182.31 C 86.10 178.92 87.92 176.55 96.00 176.00 Z"/>
</g>
<g fill="#847863" fill-opacity="1.00" stroke="None">
<path d="
M 96.00 176.00 
C 99.23 175.78 102.77 175.78 106.00 176.00
C 102.57 175.39 99.49 175.38 96.00 176.00 Z"/>
</g>
<g fill="#877B66" fill-opacity="1.00" stroke="None">
<path d="
M 221.00 179.00 
C 216.67 179.00 212.33 179.00 208.00 179.00
C 212.02 179.39 216.91 179.40 221.00 179.00 Z"/>
</g>
<g fill="#B18744" fill-opacity="1.00" stroke="None">
<path d="
M 287.00 181.00 
C 283.15 180.03 280.90 182.11 282.00 186.00
C 284.87 186.17 285.94 183.03 287.00 181.00 Z"/>
</g>
<g fill="#897D67" fill-opacity="1.00" stroke="None">
<path d="
M 144.00 183.00 
C 140.37 183.07 136.63 183.20 133.00 183.00
C 136.63 183.59 140.35 183.44 144.00 183.00 Z"/>
</g>
<g fill="#B98D46" fill-opacity="0.95" stroke="None">
<path d="
M 29.00 187.00 
C 22.86 187.31 29.77 193.08 29.00 187.00 Z"/>
</g>
<g fill="#FDC260" fill-opacity="1.00" stroke="None">
<path d="
M 299.00 189.00 
C 257.18 217.50 213.06 245.92 169.00 268.00
C 190.64 280.26 211.31 295.82 234.92 305.08 C 258.53 314.33 281.01 326.65 303.00 339.00
C 307.39 288.89 303.76 238.26 299.00 189.00 Z"/>
</g>
<g fill="#000000" fill-opacity="0.63" stroke="None">
<path d="
M 7.00 205.00 
C 7.58 201.77 8.51 197.92 9.00 194.00
C 7.82 196.57 6.35 197.67 7.00 205.00 Z"/>
</g>
<g fill="#010100" fill-opacity="1.00" stroke="None">
<path d="
M 141.00 211.00 
C 145.33 211.00 149.67 211.00 154.00 211.00
C 177.51 205.43 209.59 216.94 227.00 198.00
C 217.73 196.12 210.55 201.03 202.00 202.00 C 193.45 202.97 184.17 199.81 175.67 201.67 C 167.17 203.53 158.72 203.28 150.00 204.00 C 141.28 204.72 131.94 202.36 124.01 200.99 C 116.07 199.63 107.01 196.56 99.00 198.00 C 90.99 199.44 83.74 197.43 78.25 205.25 C 72.76 213.06 86.12 209.47 92.00 206.00 C 97.87 202.52 110.09 205.84 116.93 207.07 C 123.77 208.30 133.35 211.00 141.00 211.00 Z"/>
</g>
<g fill="#FDC160" fill-opacity="1.00" stroke="None">
<path d="
M 94.00 303.00 
C 96.66 300.34 99.16 297.43 102.00 295.00
C 112.02 284.92 123.45 276.44 133.00 266.00
C 92.96 251.78 56.17 230.58 19.00 210.00
C 19.27 264.82 16.86 318.97 14.00 373.00
C 43.11 353.57 67.05 326.03 94.00 303.00 Z"/>
</g>
<g fill="#7A6F5C" fill-opacity="1.00" stroke="None">
<path d="
M 154.00 211.00 
C 149.67 211.00 145.33 211.00 141.00 211.00
C 145.02 211.39 149.91 211.40 154.00 211.00 Z"/>
</g>
<g fill="#FDC160" fill-opacity="1.00" stroke="None">
<path d="
M 117.00 299.00 
C 114.34 301.66 111.84 304.57 109.00 307.00
C 80.10 334.22 52.02 362.66 20.00 385.00
C 109.06 371.47 201.06 356.86 292.00 346.00
C 283.26 339.47 273.07 334.77 263.08 329.92 C 253.08 325.08 242.13 320.67 232.08 315.92 C 222.02 311.18 211.05 306.84 201.23 301.77 C 191.41 296.70 183.12 289.64 173.70 284.30 C 164.28 278.97 154.92 270.66 145.00 270.00
C 138.29 280.52 127.06 290.40 117.00 299.00 Z"/>
</g>
<g fill="#73582C" fill-opacity="1.00" stroke="None">
<path d="
M 94.00 303.00 
C 96.84 300.57 99.34 297.66 102.00 295.00
C 99.16 297.43 96.66 300.34 94.00 303.00 Z"/>
</g>
<g fill="#72572B" fill-opacity="1.00" stroke="None">
<path d="
M 109.00 307.00 
C 111.84 304.57 114.34 301.66 117.00 299.00
C 114.16 301.43 111.66 304.34 109.00 307.00 Z"/>
</g>
</svg>