<svg xmlns="http://www.w3.org/2000/svg" xmlns:v="https://svgstorm.com"
viewBox = "0 0 286 260"
width="286"
height="260">
<g fill="None" fill-opacity="0.0" stroke="#000000" stroke-opacity="0.01" stroke-width="0.3"><path d="
M 0.00 260.00 
L 286.00 260.00
L 286.00 0.00
L 0.00 0.00
L 0.00 260.00
M 86.00 2.00 
C 100.14 2.77 119.36 12.60 130.00 22.00
C 133.29 23.78 139.07 28.67 142.00 33.00
C 143.25 32.70 143.71 31.17 145.00 31.00
C 148.60 28.43 151.36 23.71 155.00 21.00
C 171.91 8.43 186.80 3.44 208.00 2.00
C 212.32 1.23 216.77 1.40 221.00 2.00
C 234.97 2.53 246.12 6.33 257.00 15.00
C 259.74 16.60 264.13 20.37 267.00 24.00
C 278.36 38.39 282.49 56.75 283.00 75.00
C 283.17 76.47 283.94 78.90 284.00 81.00
C 285.22 124.43 262.93 163.01 234.00 194.00
C 229.80 200.49 220.99 209.03 214.00 215.00
C 205.88 221.94 198.09 229.72 189.00 235.00
C 183.94 237.94 178.77 241.66 174.00 245.00
C 171.49 246.76 168.92 247.84 166.00 249.00
C 157.53 252.36 150.59 258.00 141.00 258.00
C 138.74 258.17 137.46 258.81 135.00 258.00
C 127.84 256.71 119.27 249.38 113.00 246.00
C 99.77 238.86 87.53 225.74 77.00 215.00
C 75.24 213.20 74.08 212.37 72.00 211.00
C 64.47 206.04 56.51 199.41 51.00 192.00
C 38.95 175.80 28.86 162.45 19.75 144.25 C 10.63 126.06 1.42 105.20 1.01 83.99 C 0.59 62.78 13.25 45.46 25.00 29.00
C 27.63 25.31 31.42 21.66 35.00 19.00
C 47.14 9.97 58.37 2.60 74.00 2.00
C 77.99 1.43 82.05 1.36 86.00 2.00 Z"/>
</g>
<g fill="None" fill-opacity="0.0" stroke="#000000" stroke-opacity="0.85" stroke-width="0.3"><path d="
M 74.00 2.00 
C 77.94 1.85 82.06 1.79 86.00 2.00
C 82.05 1.36 77.99 1.43 74.00 2.00 Z"/>
</g>
<g fill="None" fill-opacity="0.0" stroke="#000000" stroke-opacity="0.47" stroke-width="0.3"><path d="
M 208.00 2.00 
C 212.24 1.71 216.75 1.84 221.00 2.00
C 216.77 1.40 212.32 1.23 208.00 2.00 Z"/>
</g>
<g fill="None" fill-opacity="0.0" stroke="#000000" stroke-opacity="1.00" stroke-width="0.3"><path d="
M 35.00 19.00 
C 31.89 21.71 27.60 25.90 25.00 29.00
C 13.25 45.46 0.59 62.78 1.01 83.99 C 1.42 105.20 10.63 126.06 19.75 144.25 C 28.86 162.45 38.95 175.80 51.00 192.00
C 56.97 198.85 65.23 205.33 72.00 211.00
C 74.08 212.37 75.24 213.20 77.00 215.00
C 89.27 224.40 100.31 237.38 113.00 246.00
C 119.27 249.38 127.84 256.71 135.00 258.00
C 136.86 258.33 139.10 258.00 141.00 258.00
C 150.59 258.00 157.53 252.36 166.00 249.00
C 168.44 247.69 171.48 246.33 174.00 245.00
C 178.77 241.66 183.94 237.94 189.00 235.00
C 198.73 227.91 207.63 219.01 217.00 211.00
C 223.09 205.80 228.75 199.62 234.00 194.00
C 262.93 163.01 285.22 124.43 284.00 81.00
C 283.83 79.53 283.06 77.10 283.00 75.00
C 282.49 56.75 278.36 38.39 267.00 24.00
C 264.13 20.89 260.11 17.48 257.00 15.00
C 246.12 6.33 234.97 2.53 221.00 2.00
C 216.75 1.84 212.24 1.71 208.00 2.00
C 186.80 3.44 171.91 8.43 155.00 21.00
C 151.86 23.74 147.67 27.89 145.00 31.00
C 143.78 32.42 144.89 33.95 142.00 34.00
C 139.19 34.04 132.59 25.04 131.00 23.00
C 130.68 22.80 130.26 22.23 130.00 22.00
C 119.36 12.60 100.14 2.77 86.00 2.00
C 82.06 1.79 77.94 1.85 74.00 2.00
C 58.37 2.60 47.14 9.97 35.00 19.00
M 194.00 18.00 
C 194.50 18.05 195.00 18.00 195.00 18.00
C 202.40 12.52 221.21 16.45 230.01 16.99 C 238.81 17.53 248.57 24.82 254.25 31.75 C 259.92 38.69 266.78 48.71 267.00 58.00
C 267.01 58.50 267.00 59.00 267.00 59.00
C 270.24 66.42 269.81 78.61 270.00 87.00 C 270.19 95.39 271.15 107.66 266.00 114.00
C 265.92 114.49 266.00 115.00 266.00 115.00
C 265.52 127.64 254.48 140.77 248.70 151.70 C 242.92 162.62 233.13 173.48 225.00 183.00
C 223.13 185.19 220.99 187.06 219.00 189.00
C 216.12 192.27 212.55 195.97 209.00 199.00
C 207.00 201.00 205.13 203.18 203.00 205.00
C 193.01 213.53 182.23 222.40 171.25 229.25 C 160.27 236.11 144.93 247.42 133.31 239.69 C 121.68 231.97 110.55 225.42 100.75 215.25 C 90.96 205.07 80.73 197.47 70.00 189.00
C 66.99 186.63 64.43 183.84 62.00 181.00
C 47.91 164.51 37.38 146.52 27.23 127.77 C 17.07 109.02 11.02 75.74 22.77 57.77 C 34.52 39.80 45.37 16.55 69.00 16.00
C 69.50 15.99 70.00 16.00 70.00 16.00
C 72.22 14.36 76.06 15.00 79.00 15.00
C 80.00 15.00 81.00 15.03 82.00 15.00
C 94.52 14.66 103.98 21.92 114.75 27.25 C 125.51 32.58 129.73 39.33 139.75 47.25 C 149.76 55.18 153.71 38.98 162.25 32.25 C 170.79 25.52 181.91 16.86 194.00 18.00 Z"/>
</g>
<g fill="None" fill-opacity="0.0" stroke="#000000" stroke-opacity="0.37" stroke-width="0.3"><path d="
M 257.00 15.00 
C 260.11 17.48 264.13 20.89 267.00 24.00
C 264.13 20.37 259.74 16.60 257.00 15.00 Z"/>
</g>
<g fill="None" fill-opacity="0.0" stroke="#9A0000" stroke-opacity="0.92" stroke-width="0.3"><path d="
M 70.00 16.00 
C 73.29 16.00 76.38 15.58 79.00 15.00
C 76.06 15.00 72.22 14.36 70.00 16.00 Z"/>
</g>
<g fill="None" fill-opacity="0.0" stroke="#E10000" stroke-opacity="1.00" stroke-width="0.3"><path d="
M 70.00 16.00 
C 70.00 16.00 69.50 15.99 69.00 16.00
C 59.19 21.36 48.71 23.98 40.75 33.75 C 32.79 43.53 27.48 50.54 21.70 61.70 C 15.92 72.86 16.04 89.93 19.00 102.00 C 21.95 114.08 26.99 124.80 32.77 135.23 C 38.55 145.66 43.59 155.20 50.30 164.70 C 57.02 174.20 63.93 181.73 72.70 189.30 C 81.47 196.87 89.86 202.36 98.23 210.77 C 106.60 219.18 113.45 224.49 123.08 231.92 C 132.71 239.34 142.77 244.37 153.23 237.23 C 163.69 230.09 173.67 227.92 182.75 219.75 C 191.83 211.57 199.83 206.87 208.25 198.25 C 216.66 189.63 223.21 182.56 230.92 173.92 C 238.63 165.28 243.26 155.18 250.30 146.30 C 257.35 137.43 259.34 123.19 266.00 115.00
C 266.00 115.00 265.92 114.49 266.00 114.00
C 267.46 105.10 269.23 96.49 269.00 87.00 C 268.77 77.51 266.38 68.26 267.00 59.00
C 267.00 59.00 267.01 58.50 267.00 58.00
C 259.82 44.86 257.80 33.63 243.92 24.08 C 230.04 14.53 211.41 18.00 195.00 18.00
C 195.00 18.00 194.50 18.05 194.00 18.00
C 188.96 21.73 176.71 20.04 171.92 25.92 C 167.13 31.80 159.62 34.18 155.75 40.75 C 151.88 47.32 146.98 54.62 139.92 49.08 C 132.86 43.54 129.75 40.03 123.75 34.25 C 117.75 28.46 111.66 27.35 104.92 23.08 C 98.19 18.80 89.30 16.60 82.00 15.00
C 81.00 15.03 80.00 15.00 79.00 15.00
C 76.38 15.58 73.29 16.00 70.00 16.00 Z"/>
</g>
<g fill="None" fill-opacity="0.0" stroke="#920000" stroke-opacity="0.94" stroke-width="0.3"><path d="
M 194.00 18.00 
C 181.91 16.86 170.79 25.52 162.25 32.25 C 153.71 38.98 149.76 55.18 139.75 47.25 C 129.73 39.33 125.51 32.58 114.75 27.25 C 103.98 21.92 94.52 14.66 82.00 15.00
C 89.30 16.60 98.19 18.80 104.92 23.08 C 111.66 27.35 117.75 28.46 123.75 34.25 C 129.75 40.03 132.86 43.54 139.92 49.08 C 146.98 54.62 151.88 47.32 155.75 40.75 C 159.62 34.18 167.13 31.80 171.92 25.92 C 176.71 20.04 188.96 21.73 194.00 18.00 Z"/>
</g>
<g fill="None" fill-opacity="0.0" stroke="#920000" stroke-opacity="0.94" stroke-width="0.3"><path d="
M 62.00 181.00 
C 64.53 183.53 67.44 186.63 70.00 189.00
C 80.73 197.47 90.96 205.07 100.75 215.25 C 110.55 225.42 121.68 231.97 133.31 239.69 C 144.93 247.42 160.27 236.11 171.25 229.25 C 182.23 222.40 193.01 213.53 203.00 205.00
C 205.00 203.00 206.87 200.82 209.00 199.00
C 212.55 195.97 216.12 192.27 219.00 189.00
C 220.88 186.87 223.06 184.94 225.00 183.00
C 233.13 173.48 242.92 162.62 248.70 151.70 C 254.48 140.77 265.52 127.64 266.00 115.00
C 259.34 123.19 257.35 137.43 250.30 146.30 C 243.26 155.18 238.63 165.28 230.92 173.92 C 223.21 182.56 216.66 189.63 208.25 198.25 C 199.83 206.87 191.83 211.57 182.75 219.75 C 173.67 227.92 163.69 230.09 153.23 237.23 C 142.77 244.37 132.71 239.34 123.08 231.92 C 113.45 224.49 106.60 219.18 98.23 210.77 C 89.86 202.36 81.47 196.87 72.70 189.30 C 63.93 181.73 57.02 174.20 50.30 164.70 C 43.59 155.20 38.55 145.66 32.77 135.23 C 26.99 124.80 21.95 114.08 19.00 102.00 C 16.04 89.93 15.92 72.86 21.70 61.70 C 27.48 50.54 32.79 43.53 40.75 33.75 C 48.71 23.98 59.19 21.36 69.00 16.00
C 45.37 16.55 34.52 39.80 22.77 57.77 C 11.02 75.74 17.07 109.02 27.23 127.77 C 37.38 146.52 47.91 164.51 62.00 181.00 Z"/>
</g>
<g fill="None" fill-opacity="0.0" stroke="#8C0000" stroke-opacity="0.95" stroke-width="0.3"><path d="
M 195.00 18.00 
C 211.41 18.00 230.04 14.53 243.92 24.08 C 257.80 33.63 259.82 44.86 267.00 58.00
C 266.78 48.71 259.92 38.69 254.25 31.75 C 248.57 24.82 238.81 17.53 230.01 16.99 C 221.21 16.45 202.40 12.52 195.00 18.00 Z"/>
</g>
<g fill="None" fill-opacity="0.0" stroke="#000000" stroke-opacity="0.57" stroke-width="0.3"><path d="
M 25.00 29.00 
C 27.60 25.90 31.89 21.71 35.00 19.00
C 31.42 21.66 27.63 25.31 25.00 29.00 Z"/>
</g>
<g fill="None" fill-opacity="0.0" stroke="#000000" stroke-opacity="0.26" stroke-width="0.3"><path d="
M 130.00 22.00 
C 130.26 22.23 130.68 22.80 131.00 23.00
C 133.50 24.55 139.84 33.87 142.00 34.00
C 144.89 33.95 143.78 32.42 145.00 31.00
C 143.71 31.17 143.25 32.70 142.00 33.00
C 139.07 28.67 133.29 23.78 130.00 22.00 Z"/>
</g>
<g fill="None" fill-opacity="0.0" stroke="#000000" stroke-opacity="0.60" stroke-width="0.3"><path d="
M 145.00 31.00 
C 147.67 27.89 151.86 23.74 155.00 21.00
C 151.36 23.71 148.60 28.43 145.00 31.00 Z"/>
</g>
<g fill="None" fill-opacity="0.0" stroke="#000000" stroke-opacity="0.76" stroke-width="0.3"><path d="
M 142.00 34.00 
C 139.84 33.87 133.50 24.55 131.00 23.00
C 132.59 25.04 139.19 34.04 142.00 34.00 Z"/>
</g>
<g fill="None" fill-opacity="0.0" stroke="#930000" stroke-opacity="0.94" stroke-width="0.3"><path d="
M 266.00 114.00 
C 271.15 107.66 270.19 95.39 270.00 87.00 C 269.81 78.61 270.24 66.42 267.00 59.00
C 266.38 68.26 268.77 77.51 269.00 87.00 C 269.23 96.49 267.46 105.10 266.00 114.00 Z"/>
</g>
<g fill="None" fill-opacity="0.0" stroke="#000000" stroke-opacity="0.84" stroke-width="0.3"><path d="
M 284.00 81.00 
C 283.94 78.90 283.17 76.47 283.00 75.00
C 283.06 77.10 283.83 79.53 284.00 81.00 Z"/>
</g>
<g fill="None" fill-opacity="0.0" stroke="#340000" stroke-opacity="1.00" stroke-width="0.3"><path d="
M 70.00 189.00 
C 67.44 186.63 64.53 183.53 62.00 181.00
C 64.43 183.84 66.99 186.63 70.00 189.00 Z"/>
</g>
<g fill="None" fill-opacity="0.0" stroke="#340000" stroke-opacity="1.00" stroke-width="0.3"><path d="
M 219.00 189.00 
C 220.99 187.06 223.13 185.19 225.00 183.00
C 223.06 184.94 220.88 186.87 219.00 189.00 Z"/>
</g>
<g fill="None" fill-opacity="0.0" stroke="#000000" stroke-opacity="0.50" stroke-width="0.3"><path d="
M 72.00 211.00 
C 65.23 205.33 56.97 198.85 51.00 192.00
C 56.51 199.41 64.47 206.04 72.00 211.00 Z"/>
</g>
<g fill="None" fill-opacity="0.0" stroke="#000000" stroke-opacity="0.34" stroke-width="0.3"><path d="
M 217.00 211.00 
C 215.91 212.13 215.04 213.92 214.00 215.00
C 220.99 209.03 229.80 200.49 234.00 194.00
C 228.75 199.62 223.09 205.80 217.00 211.00 Z"/>
</g>
<g fill="None" fill-opacity="0.0" stroke="#340000" stroke-opacity="1.00" stroke-width="0.3"><path d="
M 203.00 205.00 
C 205.13 203.18 207.00 201.00 209.00 199.00
C 206.87 200.82 205.00 203.00 203.00 205.00 Z"/>
</g>
<g fill="None" fill-opacity="0.0" stroke="#000000" stroke-opacity="0.55" stroke-width="0.3"><path d="
M 189.00 235.00 
C 198.09 229.72 205.88 221.94 214.00 215.00
C 215.04 213.92 215.91 212.13 217.00 211.00
C 207.63 219.01 198.73 227.91 189.00 235.00 Z"/>
</g>
<g fill="None" fill-opacity="0.0" stroke="#000000" stroke-opacity="0.50" stroke-width="0.3"><path d="
M 113.00 246.00 
C 100.31 237.38 89.27 224.40 77.00 215.00
C 87.53 225.74 99.77 238.86 113.00 246.00 Z"/>
</g>
<g fill="None" fill-opacity="0.0" stroke="#000000" stroke-opacity="0.46" stroke-width="0.3"><path d="
M 166.00 249.00 
C 168.92 247.84 171.49 246.76 174.00 245.00
C 171.48 246.33 168.44 247.69 166.00 249.00 Z"/>
</g>
<g fill="None" fill-opacity="0.0" stroke="#000000" stroke-opacity="0.51" stroke-width="0.3"><path d="
M 141.00 258.00 
C 139.10 258.00 136.86 258.33 135.00 258.00
C 137.46 258.81 138.74 258.17 141.00 258.00 Z"/>
</g>
<g fill="#000000" fill-opacity="0.01" stroke="None">
<path d="
M 0.00 260.00 
L 286.00 260.00
L 286.00 0.00
L 0.00 0.00
L 0.00 260.00
M 86.00 2.00 
C 100.14 2.77 119.36 12.60 130.00 22.00
C 133.29 23.78 139.07 28.67 142.00 33.00
C 143.25 32.70 143.71 31.17 145.00 31.00
C 148.60 28.43 151.36 23.71 155.00 21.00
C 171.91 8.43 186.80 3.44 208.00 2.00
C 212.32 1.23 216.77 1.40 221.00 2.00
C 234.97 2.53 246.12 6.33 257.00 15.00
C 259.74 16.60 264.13 20.37 267.00 24.00
C 278.36 38.39 282.49 56.75 283.00 75.00
C 283.17 76.47 283.94 78.90 284.00 81.00
C 285.22 124.43 262.93 163.01 234.00 194.00
C 229.80 200.49 220.99 209.03 214.00 215.00
C 205.88 221.94 198.09 229.72 189.00 235.00
C 183.94 237.94 178.77 241.66 174.00 245.00
C 171.49 246.76 168.92 247.84 166.00 249.00
C 157.53 252.36 150.59 258.00 141.00 258.00
C 138.74 258.17 137.46 258.81 135.00 258.00
C 127.84 256.71 119.27 249.38 113.00 246.00
C 99.77 238.86 87.53 225.74 77.00 215.00
C 75.24 213.20 74.08 212.37 72.00 211.00
C 64.47 206.04 56.51 199.41 51.00 192.00
C 38.95 175.80 28.86 162.45 19.75 144.25 C 10.63 126.06 1.42 105.20 1.01 83.99 C 0.59 62.78 13.25 45.46 25.00 29.00
C 27.63 25.31 31.42 21.66 35.00 19.00
C 47.14 9.97 58.37 2.60 74.00 2.00
C 77.99 1.43 82.05 1.36 86.00 2.00 Z"/>
</g>
<g fill="#000000" fill-opacity="0.85" stroke="None">
<path d="
M 74.00 2.00 
C 77.94 1.85 82.06 1.79 86.00 2.00
C 82.05 1.36 77.99 1.43 74.00 2.00 Z"/>
</g>
<g fill="#000000" fill-opacity="0.47" stroke="None">
<path d="
M 208.00 2.00 
C 212.24 1.71 216.75 1.84 221.00 2.00
C 216.77 1.40 212.32 1.23 208.00 2.00 Z"/>
</g>
<g fill="#000000" fill-opacity="1.00" stroke="None">
<path d="
M 35.00 19.00 
C 31.89 21.71 27.60 25.90 25.00 29.00
C 13.25 45.46 0.59 62.78 1.01 83.99 C 1.42 105.20 10.63 126.06 19.75 144.25 C 28.86 162.45 38.95 175.80 51.00 192.00
C 56.97 198.85 65.23 205.33 72.00 211.00
C 74.08 212.37 75.24 213.20 77.00 215.00
C 89.27 224.40 100.31 237.38 113.00 246.00
C 119.27 249.38 127.84 256.71 135.00 258.00
C 136.86 258.33 139.10 258.00 141.00 258.00
C 150.59 258.00 157.53 252.36 166.00 249.00
C 168.44 247.69 171.48 246.33 174.00 245.00
C 178.77 241.66 183.94 237.94 189.00 235.00
C 198.73 227.91 207.63 219.01 217.00 211.00
C 223.09 205.80 228.75 199.62 234.00 194.00
C 262.93 163.01 285.22 124.43 284.00 81.00
C 283.83 79.53 283.06 77.10 283.00 75.00
C 282.49 56.75 278.36 38.39 267.00 24.00
C 264.13 20.89 260.11 17.48 257.00 15.00
C 246.12 6.33 234.97 2.53 221.00 2.00
C 216.75 1.84 212.24 1.71 208.00 2.00
C 186.80 3.44 171.91 8.43 155.00 21.00
C 151.86 23.74 147.67 27.89 145.00 31.00
C 143.78 32.42 144.89 33.95 142.00 34.00
C 139.19 34.04 132.59 25.04 131.00 23.00
C 130.68 22.80 130.26 22.23 130.00 22.00
C 119.36 12.60 100.14 2.77 86.00 2.00
C 82.06 1.79 77.94 1.85 74.00 2.00
C 58.37 2.60 47.14 9.97 35.00 19.00
M 194.00 18.00 
C 194.50 18.05 195.00 18.00 195.00 18.00
C 202.40 12.52 221.21 16.45 230.01 16.99 C 238.81 17.53 248.57 24.82 254.25 31.75 C 259.92 38.69 266.78 48.71 267.00 58.00
C 267.01 58.50 267.00 59.00 267.00 59.00
C 270.24 66.42 269.81 78.61 270.00 87.00 C 270.19 95.39 271.15 107.66 266.00 114.00
C 265.92 114.49 266.00 115.00 266.00 115.00
C 265.52 127.64 254.48 140.77 248.70 151.70 C 242.92 162.62 233.13 173.48 225.00 183.00
C 223.13 185.19 220.99 187.06 219.00 189.00
C 216.12 192.27 212.55 195.97 209.00 199.00
C 207.00 201.00 205.13 203.18 203.00 205.00
C 193.01 213.53 182.23 222.40 171.25 229.25 C 160.27 236.11 144.93 247.42 133.31 239.69 C 121.68 231.97 110.55 225.42 100.75 215.25 C 90.96 205.07 80.73 197.47 70.00 189.00
C 66.99 186.63 64.43 183.84 62.00 181.00
C 47.91 164.51 37.38 146.52 27.23 127.77 C 17.07 109.02 11.02 75.74 22.77 57.77 C 34.52 39.80 45.37 16.55 69.00 16.00
C 69.50 15.99 70.00 16.00 70.00 16.00
C 72.22 14.36 76.06 15.00 79.00 15.00
C 80.00 15.00 81.00 15.03 82.00 15.00
C 94.52 14.66 103.98 21.92 114.75 27.25 C 125.51 32.58 129.73 39.33 139.75 47.25 C 149.76 55.18 153.71 38.98 162.25 32.25 C 170.79 25.52 181.91 16.86 194.00 18.00 Z"/>
</g>
<g fill="#000000" fill-opacity="0.37" stroke="None">
<path d="
M 257.00 15.00 
C 260.11 17.48 264.13 20.89 267.00 24.00
C 264.13 20.37 259.74 16.60 257.00 15.00 Z"/>
</g>
<g fill="#9A0000" fill-opacity="0.92" stroke="None">
<path d="
M 70.00 16.00 
C 73.29 16.00 76.38 15.58 79.00 15.00
C 76.06 15.00 72.22 14.36 70.00 16.00 Z"/>
</g>
<g fill="#E10000" fill-opacity="1.00" stroke="None">
<path d="
M 70.00 16.00 
C 70.00 16.00 69.50 15.99 69.00 16.00
C 59.19 21.36 48.71 23.98 40.75 33.75 C 32.79 43.53 27.48 50.54 21.70 61.70 C 15.92 72.86 16.04 89.93 19.00 102.00 C 21.95 114.08 26.99 124.80 32.77 135.23 C 38.55 145.66 43.59 155.20 50.30 164.70 C 57.02 174.20 63.93 181.73 72.70 189.30 C 81.47 196.87 89.86 202.36 98.23 210.77 C 106.60 219.18 113.45 224.49 123.08 231.92 C 132.71 239.34 142.77 244.37 153.23 237.23 C 163.69 230.09 173.67 227.92 182.75 219.75 C 191.83 211.57 199.83 206.87 208.25 198.25 C 216.66 189.63 223.21 182.56 230.92 173.92 C 238.63 165.28 243.26 155.18 250.30 146.30 C 257.35 137.43 259.34 123.19 266.00 115.00
C 266.00 115.00 265.92 114.49 266.00 114.00
C 267.46 105.10 269.23 96.49 269.00 87.00 C 268.77 77.51 266.38 68.26 267.00 59.00
C 267.00 59.00 267.01 58.50 267.00 58.00
C 259.82 44.86 257.80 33.63 243.92 24.08 C 230.04 14.53 211.41 18.00 195.00 18.00
C 195.00 18.00 194.50 18.05 194.00 18.00
C 188.96 21.73 176.71 20.04 171.92 25.92 C 167.13 31.80 159.62 34.18 155.75 40.75 C 151.88 47.32 146.98 54.62 139.92 49.08 C 132.86 43.54 129.75 40.03 123.75 34.25 C 117.75 28.46 111.66 27.35 104.92 23.08 C 98.19 18.80 89.30 16.60 82.00 15.00
C 81.00 15.03 80.00 15.00 79.00 15.00
C 76.38 15.58 73.29 16.00 70.00 16.00 Z"/>
</g>
<g fill="#920000" fill-opacity="0.94" stroke="None">
<path d="
M 194.00 18.00 
C 181.91 16.86 170.79 25.52 162.25 32.25 C 153.71 38.98 149.76 55.18 139.75 47.25 C 129.73 39.33 125.51 32.58 114.75 27.25 C 103.98 21.92 94.52 14.66 82.00 15.00
C 89.30 16.60 98.19 18.80 104.92 23.08 C 111.66 27.35 117.75 28.46 123.75 34.25 C 129.75 40.03 132.86 43.54 139.92 49.08 C 146.98 54.62 151.88 47.32 155.75 40.75 C 159.62 34.18 167.13 31.80 171.92 25.92 C 176.71 20.04 188.96 21.73 194.00 18.00 Z"/>
</g>
<g fill="#920000" fill-opacity="0.94" stroke="None">
<path d="
M 62.00 181.00 
C 64.53 183.53 67.44 186.63 70.00 189.00
C 80.73 197.47 90.96 205.07 100.75 215.25 C 110.55 225.42 121.68 231.97 133.31 239.69 C 144.93 247.42 160.27 236.11 171.25 229.25 C 182.23 222.40 193.01 213.53 203.00 205.00
C 205.00 203.00 206.87 200.82 209.00 199.00
C 212.55 195.97 216.12 192.27 219.00 189.00
C 220.88 186.87 223.06 184.94 225.00 183.00
C 233.13 173.48 242.92 162.62 248.70 151.70 C 254.48 140.77 265.52 127.64 266.00 115.00
C 259.34 123.19 257.35 137.43 250.30 146.30 C 243.26 155.18 238.63 165.28 230.92 173.92 C 223.21 182.56 216.66 189.63 208.25 198.25 C 199.83 206.87 191.83 211.57 182.75 219.75 C 173.67 227.92 163.69 230.09 153.23 237.23 C 142.77 244.37 132.71 239.34 123.08 231.92 C 113.45 224.49 106.60 219.18 98.23 210.77 C 89.86 202.36 81.47 196.87 72.70 189.30 C 63.93 181.73 57.02 174.20 50.30 164.70 C 43.59 155.20 38.55 145.66 32.77 135.23 C 26.99 124.80 21.95 114.08 19.00 102.00 C 16.04 89.93 15.92 72.86 21.70 61.70 C 27.48 50.54 32.79 43.53 40.75 33.75 C 48.71 23.98 59.19 21.36 69.00 16.00
C 45.37 16.55 34.52 39.80 22.77 57.77 C 11.02 75.74 17.07 109.02 27.23 127.77 C 37.38 146.52 47.91 164.51 62.00 181.00 Z"/>
</g>
<g fill="#8C0000" fill-opacity="0.95" stroke="None">
<path d="
M 195.00 18.00 
C 211.41 18.00 230.04 14.53 243.92 24.08 C 257.80 33.63 259.82 44.86 267.00 58.00
C 266.78 48.71 259.92 38.69 254.25 31.75 C 248.57 24.82 238.81 17.53 230.01 16.99 C 221.21 16.45 202.40 12.52 195.00 18.00 Z"/>
</g>
<g fill="#000000" fill-opacity="0.57" stroke="None">
<path d="
M 25.00 29.00 
C 27.60 25.90 31.89 21.71 35.00 19.00
C 31.42 21.66 27.63 25.31 25.00 29.00 Z"/>
</g>
<g fill="#000000" fill-opacity="0.26" stroke="None">
<path d="
M 130.00 22.00 
C 130.26 22.23 130.68 22.80 131.00 23.00
C 133.50 24.55 139.84 33.87 142.00 34.00
C 144.89 33.95 143.78 32.42 145.00 31.00
C 143.71 31.17 143.25 32.70 142.00 33.00
C 139.07 28.67 133.29 23.78 130.00 22.00 Z"/>
</g>
<g fill="#000000" fill-opacity="0.60" stroke="None">
<path d="
M 145.00 31.00 
C 147.67 27.89 151.86 23.74 155.00 21.00
C 151.36 23.71 148.60 28.43 145.00 31.00 Z"/>
</g>
<g fill="#000000" fill-opacity="0.76" stroke="None">
<path d="
M 142.00 34.00 
C 139.84 33.87 133.50 24.55 131.00 23.00
C 132.59 25.04 139.19 34.04 142.00 34.00 Z"/>
</g>
<g fill="#930000" fill-opacity="0.94" stroke="None">
<path d="
M 266.00 114.00 
C 271.15 107.66 270.19 95.39 270.00 87.00 C 269.81 78.61 270.24 66.42 267.00 59.00
C 266.38 68.26 268.77 77.51 269.00 87.00 C 269.23 96.49 267.46 105.10 266.00 114.00 Z"/>
</g>
<g fill="#000000" fill-opacity="0.84" stroke="None">
<path d="
M 284.00 81.00 
C 283.94 78.90 283.17 76.47 283.00 75.00
C 283.06 77.10 283.83 79.53 284.00 81.00 Z"/>
</g>
<g fill="#340000" fill-opacity="1.00" stroke="None">
<path d="
M 70.00 189.00 
C 67.44 186.63 64.53 183.53 62.00 181.00
C 64.43 183.84 66.99 186.63 70.00 189.00 Z"/>
</g>
<g fill="#340000" fill-opacity="1.00" stroke="None">
<path d="
M 219.00 189.00 
C 220.99 187.06 223.13 185.19 225.00 183.00
C 223.06 184.94 220.88 186.87 219.00 189.00 Z"/>
</g>
<g fill="#000000" fill-opacity="0.50" stroke="None">
<path d="
M 72.00 211.00 
C 65.23 205.33 56.97 198.85 51.00 192.00
C 56.51 199.41 64.47 206.04 72.00 211.00 Z"/>
</g>
<g fill="#000000" fill-opacity="0.34" stroke="None">
<path d="
M 217.00 211.00 
C 215.91 212.13 215.04 213.92 214.00 215.00
C 220.99 209.03 229.80 200.49 234.00 194.00
C 228.75 199.62 223.09 205.80 217.00 211.00 Z"/>
</g>
<g fill="#340000" fill-opacity="1.00" stroke="None">
<path d="
M 203.00 205.00 
C 205.13 203.18 207.00 201.00 209.00 199.00
C 206.87 200.82 205.00 203.00 203.00 205.00 Z"/>
</g>
<g fill="#000000" fill-opacity="0.55" stroke="None">
<path d="
M 189.00 235.00 
C 198.09 229.72 205.88 221.94 214.00 215.00
C 215.04 213.92 215.91 212.13 217.00 211.00
C 207.63 219.01 198.73 227.91 189.00 235.00 Z"/>
</g>
<g fill="#000000" fill-opacity="0.50" stroke="None">
<path d="
M 113.00 246.00 
C 100.31 237.38 89.27 224.40 77.00 215.00
C 87.53 225.74 99.77 238.86 113.00 246.00 Z"/>
</g>
<g fill="#000000" fill-opacity="0.46" stroke="None">
<path d="
M 166.00 249.00 
C 168.92 247.84 171.49 246.76 174.00 245.00
C 171.48 246.33 168.44 247.69 166.00 249.00 Z"/>
</g>
<g fill="#000000" fill-opacity="0.51" stroke="None">
<path d="
M 141.00 258.00 
C 139.10 258.00 136.86 258.33 135.00 258.00
C 137.46 258.81 138.74 258.17 141.00 258.00 Z"/>
</g>
</svg>