<svg xmlns="http://www.w3.org/2000/svg" xmlns:v="https://svgstorm.com"
viewBox = "0 0 148 280"
width="148"
height="280">
<g fill="None" fill-opacity="0.0" stroke="#000000" stroke-opacity="0.02" stroke-width="0.3"><path d="
M 0.00 280.00 
L 148.00 280.00
L 148.00 0.00
L 0.00 0.00
L 0.00 280.00
M 124.00 3.00 
C 130.28 9.39 152.65 0.32 142.23 13.23 C 136.84 20.87 130.63 28.03 123.75 34.75 C 113.21 42.00 122.14 56.17 117.67 66.67 C 101.99 134.88 80.78 205.73 27.75 256.75 C 18.83 260.96 14.86 271.51 6.00 276.00
C 6.63 278.53 3.47 277.90 2.00 278.00
C 1.79 276.23 3.54 274.63 5.00 274.00
C 40.62 213.81 81.09 148.10 70.00 74.00
C 63.70 77.08 57.59 81.27 50.92 83.92 C 45.09 85.40 34.14 94.28 31.00 86.00
C 36.40 80.73 31.21 69.77 33.00 62.00 C 34.04 53.19 34.19 44.12 34.00 35.00 C 35.62 26.69 30.52 15.06 37.00 9.00
C 28.07 -2.20 49.01 3.41 55.00 3.00 C 75.93 3.40 97.90 2.44 118.00 3.00
C 119.39 2.01 123.26 0.12 124.00 3.00 Z"/>
</g>
<g fill="None" fill-opacity="0.0" stroke="#C10000" stroke-opacity="0.12" stroke-width="0.3"><path d="
M 118.00 3.00 
C 120.00 3.00 122.00 3.00 124.00 3.00
C 123.26 0.12 119.39 2.01 118.00 3.00 Z"/>
</g>
<g fill="None" fill-opacity="0.0" stroke="#000000" stroke-opacity="1.00" stroke-width="0.3"><path d="
M 5.00 274.00 
C 4.82 274.74 5.05 275.91 6.00 276.00
C 14.86 271.51 18.83 260.96 27.75 256.75 C 80.78 205.73 101.99 134.88 117.67 66.67 C 122.14 56.17 113.21 42.00 123.75 34.75 C 130.63 28.03 136.84 20.87 142.23 13.23 C 152.65 0.32 130.28 9.39 124.00 3.00
C 122.00 3.00 120.00 3.00 118.00 3.00
C 97.90 2.44 75.93 3.40 55.00 3.00 C 49.01 3.41 28.07 -2.20 37.00 9.00
C 30.52 15.06 35.62 26.69 34.00 35.00 C 34.19 44.12 34.04 53.19 33.00 62.00 C 31.21 69.77 36.40 80.73 31.00 86.00
C 34.14 94.28 45.09 85.40 50.92 83.92 C 57.59 81.27 63.70 77.08 70.00 74.00
C 81.09 148.10 40.62 213.81 5.00 274.00
M 50.00 217.00 
C 47.97 219.59 47.24 224.20 44.00 225.00
C 47.46 221.65 45.50 215.70 49.00 213.00
C 64.56 175.72 84.78 139.09 81.00 96.00 C 83.24 85.24 73.52 75.24 77.00 66.00
C 62.30 64.29 52.37 77.28 39.00 80.00
C 41.34 57.09 45.07 31.60 39.00 9.00
C 68.21 17.30 101.16 11.07 132.00 13.00
C 124.18 25.04 109.97 33.67 105.00 47.00
C 118.07 43.10 108.85 61.92 109.07 69.07 C 95.47 120.19 82.50 173.69 50.00 217.00 Z"/>
</g>
<g fill="None" fill-opacity="0.0" stroke="#D00000" stroke-opacity="1.00" stroke-width="0.3"><path d="
M 49.00 213.00 
C 49.28 214.28 48.24 216.50 50.00 217.00
C 82.50 173.69 95.47 120.19 109.07 69.07 C 108.85 61.92 118.07 43.10 105.00 47.00
C 109.97 33.67 124.18 25.04 132.00 13.00
C 101.16 11.07 68.21 17.30 39.00 9.00
C 45.07 31.60 41.34 57.09 39.00 80.00
C 52.37 77.28 62.30 64.29 77.00 66.00
C 73.52 75.24 83.24 85.24 81.00 96.00 C 84.78 139.09 64.56 175.72 49.00 213.00 Z"/>
</g>
<g fill="None" fill-opacity="0.0" stroke="#620000" stroke-opacity="1.00" stroke-width="0.3"><path d="
M 50.00 217.00 
C 48.24 216.50 49.28 214.28 49.00 213.00
C 45.50 215.70 47.46 221.65 44.00 225.00
C 47.24 224.20 47.97 219.59 50.00 217.00 Z"/>
</g>
<g fill="None" fill-opacity="0.0" stroke="#000000" stroke-opacity="0.44" stroke-width="0.3"><path d="
M 6.00 276.00 
C 5.05 275.91 4.82 274.74 5.00 274.00
C 3.54 274.63 1.79 276.23 2.00 278.00
C 3.47 277.90 6.63 278.53 6.00 276.00 Z"/>
</g>
<g fill="#000000" fill-opacity="0.02" stroke="None">
<path d="
M 0.00 280.00 
L 148.00 280.00
L 148.00 0.00
L 0.00 0.00
L 0.00 280.00
M 124.00 3.00 
C 130.28 9.39 152.65 0.32 142.23 13.23 C 136.84 20.87 130.63 28.03 123.75 34.75 C 113.21 42.00 122.14 56.17 117.67 66.67 C 101.99 134.88 80.78 205.73 27.75 256.75 C 18.83 260.96 14.86 271.51 6.00 276.00
C 6.63 278.53 3.47 277.90 2.00 278.00
C 1.79 276.23 3.54 274.63 5.00 274.00
C 40.62 213.81 81.09 148.10 70.00 74.00
C 63.70 77.08 57.59 81.27 50.92 83.92 C 45.09 85.40 34.14 94.28 31.00 86.00
C 36.40 80.73 31.21 69.77 33.00 62.00 C 34.04 53.19 34.19 44.12 34.00 35.00 C 35.62 26.69 30.52 15.06 37.00 9.00
C 28.07 -2.20 49.01 3.41 55.00 3.00 C 75.93 3.40 97.90 2.44 118.00 3.00
C 119.39 2.01 123.26 0.12 124.00 3.00 Z"/>
</g>
<g fill="#C10000" fill-opacity="0.12" stroke="None">
<path d="
M 118.00 3.00 
C 120.00 3.00 122.00 3.00 124.00 3.00
C 123.26 0.12 119.39 2.01 118.00 3.00 Z"/>
</g>
<g fill="#000000" fill-opacity="1.00" stroke="None">
<path d="
M 5.00 274.00 
C 4.82 274.74 5.05 275.91 6.00 276.00
C 14.86 271.51 18.83 260.96 27.75 256.75 C 80.78 205.73 101.99 134.88 117.67 66.67 C 122.14 56.17 113.21 42.00 123.75 34.75 C 130.63 28.03 136.84 20.87 142.23 13.23 C 152.65 0.32 130.28 9.39 124.00 3.00
C 122.00 3.00 120.00 3.00 118.00 3.00
C 97.90 2.44 75.93 3.40 55.00 3.00 C 49.01 3.41 28.07 -2.20 37.00 9.00
C 30.52 15.06 35.62 26.69 34.00 35.00 C 34.19 44.12 34.04 53.19 33.00 62.00 C 31.21 69.77 36.40 80.73 31.00 86.00
C 34.14 94.28 45.09 85.40 50.92 83.92 C 57.59 81.27 63.70 77.08 70.00 74.00
C 81.09 148.10 40.62 213.81 5.00 274.00
M 50.00 217.00 
C 47.97 219.59 47.24 224.20 44.00 225.00
C 47.46 221.65 45.50 215.70 49.00 213.00
C 64.56 175.72 84.78 139.09 81.00 96.00 C 83.24 85.24 73.52 75.24 77.00 66.00
C 62.30 64.29 52.37 77.28 39.00 80.00
C 41.34 57.09 45.07 31.60 39.00 9.00
C 68.21 17.30 101.16 11.07 132.00 13.00
C 124.18 25.04 109.97 33.67 105.00 47.00
C 118.07 43.10 108.85 61.92 109.07 69.07 C 95.47 120.19 82.50 173.69 50.00 217.00 Z"/>
</g>
<g fill="#D00000" fill-opacity="1.00" stroke="None">
<path d="
M 49.00 213.00 
C 49.28 214.28 48.24 216.50 50.00 217.00
C 82.50 173.69 95.47 120.19 109.07 69.07 C 108.85 61.92 118.07 43.10 105.00 47.00
C 109.97 33.67 124.18 25.04 132.00 13.00
C 101.16 11.07 68.21 17.30 39.00 9.00
C 45.07 31.60 41.34 57.09 39.00 80.00
C 52.37 77.28 62.30 64.29 77.00 66.00
C 73.52 75.24 83.24 85.24 81.00 96.00 C 84.78 139.09 64.56 175.72 49.00 213.00 Z"/>
</g>
<g fill="#620000" fill-opacity="1.00" stroke="None">
<path d="
M 50.00 217.00 
C 48.24 216.50 49.28 214.28 49.00 213.00
C 45.50 215.70 47.46 221.65 44.00 225.00
C 47.24 224.20 47.97 219.59 50.00 217.00 Z"/>
</g>
<g fill="#000000" fill-opacity="0.44" stroke="None">
<path d="
M 6.00 276.00 
C 5.05 275.91 4.82 274.74 5.00 274.00
C 3.54 274.63 1.79 276.23 2.00 278.00
C 3.47 277.90 6.63 278.53 6.00 276.00 Z"/>
</g>
</svg>